<svg width="530" height="530" viewBox="0 0 530 530" fill="none" xmlns="http://www.w3.org/2000/svg">
<mask id="mask0_115_48" style="mask-type:alpha" maskUnits="userSpaceOnUse" x="0" y="0" width="530" height="530">
<rect width="530" height="530" fill="#D9D9D9"/>
</mask>
<g mask="url(#mask0_115_48)">
<g filter="url(#filter0_d_115_48)">
<path d="M354.873 42H175.12C161.034 42.0006 147.197 45.4979 134.999 52.1406C122.8 58.7833 112.671 68.3372 105.628 79.8422L15.7515 226.658C8.70808 238.164 5 251.215 5 264.5C5 277.785 8.70808 290.836 15.7515 302.342L105.628 449.158C112.671 460.663 122.801 470.218 135 476.86C147.199 483.503 161.037 487 175.124 487H354.876C368.963 487 382.801 483.503 395 476.86C407.199 470.217 417.329 460.663 424.372 449.158L514.249 302.342C521.292 290.836 525 277.785 525 264.5C525 251.215 521.292 238.164 514.249 226.658L424.372 79.8481C417.329 68.3411 407.199 58.7855 394.999 52.1417C382.799 45.4979 368.96 42.0002 354.873 42Z" fill="#4E148D"/>
<path d="M113.304 84.5412L113.304 84.541C119.498 74.4226 128.447 65.9563 139.303 60.0447C150.161 54.1317 162.516 51.0006 175.12 51C175.12 51 175.12 51 175.12 51H354.873C367.478 51.0001 379.835 54.1316 390.695 60.0457C401.552 65.9583 410.502 74.4262 416.696 84.5463L416.696 84.5472L506.573 231.357C512.764 241.471 516 252.9 516 264.5C516 276.1 512.764 287.529 506.573 297.643L514.249 302.342L506.573 297.643L416.696 444.459C410.502 454.578 401.552 463.044 390.696 468.956C379.837 474.869 367.481 478 354.876 478H175.124C162.519 478 150.163 474.869 139.304 468.956C128.448 463.044 119.498 454.578 113.304 444.459L105.628 449.158L113.304 444.459L23.4274 297.643L23.4273 297.643C17.2357 287.529 14 276.1 14 264.5C14 252.9 17.2357 241.471 23.4273 231.357L23.4274 231.357L113.304 84.5412Z" stroke="white" stroke-width="18"/>
</g>
<path d="M408.3 351.022C402.526 345.066 392.619 345.181 386.871 351.159C361.638 377.4 325.172 393.93 284.654 393.93C208.664 393.93 146.843 335.852 146.843 264.465C146.843 193.078 208.666 135.001 284.654 135.001C324.516 135.001 360.466 150.994 385.648 176.496C391.414 182.336 401.192 182.383 406.9 176.496L406.987 176.408C409.43 173.883 410.775 170.582 410.754 167.164C410.733 163.745 409.347 160.459 406.873 157.961C376.391 127.101 332.896 107.743 284.654 107.743C192.661 107.746 117.824 178.048 117.824 264.465C117.824 350.882 192.663 421.185 284.65 421.185C333.675 421.185 377.804 401.197 408.355 369.459C413.379 364.239 413.403 356.284 408.355 351.082L408.3 351.022Z" fill="white"/>
<path fill-rule="evenodd" clip-rule="evenodd" d="M322.125 188.426C320.94 189.128 320.052 190.2 319.617 191.455H299.707V195.493H319.831C320.396 196.701 321.392 197.684 322.646 198.272C323.899 198.859 325.332 199.014 326.694 198.71C328.056 198.405 329.263 197.66 330.103 196.604C330.944 195.549 331.366 194.248 331.297 192.93C331.227 191.611 330.67 190.357 329.722 189.385C328.774 188.413 327.495 187.785 326.107 187.61C324.72 187.435 323.311 187.723 322.125 188.426ZM326.901 195.386C326.44 195.679 325.898 195.836 325.343 195.838C324.596 195.839 323.88 195.56 323.351 195.063C322.822 194.566 322.524 193.892 322.522 193.188C322.522 192.664 322.686 192.152 322.995 191.716C323.303 191.281 323.741 190.941 324.254 190.74C324.767 190.539 325.331 190.486 325.876 190.588C326.421 190.689 326.921 190.941 327.315 191.31C327.708 191.68 327.977 192.151 328.086 192.664C328.196 193.178 328.142 193.71 327.931 194.195C327.72 194.679 327.362 195.094 326.901 195.386ZM267.928 212.402H224.48V189.284H294.845V212.402V316.247H267.928V212.402ZM299.836 207.886V203.847H340.83C341.33 202.606 342.276 201.57 343.503 200.919C344.73 200.267 346.16 200.042 347.545 200.282C348.93 200.522 350.181 201.212 351.082 202.232C351.984 203.253 352.477 204.539 352.477 205.867C352.477 207.194 351.984 208.48 351.082 209.501C350.181 210.521 348.93 211.211 347.545 211.451C346.16 211.691 344.73 211.466 343.503 210.815C342.276 210.163 341.33 209.127 340.83 207.886H299.836ZM346.462 208.516C347.017 208.513 347.559 208.356 348.02 208.064C348.481 207.771 348.839 207.356 349.05 206.872C349.261 206.387 349.315 205.855 349.205 205.341C349.095 204.828 348.827 204.357 348.433 203.987C348.04 203.618 347.539 203.367 346.994 203.265C346.449 203.164 345.885 203.217 345.372 203.418C344.859 203.619 344.421 203.959 344.113 204.395C343.805 204.831 343.64 205.343 343.641 205.867C343.643 206.57 343.942 207.244 344.471 207.74C345 208.236 345.716 208.514 346.462 208.513V208.516ZM334.748 213.667C333.809 213.131 332.733 212.847 331.636 212.846C330.414 212.847 329.222 213.198 328.216 213.851C327.21 214.504 326.438 215.429 326.001 216.505H299.707V220.543H326.003C326.394 221.511 327.057 222.359 327.921 222.997C328.786 223.634 329.819 224.037 330.908 224.161C331.998 224.285 333.102 224.126 334.103 223.701C335.104 223.276 335.962 222.601 336.585 221.749C337.209 220.897 337.573 219.901 337.64 218.868C337.706 217.835 337.472 216.804 336.962 215.887C336.453 214.971 335.687 214.203 334.748 213.667ZM333.194 220.722C332.733 221.015 332.191 221.172 331.636 221.174C330.889 221.175 330.173 220.897 329.644 220.4C329.115 219.903 328.816 219.228 328.814 218.524C328.815 218 328.979 217.488 329.287 217.053C329.596 216.617 330.034 216.278 330.547 216.077C331.059 215.876 331.624 215.823 332.168 215.924C332.713 216.026 333.214 216.277 333.607 216.646C334.001 217.016 334.269 217.487 334.379 218.001C334.489 218.514 334.435 219.046 334.224 219.531C334.013 220.015 333.654 220.43 333.194 220.722Z" fill="white"/>
<path d="M374.667 340.145C365.633 349.303 355.031 356.965 343.304 362.81C337.847 365.525 321.152 373.327 298.413 375.268C294.782 375.582 291.168 375.736 287.572 375.73C259.86 375.73 233.352 366.688 211.945 349.757C205.288 344.504 199.266 338.574 193.988 332.075C193.644 331.65 193.3 331.217 192.956 330.78C192.719 330.492 192.489 330.192 192.261 329.894C186.332 322.122 181.494 313.661 177.864 304.721C176.573 301.556 175.428 298.318 174.431 295.008C166.358 268.221 169.01 240.164 181.84 215.338C182.852 213.874 184.14 212.598 185.64 211.571C192.322 207.015 202.383 208.002 207.681 215.069C207.742 215.14 207.788 215.205 207.842 215.278C207.933 215.396 208.025 215.53 208.116 215.653C211.237 219.972 211.642 225.502 209.347 230.269C197.336 255.167 199.361 284.247 214.524 307.293C214.921 307.905 215.334 308.519 215.755 309.124C215.984 309.47 216.229 309.816 216.481 310.155C216.733 310.494 216.97 310.84 217.223 311.179C217.497 311.569 217.788 311.95 218.096 312.333C218.405 312.716 218.686 313.097 218.991 313.48C219.241 313.782 219.479 314.085 219.724 314.38C220.184 314.943 220.65 315.492 221.131 316.039C228.039 324.063 236.519 330.759 246.109 335.76C280.811 353.91 323.212 347.024 349.886 321.469C353.779 317.74 359.397 316.104 364.795 317.315C364.948 317.352 365.109 317.38 365.262 317.417C365.262 317.417 365.511 317.474 365.761 317.534C366.224 317.652 379.277 325.229 376.939 335.41C376.697 336.466 376.142 338.194 374.667 340.145Z" fill="white"/>
</g>
<defs>
<filter id="filter0_d_115_48" x="-15" y="22" width="560" height="485" filterUnits="userSpaceOnUse" color-interpolation-filters="sRGB">
<feFlood flood-opacity="0" result="BackgroundImageFix"/>
<feColorMatrix in="SourceAlpha" type="matrix" values="0 0 0 0 0 0 0 0 0 0 0 0 0 0 0 0 0 0 127 0" result="hardAlpha"/>
<feOffset/>
<feGaussianBlur stdDeviation="10"/>
<feComposite in2="hardAlpha" operator="out"/>
<feColorMatrix type="matrix" values="0 0 0 0 0 0 0 0 0 0 0 0 0 0 0 0 0 0 0.25 0"/>
<feBlend mode="normal" in2="BackgroundImageFix" result="effect1_dropShadow_115_48"/>
<feBlend mode="normal" in="SourceGraphic" in2="effect1_dropShadow_115_48" result="shape"/>
</filter>
</defs>
</svg>
