<svg width="486" height="485" viewBox="0 0 486 485" fill="none" xmlns="http://www.w3.org/2000/svg">
<path fill-rule="evenodd" clip-rule="evenodd" d="M100.253 385.2C62.3743 347.321 41.0942 295.946 41.0942 242.377C41.0942 188.809 62.3743 137.434 100.253 99.5551C138.132 61.6763 189.507 40.3962 243.075 40.3962C296.644 40.3962 348.019 61.6763 385.898 99.5551C423.776 137.434 445.057 188.809 445.057 242.377C445.057 295.946 423.776 347.321 385.898 385.2C348.019 423.078 296.644 444.359 243.075 444.359C189.507 444.359 138.132 423.078 100.253 385.2ZM280.586 194.323L243.075 121.189L205.565 194.323L121.887 206.357L182.481 262.828L168.054 343.368L243.075 305.412L318.097 343.368L303.67 262.828L364.264 206.357L280.586 194.323Z" fill="#4E148D"/>
</svg>
