<svg width="326" height="326" viewBox="0 0 326 326" fill="none" xmlns="http://www.w3.org/2000/svg">
<circle cx="163" cy="163" r="163" fill="#1E40AF"/>
<g clip-path="url(#clip0_349_75)">
<path d="M238.857 233.286H86.5714C76.8486 233.286 69 225.437 69 215.714V110.286C69 100.563 76.8486 92.7144 86.5714 92.7144H238.857C248.58 92.7144 256.429 100.563 256.429 110.286V215.714C256.429 225.437 248.58 233.286 238.857 233.286ZM86.5714 104.429C83.2914 104.429 80.7143 107.006 80.7143 110.286V215.714C80.7143 218.994 83.2914 221.571 86.5714 221.571H238.857C242.137 221.571 244.714 218.994 244.714 215.714V110.286C244.714 107.006 242.137 104.429 238.857 104.429H86.5714Z" fill="white"/>
<path d="M162.714 185.96C154.514 185.96 147.017 182.68 141.394 176.706L79.8943 111.34C77.6685 108.997 77.7857 105.249 80.1285 103.023C82.4714 100.797 86.22 100.914 88.4457 103.257L149.946 168.623C156.623 175.769 168.806 175.769 175.483 168.623L236.983 103.374C239.209 101.031 242.957 100.914 245.3 103.14C247.643 105.366 247.76 109.114 245.534 111.457L184.034 176.823C178.411 182.797 170.914 186.077 162.714 186.077V185.96Z" fill="white"/>
</g>
<defs>
<clipPath id="clip0_349_75">
<rect width="187.429" height="164" fill="white" transform="translate(69 81)"/>
</clipPath>
</defs>
</svg>
