<svg width="485" height="485" viewBox="0 0 485 485" fill="none" xmlns="http://www.w3.org/2000/svg">
<path d="M363.247 190.781L418.161 240.969C424.796 247.119 422.902 251.86 413.904 251.86H372.715V382.987C372.715 391.985 365.141 400.029 356.143 400.029H284.656V308.183C284.656 299.185 276.613 291.141 267.614 291.141H222.638C213.64 291.141 205.596 299.185 205.596 308.183V400.029H134.11C125.112 400.029 117.068 391.985 117.068 382.987V251.86H76.3482C67.35 251.86 65.4564 247.119 72.0915 240.969L232.576 95.1634C239.211 89.0131 250.572 89.0131 257.662 95.1634L294.109 127.824V101.783C294.109 92.7851 302.153 84.7412 311.151 84.7412H346.66C355.658 84.7412 363.232 92.7851 363.232 101.783L363.247 190.781Z" fill="#4E148D"/>
</svg>
