<svg width="485" height="485" viewBox="0 0 485 485" fill="none" xmlns="http://www.w3.org/2000/svg">
<path fill-rule="evenodd" clip-rule="evenodd" d="M332.659 160.573C332.659 215.792 292.236 260.556 242.372 260.556C192.507 260.556 152.084 215.792 152.084 160.573C152.084 105.354 192.507 60.5906 242.372 60.5906C292.236 60.5906 332.659 105.354 332.659 160.573ZM424.158 387.819V370.853C424.158 326.618 372.652 299.956 324.175 279.353C322.357 278.141 321.145 277.535 319.327 276.929C315.692 275.111 311.45 275.111 307.814 277.535C288.424 289.654 266.003 296.926 242.371 296.926C218.739 296.926 196.318 289.654 176.928 276.929C173.292 274.506 169.05 274.506 165.414 276.323C163.597 277.535 162.385 278.141 160.567 278.747C112.09 299.956 60.584 326.618 60.584 370.853V387.819C60.584 407.816 76.9448 424.177 96.9414 424.177H387.801C407.797 424.177 424.158 407.816 424.158 387.819Z" fill="#4E148D"/>
</svg>
