<svg width="326" height="326" viewBox="0 0 326 326" fill="none" xmlns="http://www.w3.org/2000/svg">
<circle cx="163" cy="163" r="163" fill="#1E40AF"/>
<path d="M201.575 186.758L205.375 182.983L196.55 174.117L192.767 177.892L201.575 186.758ZM218.117 181.4L234.042 190.058L240 179.075L224.083 170.425L218.117 181.4ZM237.1 207.258L225.267 219.033L234.075 227.892L245.908 216.125L237.1 207.258ZM218.05 222.817C205.967 223.95 174.717 222.942 140.867 189.292L132.05 198.15C168.983 234.875 204.142 236.675 219.217 235.267L218.05 222.817ZM140.867 189.292C108.608 157.208 103.258 130.233 102.592 118.525L90.1085 119.233C90.9418 133.967 97.5668 163.867 132.05 198.15L140.867 189.292ZM152.325 137.792L154.717 135.408L145.917 126.55L143.525 128.925L152.325 137.792ZM156.617 105.117L146.117 91.0834L136.108 98.5834L146.608 112.608L156.617 105.117ZM110.775 88.0251L97.6918 101.025L106.508 109.892L119.583 96.8917L110.775 88.0251ZM147.925 133.358C143.508 128.925 143.508 128.925 143.508 128.942H143.492L143.467 128.975C143.073 129.377 142.719 129.815 142.408 130.283C141.958 130.95 141.467 131.825 141.05 132.933C140.035 135.794 139.783 138.87 140.317 141.858C141.433 149.067 146.4 158.592 159.117 171.242L167.933 162.375C156.025 150.542 153.192 143.342 152.667 139.942C152.417 138.325 152.675 137.525 152.75 137.342C152.792 137.225 152.808 137.217 152.75 137.292C152.677 137.407 152.593 137.516 152.5 137.617L152.417 137.7C152.39 137.726 152.362 137.751 152.333 137.775L147.925 133.358ZM159.117 171.242C171.842 183.892 181.417 188.825 188.633 189.925C192.325 190.492 195.3 190.042 197.558 189.2C198.821 188.733 200.003 188.069 201.058 187.233C201.202 187.114 201.341 186.988 201.475 186.858L201.533 186.808L201.558 186.783L201.567 186.767C201.567 186.767 201.575 186.758 197.167 182.325C192.75 177.892 192.775 177.883 192.775 177.883L192.792 177.867L192.808 177.85L192.858 177.808L192.942 177.725C193.042 177.635 193.148 177.552 193.258 177.475C193.342 177.417 193.317 177.442 193.2 177.492C192.992 177.567 192.175 177.825 190.533 177.575C187.083 177.042 179.833 174.208 167.933 162.375L159.117 171.242ZM146.117 91.0751C137.617 79.7417 120.917 77.9417 110.775 88.0251L119.583 96.8917C124.017 92.4834 131.883 92.9417 136.108 98.5834L146.117 91.0751ZM102.6 118.533C102.433 115.65 103.758 112.633 106.508 109.9L97.6835 101.033C93.2085 105.483 89.6835 111.783 90.1085 119.233L102.6 118.533ZM225.267 219.033C222.983 221.317 220.517 222.6 218.058 222.825L219.217 235.267C225.342 234.692 230.35 231.608 234.083 227.9L225.267 219.033ZM154.717 135.408C162.925 127.25 163.533 114.358 156.625 105.125L146.617 112.617C149.975 117.108 149.475 123 145.908 126.558L154.717 135.408ZM234.05 190.067C240.858 193.767 241.917 202.483 237.108 207.267L245.925 216.125C257.092 205.017 253.65 186.492 240.008 179.083L234.05 190.067ZM205.375 182.992C208.575 179.808 213.725 179.025 218.125 181.408L224.092 170.433C215.058 165.517 203.858 166.875 196.558 174.125L205.375 182.992Z" fill="white"/>
</svg>
