<svg width="485" height="485" viewBox="0 0 485 485" fill="none" xmlns="http://www.w3.org/2000/svg">
<path d="M290.464 390.671C290.464 395.952 286.177 400.238 280.896 400.238H204.357C199.076 400.238 194.79 395.952 194.79 390.671C194.79 385.389 199.076 381.103 204.357 381.103H280.896C286.177 381.103 290.464 385.39 290.464 390.671ZM280.896 405.021H204.357C198.062 405.021 193.187 411.102 195.283 417.708C196.546 421.693 200.578 424.156 204.76 424.156H204.903C210.428 424.156 215.48 427.28 217.953 432.222L218.053 432.423C221.388 439.081 228.195 443.291 235.643 443.291H249.611C257.06 443.291 263.867 439.081 267.196 432.423L267.297 432.222C269.77 427.28 274.821 424.156 280.346 424.156H280.49C284.671 424.156 288.704 421.693 289.966 417.708C292.066 411.102 287.191 405.021 280.896 405.021ZM242.627 98.8677C247.908 98.8677 252.194 94.5814 252.194 89.3004V51.0312C252.194 45.7502 247.908 41.4639 242.627 41.4639C237.345 41.4639 233.059 45.7502 233.059 51.0312V89.3004C233.059 94.5814 237.345 98.8677 242.627 98.8677ZM141.151 135.295C143.017 137.166 145.466 138.099 147.915 138.099C150.365 138.099 152.813 137.166 154.679 135.295C158.415 131.559 158.415 125.503 154.679 121.767L127.618 94.7059C123.887 90.9698 117.821 90.9698 114.09 94.7059C110.354 98.4421 110.354 104.498 114.09 108.234L141.151 135.295ZM118.251 223.243C118.251 217.962 113.965 213.675 108.684 213.675H70.415C65.1339 213.675 60.8477 217.962 60.8477 223.243C60.8477 228.524 65.1339 232.81 70.415 232.81H108.684C113.966 232.81 118.251 228.524 118.251 223.243ZM141.151 311.19L114.09 338.252C110.354 341.988 110.354 348.044 114.09 351.779C115.956 353.65 118.405 354.582 120.854 354.582C123.303 354.582 125.753 353.65 127.618 351.779L154.679 324.718C158.415 320.982 158.415 314.926 154.679 311.19C150.948 307.454 144.882 307.454 141.151 311.19ZM344.102 311.19C340.366 307.454 334.31 307.454 330.575 311.19C326.839 314.926 326.838 320.983 330.575 324.718L357.636 351.779C359.506 353.65 361.951 354.582 364.4 354.582C366.849 354.582 369.293 353.65 371.164 351.779C374.9 348.043 374.9 341.987 371.164 338.252L344.102 311.19ZM414.838 213.675H376.569C371.288 213.675 367.001 217.962 367.001 223.243C367.001 228.524 371.288 232.81 376.569 232.81H414.838C420.119 232.81 424.405 228.524 424.405 223.243C424.405 217.962 420.119 213.675 414.838 213.675ZM337.338 138.099C339.787 138.099 342.231 137.166 344.102 135.295L371.163 108.234C374.899 104.498 374.899 98.4421 371.163 94.7059C367.427 90.9698 361.371 90.9698 357.635 94.7059L330.574 121.767C326.838 125.504 326.838 131.559 330.574 135.295C332.44 137.166 334.889 138.099 337.338 138.099ZM290.464 366.752C290.464 372.033 286.177 376.32 280.896 376.32H204.357C199.076 376.32 194.79 372.033 194.79 366.752C194.79 361.658 198.784 357.53 203.807 357.242C197.851 303.407 142.17 291.415 142.17 228.026C142.17 172.546 187.146 127.57 242.626 127.57C298.107 127.57 343.083 172.546 343.083 228.026C343.083 291.414 287.401 303.407 281.446 357.243C286.469 357.53 290.464 361.658 290.464 366.752ZM220.579 154.406C219.091 150.737 214.915 148.972 211.232 150.45C186.782 160.357 168.246 181.533 161.649 207.097C160.659 210.938 162.969 214.847 166.806 215.837C167.404 215.995 168.007 216.067 168.6 216.067C171.795 216.067 174.709 213.919 175.546 210.685C181.009 189.503 196.365 171.956 216.619 163.752C220.292 162.266 222.062 158.084 220.579 154.406Z" fill="#1E40AF"/>
</svg>
