<svg width="326" height="326" viewBox="0 0 326 326" fill="none" xmlns="http://www.w3.org/2000/svg">
<circle cx="163" cy="163" r="163" fill="#4E148D"/>
<path d="M223.75 142.75C223.75 126.638 217.35 111.186 205.957 99.7933C194.564 88.4004 179.112 82 163 82C146.888 82 131.436 88.4004 120.043 99.7933C108.65 111.186 102.25 126.638 102.25 142.75C102.25 167.671 122.189 200.152 163 239.059C203.811 200.152 223.75 167.671 223.75 142.75ZM163 257.5C113.495 212.505 88.75 174.245 88.75 142.75C88.75 123.058 96.5727 104.172 110.497 90.2473C124.422 76.3227 143.308 68.5 163 68.5C182.692 68.5 201.578 76.3227 215.503 90.2473C229.427 104.172 237.25 123.058 237.25 142.75C237.25 174.245 212.505 212.505 163 257.5Z" fill="white"/>
<path d="M163 163C168.371 163 173.521 160.867 177.319 157.069C181.117 153.271 183.25 148.121 183.25 142.75C183.25 137.379 181.117 132.229 177.319 128.431C173.521 124.633 168.371 122.5 163 122.5C157.629 122.5 152.479 124.633 148.681 128.431C144.883 132.229 142.75 137.379 142.75 142.75C142.75 148.121 144.883 153.271 148.681 157.069C152.479 160.867 157.629 163 163 163ZM163 176.5C154.049 176.5 145.464 172.944 139.135 166.615C132.806 160.285 129.25 151.701 129.25 142.75C129.25 133.799 132.806 125.214 139.135 118.885C145.464 112.556 154.049 109 163 109C171.951 109 180.535 112.556 186.865 118.885C193.194 125.214 196.75 133.799 196.75 142.75C196.75 151.701 193.194 160.285 186.865 166.615C180.535 172.944 171.951 176.5 163 176.5Z" fill="white"/>
</svg>
