<svg width="1854" height="603" viewBox="0 0 1854 603" fill="none" xmlns="http://www.w3.org/2000/svg">
<g clip-path="url(#clip0_111_22)">
<path d="M446.089 0.902832H216.902C198.943 0.903595 181.3 5.6316 165.747 14.6117C150.194 23.5917 137.279 36.5075 128.3 52.0608L13.7063 250.538C4.72588 266.092 -0.00195312 283.735 -0.00195312 301.695C-0.00195313 319.655 4.72588 337.299 13.7063 352.852L128.3 551.329C137.28 566.883 150.196 579.8 165.749 588.78C181.303 597.76 198.947 602.488 216.907 602.487H446.094C464.054 602.487 481.698 597.759 497.251 588.779C512.805 579.799 525.721 566.883 534.701 551.329L649.295 352.852C658.275 337.299 663.003 319.655 663.003 301.695C663.003 283.735 658.275 266.092 649.295 250.538L534.701 52.0687C525.722 36.5128 512.806 23.5947 497.251 14.6132C481.696 5.6316 464.051 0.903048 446.089 0.902832Z" fill="#4E148D"/>
<path d="M514.238 418.707C506.877 410.656 494.245 410.812 486.916 418.894C454.743 454.368 408.249 476.714 356.588 476.714C259.701 476.714 180.878 398.2 180.878 301.693C180.878 205.187 259.702 126.674 356.588 126.674C407.413 126.674 453.249 148.294 485.357 182.771C492.709 190.665 505.176 190.729 512.454 182.771L512.564 182.652C515.679 179.238 517.394 174.776 517.367 170.154C517.34 165.533 515.574 161.091 512.419 157.713C473.554 115.995 418.097 89.8247 356.588 89.8247C239.297 89.8295 143.879 184.869 143.879 301.693C143.879 418.518 239.299 513.559 356.583 513.559C419.091 513.559 475.356 486.539 514.308 443.633C520.714 436.576 520.744 425.822 514.308 418.789L514.238 418.707Z" fill="#FFFEFF"/>
<path fill-rule="evenodd" clip-rule="evenodd" d="M404.354 198.866C402.842 199.815 401.711 201.264 401.156 202.961H375.77V208.42H401.428C402.149 210.053 403.419 211.382 405.017 212.176C406.616 212.971 408.442 213.18 410.179 212.768C411.916 212.357 413.454 211.35 414.526 209.922C415.598 208.495 416.136 206.737 416.047 204.954C415.958 203.172 415.248 201.476 414.039 200.163C412.831 198.849 411.2 198 409.431 197.763C407.662 197.526 405.865 197.916 404.354 198.866ZM410.443 208.275C409.856 208.671 409.164 208.883 408.456 208.886C407.504 208.887 406.591 208.511 405.917 207.839C405.242 207.167 404.862 206.255 404.859 205.303C404.859 204.595 405.069 203.903 405.462 203.314C405.855 202.726 406.414 202.266 407.068 201.995C407.721 201.723 408.441 201.651 409.136 201.789C409.83 201.926 410.469 202.265 410.97 202.765C411.472 203.265 411.814 203.902 411.954 204.596C412.094 205.29 412.025 206.01 411.756 206.664C411.487 207.319 411.03 207.88 410.443 208.275ZM335.243 231.306H279.847V200.054H369.562V231.306V371.692H335.243V231.306ZM375.906 225.156V219.697H428.173C428.812 218.019 430.018 216.618 431.582 215.738C433.147 214.857 434.97 214.553 436.736 214.877C438.501 215.202 440.097 216.135 441.246 217.514C442.395 218.893 443.024 220.632 443.024 222.427C443.024 224.222 442.395 225.96 441.246 227.34C440.097 228.719 438.501 229.652 436.736 229.977C434.97 230.301 433.147 229.997 431.582 229.116C430.018 228.235 428.812 226.834 428.173 225.156H375.906ZM435.355 226.008C436.063 226.005 436.754 225.792 437.341 225.397C437.929 225.002 438.386 224.441 438.654 223.786C438.923 223.131 438.992 222.411 438.852 221.717C438.712 221.023 438.37 220.386 437.868 219.886C437.366 219.387 436.728 219.047 436.033 218.91C435.338 218.773 434.619 218.845 433.965 219.117C433.311 219.389 432.753 219.848 432.36 220.438C431.967 221.027 431.757 221.719 431.758 222.427C431.761 223.378 432.142 224.289 432.816 224.96C433.49 225.631 434.403 226.006 435.355 226.005V226.008ZM420.448 232.977C419.251 232.252 417.879 231.868 416.479 231.867C414.922 231.869 413.402 232.343 412.12 233.226C410.837 234.109 409.852 235.36 409.295 236.814H375.77V242.273H409.298C409.796 243.581 410.641 244.728 411.744 245.59C412.846 246.452 414.163 246.996 415.552 247.164C416.941 247.332 418.35 247.117 419.625 246.542C420.901 245.967 421.996 245.055 422.79 243.903C423.585 242.752 424.05 241.405 424.135 240.008C424.22 238.611 423.921 237.218 423.271 235.979C422.621 234.739 421.645 233.701 420.448 232.977ZM418.466 242.515C417.879 242.911 417.187 243.123 416.479 243.126C415.528 243.127 414.614 242.751 413.94 242.079C413.265 241.407 412.885 240.495 412.882 239.543C412.882 238.835 413.092 238.143 413.485 237.554C413.878 236.966 414.437 236.506 415.091 236.235C415.745 235.963 416.464 235.891 417.159 236.029C417.853 236.166 418.492 236.505 418.993 237.005C419.495 237.505 419.837 238.142 419.977 238.836C420.117 239.53 420.048 240.25 419.779 240.904C419.51 241.559 419.053 242.12 418.466 242.515Z" fill="white"/>
<path d="M471.332 403.965C459.813 416.347 446.295 426.705 431.343 434.606C424.385 438.276 403.099 448.824 374.107 451.448C369.477 451.873 364.869 452.081 360.284 452.072C324.952 452.072 291.153 439.849 263.859 416.961C255.372 409.859 247.694 401.842 240.964 393.057C240.525 392.482 240.087 391.896 239.648 391.306C239.346 390.916 239.053 390.51 238.761 390.108C231.203 379.602 225.033 368.163 220.406 356.077C218.759 351.798 217.3 347.422 216.029 342.946C205.735 306.733 209.117 268.804 225.475 235.243C226.766 233.264 228.408 231.538 230.32 230.15C238.839 223.99 251.668 225.326 258.422 234.878C258.5 234.975 258.559 235.063 258.627 235.161C258.744 235.321 258.861 235.502 258.978 235.668C262.957 241.507 263.472 248.983 260.547 255.427C245.233 289.086 247.814 328.399 267.147 359.554C267.653 360.382 268.18 361.211 268.716 362.029C269.009 362.497 269.321 362.965 269.643 363.423C269.964 363.882 270.267 364.35 270.588 364.808C270.938 365.335 271.309 365.85 271.702 366.368C272.095 366.885 272.453 367.401 272.843 367.918C273.162 368.327 273.466 368.736 273.778 369.135C274.363 369.896 274.959 370.638 275.571 371.378C284.379 382.225 295.191 391.277 307.419 398.038C351.665 422.574 405.725 413.265 439.736 378.718C444.698 373.678 451.862 371.465 458.744 373.103C458.94 373.153 459.145 373.191 459.339 373.24C459.339 373.24 459.658 373.318 459.976 373.399C460.566 373.558 477.209 383.802 474.228 397.564C473.92 398.992 473.211 401.328 471.332 403.965Z" fill="#FFFEFF"/>
</g>
<path d="M811.748 348.687V357.234H783.161V451.688H772.846V357.234H744.112V348.687H811.748ZM914.09 407.335C914.09 410.871 913.992 413.573 913.796 415.439H847.044C847.339 421.53 848.812 426.736 851.465 431.059C854.117 435.381 857.604 438.672 861.927 440.932C866.249 443.093 870.965 444.173 876.073 444.173C882.753 444.173 888.352 442.552 892.871 439.311C897.488 436.069 900.534 431.697 902.007 426.196H912.912C910.947 434.055 906.723 440.49 900.239 445.5C893.854 450.411 885.798 452.867 876.073 452.867C868.509 452.867 861.73 451.197 855.738 447.857C849.746 444.419 845.03 439.605 841.592 433.416C838.252 427.129 836.582 419.811 836.582 411.461C836.582 403.11 838.252 395.792 841.592 389.505C844.932 383.218 849.598 378.404 855.591 375.064C861.583 371.724 868.41 370.054 876.073 370.054C883.735 370.054 890.415 371.724 896.113 375.064C901.909 378.404 906.33 382.923 909.375 388.621C912.519 394.22 914.09 400.458 914.09 407.335ZM903.628 407.04C903.727 401.048 902.499 395.939 899.944 391.715C897.488 387.491 894.099 384.298 889.777 382.137C885.455 379.976 880.739 378.895 875.631 378.895C867.968 378.895 861.436 381.351 856.033 386.263C850.63 391.175 847.633 398.1 847.044 407.04H903.628ZM941.509 411.461C941.509 403.11 943.179 395.841 946.519 389.652C949.859 383.365 954.476 378.551 960.37 375.211C966.264 371.773 972.994 370.054 980.558 370.054C990.48 370.054 998.633 372.51 1005.02 377.422C1011.5 382.333 1015.68 389.014 1017.54 397.462H1006.49C1005.12 391.666 1002.12 387.147 997.504 383.905C992.985 380.565 987.336 378.895 980.558 378.895C975.155 378.895 970.292 380.123 965.97 382.579C961.647 385.035 958.209 388.719 955.655 393.631C953.199 398.444 951.971 404.388 951.971 411.461C951.971 418.534 953.199 424.526 955.655 429.438C958.209 434.35 961.647 438.034 965.97 440.49C970.292 442.945 975.155 444.173 980.558 444.173C987.336 444.173 992.985 442.552 997.504 439.311C1002.12 435.971 1005.12 431.354 1006.49 425.459H1017.54C1015.68 433.711 1011.5 440.342 1005.02 445.352C998.535 450.362 990.382 452.867 980.558 452.867C972.994 452.867 966.264 451.197 960.37 447.857C954.476 444.419 949.859 439.605 946.519 433.416C943.179 427.129 941.509 419.811 941.509 411.461ZM1088.17 369.759C1094.26 369.759 1099.71 371.036 1104.52 373.59C1109.44 376.145 1113.27 380.074 1116.02 385.379C1118.87 390.585 1120.29 396.971 1120.29 404.535V451.688H1110.12V405.714C1110.12 396.971 1107.91 390.291 1103.49 385.674C1099.17 381.056 1093.23 378.748 1085.66 378.748C1077.9 378.748 1071.71 381.204 1067.1 386.116C1062.48 391.027 1060.17 398.248 1060.17 407.777V451.688H1049.86V342.646H1060.17V384.937C1062.73 380.123 1066.46 376.39 1071.37 373.738C1076.38 371.085 1081.98 369.759 1088.17 369.759ZM1194.09 369.759C1203.72 369.759 1211.57 372.755 1217.67 378.748C1223.76 384.642 1226.8 393.238 1226.8 404.535V451.688H1216.63V405.714C1216.63 396.971 1214.42 390.291 1210 385.674C1205.68 381.056 1199.74 378.748 1192.17 378.748C1184.41 378.748 1178.22 381.204 1173.61 386.116C1168.99 391.027 1166.68 398.248 1166.68 407.777V451.688H1156.37V371.233H1166.68V384.937C1169.23 380.025 1172.92 376.292 1177.73 373.738C1182.55 371.085 1188 369.759 1194.09 369.759ZM1298.09 452.867C1290.53 452.867 1283.7 451.197 1277.61 447.857C1271.62 444.419 1266.85 439.605 1263.32 433.416C1259.88 427.129 1258.16 419.811 1258.16 411.461C1258.16 403.11 1259.93 395.841 1263.47 389.652C1267 383.365 1271.82 378.551 1277.91 375.211C1284 371.773 1290.82 370.054 1298.39 370.054C1305.95 370.054 1312.78 371.773 1318.87 375.211C1325.06 378.551 1329.87 383.365 1333.31 389.652C1336.85 395.841 1338.62 403.11 1338.62 411.461C1338.62 419.712 1336.85 426.982 1333.31 433.269C1329.78 439.556 1324.91 444.419 1318.72 447.857C1312.53 451.197 1305.66 452.867 1298.09 452.867ZM1298.09 443.879C1303.4 443.879 1308.31 442.7 1312.83 440.342C1317.35 437.886 1320.98 434.251 1323.73 429.438C1326.58 424.526 1328.01 418.534 1328.01 411.461C1328.01 404.388 1326.63 398.444 1323.88 393.631C1321.13 388.719 1317.5 385.084 1312.98 382.726C1308.46 380.27 1303.55 379.043 1298.24 379.043C1292.94 379.043 1288.02 380.27 1283.51 382.726C1278.99 385.084 1275.35 388.719 1272.6 393.631C1269.95 398.444 1268.62 404.388 1268.62 411.461C1268.62 418.534 1269.95 424.526 1272.6 429.438C1275.35 434.251 1278.94 437.886 1283.36 440.342C1287.88 442.7 1292.79 443.879 1298.09 443.879ZM1381 342.646V451.688H1370.68V342.646H1381ZM1452.83 452.867C1445.27 452.867 1438.44 451.197 1432.35 447.857C1426.36 444.419 1421.59 439.605 1418.06 433.416C1414.62 427.129 1412.9 419.811 1412.9 411.461C1412.9 403.11 1414.67 395.841 1418.21 389.652C1421.74 383.365 1426.56 378.551 1432.65 375.211C1438.74 371.773 1445.56 370.054 1453.13 370.054C1460.69 370.054 1467.52 371.773 1473.61 375.211C1479.8 378.551 1484.61 383.365 1488.05 389.652C1491.59 395.841 1493.36 403.11 1493.36 411.461C1493.36 419.712 1491.59 426.982 1488.05 433.269C1484.51 439.556 1479.65 444.419 1473.46 447.857C1467.27 451.197 1460.4 452.867 1452.83 452.867ZM1452.83 443.879C1458.14 443.879 1463.05 442.7 1467.57 440.342C1472.09 437.886 1475.72 434.251 1478.47 429.438C1481.32 424.526 1482.75 418.534 1482.75 411.461C1482.75 404.388 1481.37 398.444 1478.62 393.631C1475.87 388.719 1472.24 385.084 1467.72 382.726C1463.2 380.27 1458.29 379.043 1452.98 379.043C1447.68 379.043 1442.76 380.27 1438.25 382.726C1433.73 385.084 1430.09 388.719 1427.34 393.631C1424.69 398.444 1423.36 404.388 1423.36 411.461C1423.36 418.534 1424.69 424.526 1427.34 429.438C1430.09 434.251 1433.68 437.886 1438.1 440.342C1442.62 442.7 1447.53 443.879 1452.83 443.879ZM1559.17 370.054C1566.73 370.054 1573.31 371.822 1578.91 375.359C1584.51 378.895 1588.54 383.365 1590.99 388.768V371.233H1601.31V453.751C1601.31 461.119 1599.69 467.652 1596.45 473.35C1593.3 479.047 1588.88 483.419 1583.18 486.464C1577.49 489.608 1571 491.18 1563.73 491.18C1553.42 491.18 1544.82 488.724 1537.95 483.812C1531.17 478.9 1526.94 472.22 1525.27 463.772H1535.44C1537.21 469.371 1540.55 473.841 1545.46 477.181C1550.47 480.521 1556.56 482.191 1563.73 482.191C1568.94 482.191 1573.61 481.061 1577.73 478.802C1581.86 476.641 1585.1 473.399 1587.46 469.076C1589.81 464.754 1590.99 459.646 1590.99 453.751V433.859C1588.44 439.36 1584.36 443.928 1578.76 447.563C1573.26 451.099 1566.73 452.867 1559.17 452.867C1551.8 452.867 1545.17 451.148 1539.27 447.71C1533.48 444.272 1528.91 439.409 1525.57 433.122C1522.33 426.835 1520.71 419.565 1520.71 411.313C1520.71 403.061 1522.33 395.841 1525.57 389.652C1528.91 383.365 1533.48 378.551 1539.27 375.211C1545.17 371.773 1551.8 370.054 1559.17 370.054ZM1590.99 411.461C1590.99 404.977 1589.67 399.279 1587.02 394.367C1584.36 389.456 1580.73 385.674 1576.11 383.021C1571.59 380.369 1566.58 379.043 1561.08 379.043C1555.38 379.043 1550.27 380.32 1545.76 382.874C1541.24 385.428 1537.65 389.161 1535 394.073C1532.44 398.886 1531.17 404.633 1531.17 411.313C1531.17 417.895 1532.44 423.691 1535 428.701C1537.65 433.613 1541.24 437.395 1545.76 440.047C1550.27 442.602 1555.38 443.879 1561.08 443.879C1566.58 443.879 1571.59 442.552 1576.11 439.9C1580.73 437.248 1584.36 433.466 1587.02 428.554C1589.67 423.642 1590.99 417.944 1590.99 411.461ZM1643.28 356.055C1641.21 356.055 1639.44 355.318 1637.97 353.845C1636.5 352.371 1635.76 350.554 1635.76 348.393C1635.76 346.232 1636.5 344.463 1637.97 343.088C1639.44 341.614 1641.21 340.878 1643.28 340.878C1645.34 340.878 1647.11 341.614 1648.58 343.088C1650.05 344.463 1650.79 346.232 1650.79 348.393C1650.79 350.554 1650.05 352.371 1648.58 353.845C1647.11 355.318 1645.34 356.055 1643.28 356.055ZM1648.43 371.233V451.688H1638.12V371.233H1648.43ZM1757.85 407.335C1757.85 410.871 1757.75 413.573 1757.55 415.439H1690.8C1691.09 421.53 1692.57 426.736 1695.22 431.059C1697.87 435.381 1701.36 438.672 1705.68 440.932C1710.01 443.093 1714.72 444.173 1719.83 444.173C1726.51 444.173 1732.11 442.552 1736.63 439.311C1741.24 436.069 1744.29 431.697 1745.76 426.196H1756.67C1754.7 434.055 1750.48 440.49 1744 445.5C1737.61 450.411 1729.55 452.867 1719.83 452.867C1712.26 452.867 1705.49 451.197 1699.49 447.857C1693.5 444.419 1688.79 439.605 1685.35 433.416C1682.01 427.129 1680.34 419.811 1680.34 411.461C1680.34 403.11 1682.01 395.792 1685.35 389.505C1688.69 383.218 1693.35 378.404 1699.35 375.064C1705.34 371.724 1712.17 370.054 1719.83 370.054C1727.49 370.054 1734.17 371.724 1739.87 375.064C1745.67 378.404 1750.09 382.923 1753.13 388.621C1756.27 394.22 1757.85 400.458 1757.85 407.335ZM1747.38 407.04C1747.48 401.048 1746.25 395.939 1743.7 391.715C1741.24 387.491 1737.86 384.298 1733.53 382.137C1729.21 379.976 1724.5 378.895 1719.39 378.895C1711.72 378.895 1705.19 381.351 1699.79 386.263C1694.39 391.175 1691.39 398.1 1690.8 407.04H1747.38ZM1817.68 452.867C1808.45 452.867 1800.88 450.755 1794.99 446.531C1789.19 442.209 1785.95 436.364 1785.26 428.996H1795.87C1796.37 433.515 1798.48 437.199 1802.21 440.047C1806.04 442.798 1811.15 444.173 1817.54 444.173C1823.14 444.173 1827.51 442.847 1830.65 440.195C1833.89 437.542 1835.51 434.251 1835.51 430.322C1835.51 427.571 1834.63 425.312 1832.86 423.544C1831.09 421.775 1828.83 420.4 1826.08 419.418C1823.43 418.337 1819.8 417.207 1815.18 416.029C1809.19 414.457 1804.32 412.885 1800.59 411.313C1796.86 409.741 1793.66 407.433 1791.01 404.388C1788.46 401.244 1787.18 397.069 1787.18 391.862C1787.18 387.933 1788.36 384.298 1790.72 380.958C1793.07 377.618 1796.41 374.966 1800.74 373.001C1805.06 371.036 1809.97 370.054 1815.47 370.054C1824.12 370.054 1831.09 372.264 1836.4 376.685C1841.7 381.007 1844.55 387 1844.94 394.662H1834.63C1834.33 389.947 1832.47 386.165 1829.03 383.316C1825.69 380.369 1821.07 378.895 1815.18 378.895C1809.97 378.895 1805.75 380.123 1802.51 382.579C1799.26 385.035 1797.64 388.08 1797.64 391.715C1797.64 394.859 1798.58 397.462 1800.44 399.525C1802.41 401.49 1804.81 403.061 1807.66 404.24C1810.51 405.321 1814.34 406.549 1819.16 407.924C1824.95 409.496 1829.57 411.019 1833.01 412.492C1836.45 413.966 1839.39 416.127 1841.85 418.976C1844.31 421.825 1845.58 425.607 1845.68 430.322C1845.68 434.644 1844.5 438.525 1842.14 441.963C1839.79 445.303 1836.5 447.955 1832.27 449.92C1828.05 451.885 1823.18 452.867 1817.68 452.867Z" fill="#4E148D"/>
<path d="M745.274 220.873C745.274 209.026 747.723 198.488 752.622 189.261C757.634 179.919 764.697 172.685 773.811 167.559C782.924 162.319 793.405 159.699 805.252 159.699C820.29 159.699 832.935 163.743 843.187 171.831C853.44 179.805 860.047 190.685 863.009 204.469H826.954C824.789 199.912 821.771 196.437 817.897 194.045C814.138 191.653 809.752 190.457 804.74 190.457C796.993 190.457 790.785 193.248 786.114 198.83C781.557 204.298 779.279 211.646 779.279 220.873C779.279 230.215 781.557 237.676 786.114 243.258C790.785 248.726 796.993 251.46 804.74 251.46C809.752 251.46 814.138 250.264 817.897 247.872C821.771 245.48 824.789 242.005 826.954 237.448H863.009C860.047 251.233 853.44 262.169 843.187 270.257C832.935 278.231 820.29 282.219 805.252 282.219C793.405 282.219 782.924 279.655 773.811 274.529C764.697 269.289 757.634 262.055 752.622 252.827C747.723 243.486 745.274 232.835 745.274 220.873ZM936.626 282.56C925.348 282.56 914.981 279.94 905.526 274.7C896.071 269.346 888.552 261.998 882.97 252.657C877.502 243.201 874.768 232.55 874.768 220.702C874.768 208.855 877.502 198.26 882.97 188.919C888.552 179.464 896.071 172.116 905.526 166.875C914.981 161.635 925.348 159.015 936.626 159.015C948.018 159.015 958.385 161.635 967.726 166.875C977.181 172.116 984.643 179.464 990.111 188.919C995.579 198.26 998.313 208.855 998.313 220.702C998.313 232.55 995.579 243.201 990.111 252.657C984.643 261.998 977.181 269.346 967.726 274.7C958.271 279.94 947.904 282.56 936.626 282.56ZM936.626 251.46C945.17 251.46 951.891 248.669 956.79 243.087C961.802 237.505 964.308 230.044 964.308 220.702C964.308 211.133 961.802 203.614 956.79 198.146C951.891 192.564 945.17 189.773 936.626 189.773C927.968 189.773 921.19 192.564 916.291 198.146C911.393 203.614 908.944 211.133 908.944 220.702C908.944 230.158 911.393 237.676 916.291 243.258C921.19 248.726 927.968 251.46 936.626 251.46ZM1061.04 160.895C1073.69 160.895 1084.74 163.458 1094.19 168.584C1103.76 173.597 1111.11 180.66 1116.24 189.773C1121.36 198.887 1123.93 209.31 1123.93 221.044C1123.93 232.664 1121.31 243.03 1116.07 252.144C1110.94 261.258 1103.59 268.434 1094.02 273.675C1084.57 278.801 1073.58 281.364 1061.04 281.364H1013.37V160.895H1061.04ZM1058.48 251.802C1068.28 251.802 1075.97 249.125 1081.55 243.771C1087.13 238.417 1089.92 230.841 1089.92 221.044C1089.92 211.133 1087.13 203.5 1081.55 198.146C1075.97 192.678 1068.28 189.944 1058.48 189.944H1046.86V251.802H1058.48ZM1172.52 187.723V207.374H1210.97V232.835H1172.52V254.536H1216.09V281.364H1139.03V160.895H1216.09V187.723H1172.52ZM1261.25 220.873C1261.25 209.026 1263.7 198.488 1268.6 189.261C1273.61 179.919 1280.67 172.685 1289.78 167.559C1298.9 162.319 1309.38 159.699 1321.23 159.699C1336.26 159.699 1348.91 163.743 1359.16 171.831C1369.41 179.805 1376.02 190.685 1378.98 204.469H1342.93C1340.76 199.912 1337.74 196.437 1333.87 194.045C1330.11 191.653 1325.73 190.457 1320.71 190.457C1312.97 190.457 1306.76 193.248 1302.09 198.83C1297.53 204.298 1295.25 211.646 1295.25 220.873C1295.25 230.215 1297.53 237.676 1302.09 243.258C1306.76 248.726 1312.97 251.46 1320.71 251.46C1325.73 251.46 1330.11 250.264 1333.87 247.872C1337.74 245.48 1340.76 242.005 1342.93 237.448H1378.98C1376.02 251.233 1369.41 262.169 1359.16 270.257C1348.91 278.231 1336.26 282.219 1321.23 282.219C1309.38 282.219 1298.9 279.655 1289.78 274.529C1280.67 269.289 1273.61 262.055 1268.6 252.827C1263.7 243.486 1261.25 232.835 1261.25 220.873ZM1455.85 281.364L1431.92 236.936H1428.34V281.364H1394.84V160.895H1447.64C1457.33 160.895 1465.53 162.603 1472.25 166.021C1478.97 169.325 1484.04 173.938 1487.46 179.862C1490.88 185.672 1492.59 192.222 1492.59 199.513C1492.59 207.715 1490.31 214.949 1485.75 221.215C1481.31 227.367 1474.76 231.752 1466.1 234.373L1493.27 281.364H1455.85ZM1428.34 214.038H1444.91C1449.47 214.038 1452.88 212.956 1455.16 210.791C1457.44 208.627 1458.58 205.494 1458.58 201.393C1458.58 197.52 1457.38 194.501 1454.99 192.336C1452.71 190.058 1449.35 188.919 1444.91 188.919H1428.34V214.038ZM1540.63 160.895V230.784C1540.63 237.278 1542.11 242.29 1545.07 245.821C1548.14 249.353 1552.76 251.119 1558.91 251.119C1565.06 251.119 1569.67 249.353 1572.75 245.821C1575.94 242.176 1577.53 237.164 1577.53 230.784V160.895H1611.03V230.784C1611.03 241.834 1608.69 251.29 1604.02 259.15C1599.35 266.897 1592.97 272.763 1584.88 276.751C1576.91 280.624 1568.02 282.56 1558.23 282.56C1548.43 282.56 1539.66 280.624 1531.91 276.751C1524.28 272.763 1518.24 266.897 1513.8 259.15C1509.47 251.404 1507.3 241.948 1507.3 230.784V160.895H1540.63ZM1674.92 282.56C1660.91 282.56 1649.4 279.257 1640.4 272.649C1631.4 265.928 1626.56 256.359 1625.88 243.942H1661.59C1661.93 248.157 1663.19 251.233 1665.35 253.169C1667.52 255.106 1670.31 256.074 1673.73 256.074C1676.8 256.074 1679.31 255.334 1681.24 253.853C1683.29 252.258 1684.32 250.093 1684.32 247.359C1684.32 243.828 1682.67 241.094 1679.36 239.157C1676.06 237.221 1670.71 235.056 1663.3 232.664C1655.44 230.044 1649.06 227.537 1644.16 225.145C1639.38 222.639 1635.16 219.05 1631.52 214.38C1627.99 209.595 1626.22 203.387 1626.22 195.754C1626.22 188.007 1628.16 181.4 1632.03 175.932C1635.9 170.35 1641.26 166.135 1648.09 163.287C1654.93 160.439 1662.67 159.015 1671.33 159.015C1685.34 159.015 1696.51 162.319 1704.83 168.926C1713.26 175.419 1717.75 184.59 1718.32 196.437H1681.93C1681.81 192.792 1680.67 190.058 1678.51 188.235C1676.46 186.413 1673.78 185.501 1670.48 185.501C1667.97 185.501 1665.92 186.242 1664.33 187.723C1662.73 189.204 1661.93 191.311 1661.93 194.045C1661.93 196.324 1662.79 198.317 1664.5 200.026C1666.32 201.621 1668.54 203.045 1671.16 204.298C1673.78 205.437 1677.66 206.918 1682.78 208.741C1690.41 211.361 1696.68 213.981 1701.58 216.601C1706.59 219.107 1710.86 222.696 1714.39 227.367C1718.04 231.923 1719.86 237.733 1719.86 244.796C1719.86 251.973 1718.04 258.41 1714.39 264.105C1710.86 269.801 1705.68 274.301 1698.84 277.605C1692.12 280.909 1684.15 282.56 1674.92 282.56ZM1843.26 160.895V281.364H1809.76V233.006H1768.92V281.364H1735.43V160.895H1768.92V206.178H1809.76V160.895H1843.26Z" fill="#4E148D"/>
<defs>
<clipPath id="clip0_111_22">
<rect width="662.994" height="601.585" fill="white" transform="translate(0 0.902832)"/>
</clipPath>
</defs>
</svg>
