<svg width="520" height="451" viewBox="0 0 520 451" fill="none" xmlns="http://www.w3.org/2000/svg">
<g clip-path="url(#clip0_93_581)">
<path d="M349.879 0.675903H170.123C156.037 0.676474 142.199 4.21314 130.001 10.9304C117.802 17.6478 107.672 27.309 100.63 38.9433L10.7517 187.409C3.70814 199.044 0 212.241 0 225.676C0 239.11 3.70814 252.308 10.7517 263.943L100.63 412.408C107.673 424.043 117.803 433.705 130.002 440.422C142.202 447.14 156.04 450.676 170.126 450.676H349.882C363.969 450.676 377.807 447.139 390.006 440.422C402.206 433.705 412.336 424.043 419.379 412.408L509.257 263.943C516.301 252.308 520.009 239.11 520.009 225.676C520.009 212.241 516.301 199.044 509.257 187.409L419.379 38.9493C412.336 27.313 402.206 17.65 390.006 10.9316C377.806 4.21314 363.966 0.676065 349.879 0.675903Z" fill="#4E148D"/>
<path d="M403.309 313.172C397.535 307.149 387.627 307.266 381.879 313.311C356.646 339.847 320.179 356.563 279.66 356.563C203.67 356.563 141.847 297.832 141.847 225.642C141.847 153.453 203.671 94.7236 279.66 94.7236C319.524 94.7236 355.474 110.896 380.657 136.685C386.423 142.59 396.201 142.638 401.909 136.685L401.995 136.596C404.439 134.042 405.784 130.705 405.763 127.248C405.742 123.791 404.356 120.468 401.882 117.942C371.399 86.7351 327.904 67.1591 279.66 67.1591C187.666 67.1626 112.828 138.254 112.828 225.642C112.828 313.03 187.668 384.124 279.657 384.124C328.682 384.124 372.813 363.912 403.364 331.817C408.388 326.538 408.412 318.494 403.364 313.233L403.309 313.172Z" fill="white"/>
<path fill-rule="evenodd" clip-rule="evenodd" d="M317.13 148.748C315.945 149.458 315.057 150.542 314.622 151.811H294.712V155.895H314.836C315.401 157.116 316.397 158.11 317.651 158.705C318.905 159.299 320.337 159.456 321.699 159.148C323.062 158.84 324.268 158.086 325.109 157.019C325.949 155.951 326.372 154.636 326.302 153.303C326.232 151.969 325.675 150.701 324.727 149.718C323.779 148.735 322.5 148.1 321.113 147.923C319.725 147.746 318.316 148.038 317.13 148.748ZM321.906 155.787C321.446 156.082 320.904 156.241 320.348 156.243C319.602 156.244 318.885 155.963 318.356 155.46C317.827 154.958 317.529 154.276 317.527 153.564C317.527 153.034 317.692 152.516 318 152.076C318.308 151.635 318.746 151.292 319.259 151.089C319.772 150.886 320.336 150.832 320.881 150.934C321.426 151.037 321.927 151.291 322.32 151.665C322.713 152.039 322.982 152.515 323.092 153.034C323.201 153.553 323.147 154.092 322.936 154.582C322.725 155.072 322.367 155.491 321.906 155.787ZM262.933 172.994H219.484V149.616H289.85V172.994V278.006H262.933V172.994ZM294.842 168.427V164.343H335.836C336.337 163.088 337.283 162.04 338.509 161.381C339.736 160.723 341.167 160.495 342.551 160.737C343.936 160.98 345.188 161.678 346.089 162.71C346.99 163.742 347.484 165.042 347.484 166.385C347.484 167.728 346.99 169.028 346.089 170.06C345.188 171.092 343.936 171.789 342.551 172.032C341.167 172.275 339.736 172.047 338.509 171.388C337.283 170.73 336.337 169.682 335.836 168.427H294.842ZM341.468 169.064C342.024 169.061 342.566 168.902 343.026 168.607C343.487 168.311 343.845 167.891 344.056 167.402C344.267 166.912 344.321 166.373 344.211 165.854C344.102 165.335 343.833 164.858 343.44 164.484C343.046 164.111 342.545 163.857 342 163.754C341.455 163.652 340.891 163.706 340.378 163.909C339.865 164.112 339.427 164.456 339.119 164.897C338.811 165.337 338.647 165.855 338.647 166.385C338.65 167.096 338.948 167.778 339.477 168.28C340.006 168.781 340.722 169.062 341.468 169.061V169.064ZM329.754 174.273C328.815 173.731 327.739 173.444 326.641 173.443C325.42 173.444 324.228 173.798 323.222 174.459C322.216 175.119 321.443 176.055 321.006 177.143H294.712V181.226H321.009C321.399 182.205 322.062 183.063 322.927 183.708C323.791 184.352 324.824 184.76 325.913 184.885C327.003 185.011 328.108 184.85 329.109 184.42C330.109 183.99 330.968 183.307 331.591 182.446C332.214 181.585 332.579 180.577 332.645 179.532C332.712 178.487 332.477 177.445 331.968 176.518C331.458 175.591 330.693 174.815 329.754 174.273ZM328.199 181.408C327.738 181.703 327.196 181.862 326.641 181.865C325.894 181.866 325.178 181.584 324.649 181.081C324.12 180.579 323.822 179.897 323.82 179.185C323.82 178.655 323.984 178.137 324.293 177.697C324.601 177.256 325.039 176.913 325.552 176.71C326.065 176.507 326.629 176.453 327.174 176.556C327.719 176.658 328.219 176.912 328.613 177.286C329.006 177.66 329.275 178.136 329.384 178.655C329.494 179.174 329.44 179.713 329.229 180.203C329.018 180.693 328.66 181.112 328.199 181.408Z" fill="white"/>
<path d="M369.675 302.172C360.64 311.433 350.038 319.181 338.311 325.092C332.853 327.837 316.159 335.727 293.42 337.69C289.788 338.007 286.174 338.163 282.578 338.157C254.866 338.157 228.357 329.013 206.949 311.892C200.293 306.58 194.271 300.583 188.993 294.012C188.648 293.582 188.305 293.144 187.96 292.702C187.723 292.41 187.493 292.107 187.265 291.806C181.337 283.947 176.498 275.391 172.868 266.35C171.577 263.149 170.432 259.875 169.435 256.528C161.361 229.439 164.014 201.068 176.844 175.963C177.856 174.483 179.144 173.192 180.644 172.153C187.326 167.546 197.387 168.545 202.685 175.69C202.746 175.763 202.793 175.829 202.846 175.902C202.937 176.021 203.03 176.157 203.121 176.281C206.242 180.649 206.646 186.241 204.352 191.061C192.341 216.239 194.365 245.646 209.528 268.951C209.925 269.57 210.339 270.19 210.759 270.802C210.989 271.152 211.234 271.502 211.486 271.845C211.738 272.188 211.975 272.538 212.227 272.881C212.502 273.275 212.793 273.661 213.101 274.048C213.409 274.434 213.69 274.82 213.996 275.207C214.246 275.513 214.484 275.819 214.729 276.118C215.188 276.687 215.655 277.242 216.136 277.795C223.044 285.909 231.524 292.68 241.114 297.738C275.817 316.091 318.218 309.128 344.893 283.286C348.786 279.516 354.404 277.861 359.802 279.086C359.955 279.123 360.116 279.151 360.269 279.188C360.269 279.188 360.518 279.247 360.768 279.307C361.231 279.426 374.285 287.089 371.947 297.383C371.704 298.451 371.149 300.199 369.675 302.172Z" fill="white"/>
</g>
<defs>
<clipPath id="clip0_93_581">
<rect width="520" height="450" fill="white" transform="translate(0 0.667725)"/>
</clipPath>
</defs>
</svg>
