<svg width="520" height="451" viewBox="0 0 520 451" fill="none" xmlns="http://www.w3.org/2000/svg">
<path d="M108.327 43.4407L108.327 43.4405C114.532 33.1899 123.489 24.6258 134.34 18.6507C145.193 12.6744 157.534 9.51302 170.12 9.51245C170.12 9.51245 170.12 9.51245 170.12 9.51245H349.873C362.46 9.5126 374.804 12.6744 385.658 18.6517C396.509 24.6278 405.467 33.1935 411.673 43.4459L411.673 43.4468L501.549 191.907C507.753 202.154 511 213.742 511 225.512C511 237.282 507.753 248.871 501.549 259.118L508.315 263.214L501.549 259.118L411.673 407.584C405.467 417.835 396.51 426.4 385.659 432.375C374.805 438.351 362.463 441.512 349.876 441.512H170.124C157.537 441.513 145.195 438.351 134.341 432.375C123.49 426.4 114.533 417.835 108.327 407.584L101.338 411.815L108.327 407.584L18.4506 259.118L11.3786 263.4L18.4506 259.118C12.2471 248.871 9 237.282 9 225.512C9 213.742 12.2471 202.154 18.4506 191.907L18.4506 191.906L108.327 43.4407Z" stroke="#14868D" stroke-width="18"/>
<path d="M168.26 107.074V158.614H152.171V132.916L144.237 158.614H130.405L122.471 132.916V158.614H106.31V107.074H126.11L137.467 138.012L148.532 107.074H168.26ZM186.617 114.281C183.802 114.281 181.545 113.528 179.847 112.024C178.148 110.519 177.299 108.627 177.299 106.346C177.299 104.016 178.148 102.099 179.847 100.595C181.545 99.0419 183.802 98.2654 186.617 98.2654C189.383 98.2654 191.615 99.0419 193.314 100.595C195.013 102.099 195.862 104.016 195.862 106.346C195.862 108.627 195.013 110.519 193.314 112.024C191.615 113.528 189.383 114.281 186.617 114.281ZM194.624 117.556V158.614H178.464V117.556H194.624ZM223.107 159.123C219.225 159.123 215.779 158.492 212.77 157.231C209.81 155.969 207.456 154.222 205.709 151.989C203.962 149.757 202.967 147.233 202.724 144.418H218.23C218.424 145.632 218.933 146.529 219.758 147.112C220.632 147.694 221.724 147.985 223.034 147.985C223.859 147.985 224.515 147.816 225 147.476C225.485 147.088 225.728 146.626 225.728 146.093C225.728 145.171 225.218 144.515 224.199 144.127C223.18 143.739 221.457 143.302 219.031 142.817C216.07 142.234 213.619 141.604 211.678 140.924C209.785 140.245 208.111 139.08 206.655 137.43C205.248 135.78 204.544 133.499 204.544 130.587C204.544 128.063 205.199 125.782 206.51 123.744C207.868 121.657 209.858 120.032 212.479 118.867C215.099 117.653 218.278 117.047 222.015 117.047C227.548 117.047 231.867 118.406 234.973 121.123C238.127 123.841 240.02 127.384 240.651 131.752H226.31C226.067 130.636 225.558 129.786 224.781 129.204C224.005 128.573 222.962 128.258 221.651 128.258C220.826 128.258 220.195 128.427 219.758 128.767C219.322 129.058 219.103 129.519 219.103 130.15C219.103 130.975 219.613 131.606 220.632 132.043C221.651 132.431 223.277 132.844 225.509 133.28C228.47 133.863 230.969 134.518 233.007 135.246C235.046 135.974 236.817 137.236 238.322 139.031C239.826 140.779 240.578 143.205 240.578 146.311C240.578 148.738 239.875 150.921 238.467 152.863C237.06 154.804 235.021 156.333 232.352 157.449C229.732 158.565 226.65 159.123 223.107 159.123ZM268.176 159.123C264.293 159.123 260.847 158.492 257.838 157.231C254.878 155.969 252.524 154.222 250.777 151.989C249.03 149.757 248.035 147.233 247.793 144.418H263.298C263.492 145.632 264.002 146.529 264.827 147.112C265.7 147.694 266.792 147.985 268.103 147.985C268.928 147.985 269.583 147.816 270.068 147.476C270.554 147.088 270.796 146.626 270.796 146.093C270.796 145.171 270.287 144.515 269.267 144.127C268.248 143.739 266.525 143.302 264.099 142.817C261.139 142.234 258.688 141.604 256.746 140.924C254.854 140.245 253.179 139.08 251.724 137.43C250.316 135.78 249.612 133.499 249.612 130.587C249.612 128.063 250.268 125.782 251.578 123.744C252.937 121.657 254.927 120.032 257.547 118.867C260.168 117.653 263.347 117.047 267.084 117.047C272.616 117.047 276.935 118.406 280.041 121.123C283.196 123.841 285.089 127.384 285.719 131.752H271.379C271.136 130.636 270.626 129.786 269.85 129.204C269.073 128.573 268.03 128.258 266.72 128.258C265.895 128.258 265.264 128.427 264.827 128.767C264.39 129.058 264.172 129.519 264.172 130.15C264.172 130.975 264.681 131.606 265.7 132.043C266.72 132.431 268.345 132.844 270.578 133.28C273.538 133.863 276.038 134.518 278.076 135.246C280.114 135.974 281.886 137.236 283.39 139.031C284.894 140.779 285.647 143.205 285.647 146.311C285.647 148.738 284.943 150.921 283.536 152.863C282.128 154.804 280.09 156.333 277.421 157.449C274.8 158.565 271.718 159.123 268.176 159.123ZM303.125 114.281C300.31 114.281 298.054 113.528 296.355 112.024C294.657 110.519 293.807 108.627 293.807 106.346C293.807 104.016 294.657 102.099 296.355 100.595C298.054 99.0419 300.31 98.2654 303.125 98.2654C305.891 98.2654 308.124 99.0419 309.822 100.595C311.521 102.099 312.37 104.016 312.37 106.346C312.37 108.627 311.521 110.519 309.822 112.024C308.124 113.528 305.891 114.281 303.125 114.281ZM311.133 117.556V158.614H294.972V117.556H311.133ZM340.853 159.123C336.728 159.123 333.015 158.274 329.715 156.575C326.415 154.877 323.819 152.45 321.926 149.296C320.082 146.093 319.16 142.356 319.16 138.085C319.16 133.814 320.082 130.102 321.926 126.947C323.819 123.744 326.415 121.293 329.715 119.595C333.015 117.896 336.728 117.047 340.853 117.047C344.978 117.047 348.691 117.896 351.991 119.595C355.291 121.293 357.863 123.744 359.707 126.947C361.6 130.102 362.546 133.814 362.546 138.085C362.546 142.356 361.6 146.093 359.707 149.296C357.863 152.45 355.291 154.877 351.991 156.575C348.691 158.274 344.978 159.123 340.853 159.123ZM340.853 145.146C342.358 145.146 343.619 144.564 344.639 143.399C345.658 142.186 346.167 140.415 346.167 138.085C346.167 135.756 345.658 134.008 344.639 132.844C343.619 131.63 342.358 131.024 340.853 131.024C339.349 131.024 338.087 131.63 337.068 132.844C336.049 134.008 335.539 135.756 335.539 138.085C335.539 140.415 336.024 142.186 336.995 143.399C338.014 144.564 339.3 145.146 340.853 145.146ZM399.29 117.265C403.997 117.265 407.662 118.843 410.282 121.997C412.951 125.152 414.286 129.422 414.286 134.809V158.614H398.198V136.848C398.198 134.906 397.664 133.378 396.596 132.261C395.577 131.097 394.194 130.514 392.447 130.514C390.651 130.514 389.244 131.097 388.225 132.261C387.206 133.378 386.696 134.906 386.696 136.848V158.614H370.535V117.556H386.696V123.817C387.958 121.876 389.632 120.298 391.719 119.085C393.854 117.872 396.378 117.265 399.29 117.265Z" fill="#14868D"/>
<g clip-path="url(#clip0_93_592)">
<g clip-path="url(#clip1_93_592)">
<mask id="path-3-inside-1_93_592" fill="white">
<path d="M332.346 240.919C332.862 241.093 333.417 241.118 333.946 240.992C334.476 240.865 334.96 240.593 335.345 240.204L355.491 219.862C355.875 219.474 356.145 218.985 356.27 218.45C356.395 217.915 356.37 217.356 356.199 216.835C356.027 216.314 355.714 215.851 355.297 215.499C354.879 215.147 354.372 214.919 353.834 214.841L343.189 213.305L341.668 202.557C341.591 202.014 341.366 201.502 341.017 201.08C340.668 200.659 340.21 200.343 339.694 200.17C339.178 199.996 338.624 199.971 338.094 200.097C337.565 200.223 337.081 200.496 336.696 200.884L316.55 221.226C316.165 221.615 315.895 222.104 315.771 222.639C315.646 223.174 315.671 223.733 315.843 224.254L318.933 233.614L313.447 239.153C298.232 224.887 278.08 217.22 257.325 217.801C236.569 218.382 216.869 227.166 202.461 242.263C188.053 257.359 180.089 277.562 180.281 298.527C180.473 319.492 188.806 339.543 203.488 354.368C218.17 369.193 238.027 377.607 258.79 377.801C279.552 377.995 299.561 369.953 314.512 355.405C329.462 340.856 338.161 320.964 338.737 300.007C339.313 279.049 331.72 258.7 317.591 243.337L323.076 237.799L332.346 240.919ZM332.907 297.658C332.932 314.675 327.154 331.182 316.545 344.404C305.936 357.625 291.143 366.756 274.651 370.261C258.16 373.766 240.976 371.431 225.989 363.649C211.002 355.867 199.125 343.112 192.355 327.529C185.585 311.946 184.334 294.484 188.813 278.079C193.292 261.674 203.227 247.327 216.949 237.448C230.671 227.569 247.343 222.762 264.162 223.834C280.982 224.906 296.923 231.792 309.305 243.335L296.83 255.933C286.002 246.09 271.795 240.906 257.237 241.484C242.679 242.063 228.92 248.358 218.891 259.03C208.863 269.702 203.358 283.906 203.549 298.616C203.74 313.326 209.612 327.379 219.914 337.782C230.216 348.184 244.134 354.114 258.702 354.306C273.27 354.499 287.337 348.941 297.906 338.814C308.475 328.688 314.71 314.795 315.283 300.095C315.856 285.395 310.721 271.05 300.973 260.117L313.45 247.519C325.969 261.155 332.919 279.065 332.907 297.658ZM257.579 299.75C257.851 300.025 258.174 300.243 258.529 300.392C258.885 300.54 259.266 300.617 259.65 300.617C260.035 300.617 260.416 300.54 260.772 300.392C261.127 300.243 261.45 300.025 261.722 299.75L273.965 287.388C276.529 291.027 277.646 295.505 277.094 299.936C276.542 304.367 274.361 308.427 270.984 311.311C267.607 314.194 263.28 315.691 258.861 315.505C254.442 315.319 250.253 313.463 247.126 310.305C243.998 307.147 242.16 302.918 241.976 298.456C241.791 293.994 243.274 289.625 246.13 286.214C248.986 282.804 253.006 280.602 257.394 280.045C261.783 279.487 266.218 280.615 269.822 283.204L257.579 295.566C257.307 295.841 257.091 296.167 256.943 296.526C256.796 296.885 256.72 297.27 256.72 297.658C256.72 298.047 256.796 298.432 256.943 298.79C257.091 299.149 257.307 299.476 257.579 299.75ZM274.002 278.983C269.276 275.276 263.328 273.527 257.37 274.092C251.411 274.657 245.89 277.494 241.931 282.025C237.971 286.557 235.871 292.441 236.058 298.481C236.244 304.521 238.704 310.263 242.936 314.536C247.168 318.809 252.853 321.292 258.835 321.481C264.817 321.67 270.645 319.549 275.133 315.551C279.62 311.553 282.43 305.978 282.99 299.961C283.549 293.945 281.817 287.939 278.145 283.167L296.831 264.299C305.474 274.115 309.989 286.944 309.417 300.066C308.845 313.187 303.232 325.567 293.769 334.578C284.305 343.589 271.737 348.522 258.731 348.329C245.725 348.137 233.306 342.834 224.108 333.547C214.91 324.26 209.659 311.719 209.468 298.586C209.278 285.454 214.163 272.763 223.087 263.208C232.011 253.652 244.271 247.984 257.266 247.407C270.261 246.83 282.967 251.388 292.688 260.115L274.002 278.983ZM336.696 209.252L337.697 216.34C337.787 216.974 338.078 217.561 338.527 218.013C338.975 218.466 339.557 218.759 340.184 218.849L347.203 219.862L332.481 234.727L324.603 232.075L321.976 224.116L336.696 209.252Z"/>
</mask>
<path d="M332.346 240.919L326.237 259.07L326.238 259.07L332.346 240.919ZM335.345 240.204L321.737 226.728L321.735 226.73L335.345 240.204ZM355.491 219.862L369.098 233.339L369.098 233.338L355.491 219.862ZM353.834 214.841L356.574 195.887L356.569 195.886L353.834 214.841ZM343.189 213.305L324.226 215.987L326.238 230.209L340.454 232.26L343.189 213.305ZM341.668 202.557L360.631 199.875L360.63 199.869L341.668 202.557ZM336.696 200.884L323.088 187.408L323.088 187.408L336.696 200.884ZM316.55 221.226L302.943 207.75L302.943 207.75L316.55 221.226ZM315.843 224.254L334.03 218.251L334.025 218.238L315.843 224.254ZM318.933 233.614L332.541 247.09L340.798 238.753L337.119 227.611L318.933 233.614ZM313.447 239.153L300.347 253.124L313.941 265.871L327.055 252.63L313.447 239.153ZM317.591 243.337L303.983 229.861L291.121 242.848L303.494 256.302L317.591 243.337ZM323.076 237.799L329.185 219.648L317.869 215.84L309.468 224.323L323.076 237.799ZM332.907 297.658L313.755 297.646L313.755 297.666L313.756 297.686L332.907 297.658ZM309.305 243.335L322.914 256.81L336.803 242.785L322.364 229.325L309.305 243.335ZM296.83 255.933L283.947 270.104L297.526 282.447L310.438 269.409L296.83 255.933ZM300.973 260.117L287.366 246.64L274.701 259.428L286.678 272.862L300.973 260.117ZM313.45 247.519L327.558 234.567L313.975 219.773L299.843 234.043L313.45 247.519ZM257.579 299.75L271.191 286.279L271.186 286.273L271.18 286.268L257.579 299.75ZM261.722 299.75L248.114 286.274L248.11 286.279L261.722 299.75ZM273.965 287.388L289.619 276.355L276.447 257.665L260.357 273.912L273.965 287.388ZM269.822 283.204L283.429 296.681L299.214 280.742L280.997 267.652L269.822 283.204ZM257.579 295.566L271.18 309.049L271.186 309.043L257.579 295.566ZM256.72 297.658L237.569 297.658L256.72 297.658ZM274.002 278.983L262.181 294.051L275.604 304.582L287.609 292.46L274.002 278.983ZM278.145 283.167L264.538 269.691L252.761 281.582L262.967 294.846L278.145 283.167ZM296.831 264.299L311.205 251.643L297.653 236.253L283.224 250.823L296.831 264.299ZM292.688 260.115L306.295 273.591L320.448 259.301L305.482 245.864L292.688 260.115ZM336.696 209.252L355.659 206.573L350.257 168.343L323.088 195.776L336.696 209.252ZM337.697 216.34L318.734 219.02L318.736 219.031L337.697 216.34ZM340.184 218.849L342.919 199.894L342.916 199.894L340.184 218.849ZM347.203 219.862L360.811 233.339L387.557 206.335L349.938 200.907L347.203 219.862ZM332.481 234.727L326.369 252.878L337.685 256.688L346.088 248.204L332.481 234.727ZM324.603 232.075L306.416 238.077L309.417 247.17L318.491 250.225L324.603 232.075ZM321.976 224.116L308.368 210.639L300.112 218.976L303.789 230.118L321.976 224.116ZM326.238 259.07C330.155 260.389 334.365 260.58 338.389 259.621L329.504 222.363C332.468 221.656 335.57 221.797 338.455 222.768L326.238 259.07ZM338.389 259.621C342.411 258.662 346.067 256.595 348.955 253.678L321.735 226.73C323.854 224.59 326.54 223.069 329.504 222.363L338.389 259.621ZM348.953 253.68L369.098 233.339L341.883 206.386L321.737 226.728L348.953 253.68ZM369.098 233.338C371.985 230.424 373.992 226.776 374.919 222.811L337.622 214.089C338.299 211.194 339.766 208.524 341.883 206.386L369.098 233.338ZM374.919 222.811C375.846 218.847 375.662 214.703 374.386 210.834L338.011 222.836C337.079 220.01 336.945 216.983 337.622 214.089L374.919 222.811ZM374.386 210.834C373.109 206.964 370.782 203.505 367.641 200.857L342.952 230.141C340.647 228.197 338.944 225.663 338.011 222.836L374.386 210.834ZM367.641 200.857C364.499 198.208 360.668 196.479 356.574 195.887L351.094 233.796C348.076 233.359 345.259 232.086 342.952 230.141L367.641 200.857ZM356.569 195.886L345.924 194.35L340.454 232.26L351.099 233.796L356.569 195.886ZM362.151 210.623L360.631 199.875L322.706 205.24L324.226 215.987L362.151 210.623ZM360.63 199.869C360.059 195.84 358.386 192.032 355.776 188.876L326.258 213.285C324.346 210.972 323.124 208.187 322.707 205.246L360.63 199.869ZM355.776 188.876C353.165 185.718 349.716 183.335 345.801 182.018L333.587 218.321C330.705 217.352 328.172 215.599 326.258 213.285L355.776 188.876ZM345.801 182.018C341.884 180.7 337.675 180.509 333.653 181.468L342.536 218.726C339.573 219.433 336.471 219.292 333.587 218.321L345.801 182.018ZM333.653 181.468C329.631 182.427 325.976 184.492 323.088 187.408L350.303 214.361C348.185 216.5 345.499 218.02 342.536 218.726L333.653 181.468ZM323.088 187.408L302.943 207.75L330.158 234.703L350.303 214.361L323.088 187.408ZM302.943 207.75C300.054 210.666 298.047 214.318 297.12 218.286L334.421 226.992C333.744 229.89 332.277 232.563 330.158 234.703L302.943 207.75ZM297.12 218.286C296.195 222.253 296.381 226.4 297.662 230.271L334.025 218.238C334.961 221.066 335.097 224.095 334.421 226.992L297.12 218.286ZM297.657 230.258L300.747 239.617L337.119 227.611L334.03 218.251L297.657 230.258ZM305.326 220.138L299.839 225.677L327.055 252.63L332.541 247.09L305.326 220.138ZM326.547 225.183C307.666 207.478 282.619 197.933 256.788 198.657L257.861 236.945C273.541 236.506 288.799 242.295 300.347 253.124L326.547 225.183ZM256.788 198.657C230.958 199.381 206.48 210.312 188.607 229.04L216.316 255.485C227.258 244.02 242.181 237.384 257.861 236.945L256.788 198.657ZM188.607 229.04C170.739 247.762 160.893 272.779 161.13 298.703L199.431 298.352C199.285 282.346 205.368 266.956 216.316 255.485L188.607 229.04ZM161.13 298.703C161.367 324.627 171.67 349.457 189.88 367.844L217.095 340.892C205.941 329.629 199.578 314.357 199.431 298.352L161.13 298.703ZM189.88 367.844C208.096 386.238 232.772 396.711 258.611 396.952L258.969 358.651C243.283 358.504 228.244 352.149 217.095 340.892L189.88 367.844ZM258.611 396.952C284.451 397.193 309.316 387.182 327.868 369.13L301.155 341.679C289.805 352.724 274.654 358.797 258.969 358.651L258.611 396.952ZM327.868 369.13C346.413 351.084 357.169 326.448 357.881 300.533L319.593 299.481C319.153 315.48 312.512 330.628 301.155 341.679L327.868 369.13ZM357.881 300.533C358.594 274.618 349.207 249.423 331.687 230.373L303.494 256.302C314.233 267.978 320.033 283.48 319.593 299.481L357.881 300.533ZM331.198 256.814L336.683 251.276L309.468 224.323L303.983 229.861L331.198 256.814ZM316.967 255.95L326.237 259.07L338.455 222.768L329.185 219.648L316.967 255.95ZM313.756 297.686C313.774 310.353 309.472 322.617 301.608 332.418L331.483 356.389C344.837 339.746 352.09 318.997 352.058 297.63L313.756 297.686ZM301.608 332.418C293.747 342.215 282.815 348.947 270.67 351.528L278.632 388.994C299.471 384.565 318.125 373.036 331.483 356.389L301.608 332.418ZM270.67 351.528C258.528 354.108 245.87 352.392 234.815 346.652L217.164 380.646C236.083 390.469 257.792 393.423 278.632 388.994L270.67 351.528ZM234.815 346.652C223.756 340.91 214.95 331.475 209.92 319.898L174.79 335.16C183.3 354.749 198.249 370.824 217.164 380.646L234.815 346.652ZM209.92 319.898C204.889 308.317 203.956 295.327 207.288 283.123L170.337 273.035C164.711 293.641 166.28 315.575 174.79 335.16L209.92 319.898ZM207.288 283.123C210.619 270.923 217.998 260.291 228.139 252.991L205.76 221.905C188.457 234.362 175.964 252.426 170.337 273.035L207.288 283.123ZM228.139 252.991C238.276 245.693 250.565 242.158 262.944 242.947L265.381 204.721C244.121 203.366 223.067 209.445 205.76 221.905L228.139 252.991ZM262.944 242.947C275.324 243.736 287.087 248.805 296.247 257.344L322.364 229.325C306.758 214.779 286.639 206.076 265.381 204.721L262.944 242.947ZM295.697 229.859L283.221 242.457L310.438 269.409L322.914 256.81L295.697 229.859ZM309.712 241.761C295.182 228.554 276.082 221.569 256.476 222.348L257.997 260.62C267.508 260.243 276.821 263.626 283.947 270.104L309.712 241.761ZM256.476 222.348C236.872 223.127 218.383 231.605 204.935 245.915L232.848 272.145C239.457 265.112 248.486 260.998 257.997 260.62L256.476 222.348ZM204.935 245.915C191.493 260.219 184.144 279.221 184.399 298.865L222.699 298.367C222.572 288.591 226.233 279.184 232.848 272.145L204.935 245.915ZM184.399 298.865C184.654 318.508 192.494 337.312 206.306 351.258L233.522 324.305C226.729 317.447 222.826 308.143 222.699 298.367L184.399 298.865ZM206.306 351.258C220.124 365.21 238.83 373.197 258.449 373.456L258.956 335.157C249.438 335.031 240.308 331.158 233.522 324.305L206.306 351.258ZM258.449 373.456C278.068 373.716 296.977 366.228 311.155 352.643L284.656 324.986C277.697 331.653 268.473 335.283 258.956 335.157L258.449 373.456ZM311.155 352.643C325.328 339.064 333.654 320.472 334.42 300.841L296.146 299.349C295.765 309.119 291.621 318.312 284.656 324.986L311.155 352.643ZM334.42 300.841C335.185 281.211 328.331 262.024 315.268 247.372L286.678 272.862C293.111 280.077 296.526 289.58 296.146 299.349L334.42 300.841ZM314.58 273.594L327.057 260.996L299.843 234.043L287.366 246.64L314.58 273.594ZM299.342 260.471C308.598 270.553 313.764 283.83 313.755 297.646L352.059 297.67C352.073 274.3 343.339 251.757 327.558 234.567L299.342 260.471ZM243.966 313.222C246.008 315.285 248.443 316.932 251.136 318.059L265.922 282.725C267.904 283.554 269.693 284.765 271.191 286.279L243.966 313.222ZM251.136 318.059C253.83 319.186 256.724 319.769 259.65 319.769V281.466C261.808 281.466 263.939 281.895 265.922 282.725L251.136 318.059ZM259.65 319.769C262.577 319.769 265.471 319.186 268.165 318.059L253.379 282.725C255.361 281.895 257.493 281.466 259.65 281.466V319.769ZM268.165 318.059C270.858 316.932 273.292 315.285 275.334 313.222L248.11 286.279C249.608 284.765 251.397 283.554 253.379 282.725L268.165 318.059ZM275.33 313.227L287.573 300.864L260.357 273.912L248.114 286.274L275.33 313.227ZM258.311 298.421C258.121 298.151 258.055 297.849 258.09 297.568L296.099 302.305C297.238 293.162 294.938 283.902 289.619 276.355L258.311 298.421ZM258.09 297.568C258.125 297.285 258.268 296.985 258.548 296.746L283.42 325.875C290.454 319.869 294.959 311.449 296.099 302.305L258.09 297.568ZM258.548 296.746C258.833 296.503 259.231 296.352 259.667 296.371L258.054 334.64C267.328 335.031 276.381 331.886 283.42 325.875L258.548 296.746ZM259.667 296.371C260.102 296.389 260.479 296.571 260.734 296.828L233.518 323.781C240.028 330.354 248.781 334.249 258.054 334.64L259.667 296.371ZM260.734 296.828C260.983 297.08 261.099 297.383 261.111 297.665L222.841 299.247C223.221 308.453 227.014 317.213 233.518 323.781L260.734 296.828ZM261.111 297.665C261.123 297.946 261.032 298.249 260.813 298.511L231.447 273.918C225.516 281.001 222.46 290.041 222.841 299.247L261.111 297.665ZM260.813 298.511C260.589 298.778 260.238 298.989 259.808 299.043L254.98 261.046C245.775 262.216 237.383 266.831 231.447 273.918L260.813 298.511ZM259.808 299.043C259.377 299.098 258.96 298.983 258.646 298.757L280.997 267.652C273.476 262.247 264.188 259.876 254.98 261.046L259.808 299.043ZM256.214 269.728L243.971 282.09L271.186 309.043L283.429 296.681L256.214 269.728ZM243.977 282.084C241.933 284.146 240.322 286.584 239.226 289.254L274.66 303.798C273.859 305.751 272.68 307.536 271.18 309.049L243.977 282.084ZM239.226 289.254C238.13 291.923 237.569 294.779 237.569 297.658L275.872 297.658C275.872 299.761 275.461 301.846 274.66 303.798L239.226 289.254ZM237.569 297.658C237.569 300.538 238.13 303.393 239.226 306.063L274.66 291.518C275.461 293.47 275.872 295.556 275.872 297.658L237.569 297.658ZM239.226 306.063C240.322 308.733 241.933 311.171 243.977 313.233L271.18 286.268C272.68 287.78 273.859 289.566 274.66 291.518L239.226 306.063ZM285.823 263.915C277.25 257.19 266.427 253.995 255.561 255.026L259.178 293.158C260.229 293.058 261.302 293.362 262.181 294.051L285.823 263.915ZM255.561 255.026C244.697 256.056 234.672 261.226 227.509 269.424L256.352 294.627C257.108 293.762 258.125 293.258 259.178 293.158L255.561 255.026ZM227.509 269.424C220.351 277.616 216.58 288.22 216.915 299.073L255.2 297.889C255.162 296.663 255.591 295.498 256.352 294.627L227.509 269.424ZM216.915 299.073C217.251 309.928 221.671 320.28 229.328 328.012L256.544 301.059C255.738 300.245 255.238 299.115 255.2 297.889L216.915 299.073ZM229.328 328.012C236.991 335.749 247.323 340.279 258.232 340.623L259.439 302.339C258.384 302.306 257.344 301.868 256.544 301.059L229.328 328.012ZM258.232 340.623C269.141 340.967 279.739 337.097 287.872 329.85L262.393 301.251C261.551 302.001 260.493 302.372 259.439 302.339L258.232 340.623ZM287.872 329.85C296 322.609 301.053 312.549 302.059 301.735L263.92 298.187C263.807 299.407 263.24 300.496 262.393 301.251L287.872 329.85ZM302.059 301.735C303.065 290.923 299.956 280.108 293.323 271.488L262.967 294.846C263.678 295.771 264.034 296.967 263.92 298.187L302.059 301.735ZM291.753 296.644L310.439 277.776L283.224 250.823L264.538 269.691L291.753 296.644ZM282.458 276.955C287.816 283.04 290.641 291.03 290.284 299.232L328.55 300.9C329.336 282.859 323.133 265.189 311.205 251.643L282.458 276.955ZM290.284 299.232C289.926 307.434 286.418 315.132 280.562 320.709L306.975 348.448C320.046 336.002 327.764 318.941 328.55 300.9L290.284 299.232ZM280.562 320.709C274.712 326.279 266.98 329.298 259.015 329.18L258.448 367.479C276.494 367.746 293.899 360.899 306.975 348.448L280.562 320.709ZM259.015 329.18C251.049 329.062 243.405 325.815 237.716 320.071L210.5 347.023C223.206 359.853 240.402 367.211 258.448 367.479L259.015 329.18ZM237.716 320.071C232.021 314.32 228.737 306.517 228.618 298.308L190.319 298.864C190.581 316.921 197.8 334.199 210.5 347.023L237.716 320.071ZM228.618 298.308C228.499 290.099 231.555 282.199 237.084 276.279L209.09 250.136C196.771 263.327 190.057 280.808 190.319 298.864L228.618 298.308ZM237.084 276.279C242.607 270.365 250.157 266.893 258.116 266.54L256.416 228.274C238.386 229.075 221.415 236.939 209.09 250.136L237.084 276.279ZM258.116 266.54C266.075 266.186 273.888 268.974 279.894 274.366L305.482 245.864C292.046 233.802 274.447 227.473 256.416 228.274L258.116 266.54ZM279.08 246.639L260.394 265.507L287.609 292.46L306.295 273.591L279.08 246.639ZM317.733 211.932L318.734 219.02L356.661 213.66L355.659 206.573L317.733 211.932ZM318.736 219.031C319.402 223.723 321.56 228.1 324.923 231.494L352.13 204.533C354.596 207.021 356.173 210.224 356.659 213.649L318.736 219.031ZM324.923 231.494C328.289 234.89 332.681 237.118 337.452 237.805L342.916 199.894C346.432 200.401 349.661 202.041 352.13 204.533L324.923 231.494ZM337.449 237.805L344.469 238.817L349.938 200.907L342.919 199.894L337.449 237.805ZM333.596 206.385L318.874 221.25L346.088 248.204L360.811 233.339L333.596 206.385ZM338.592 216.577L330.714 213.924L318.491 250.225L326.369 252.878L338.592 216.577ZM342.789 226.072L340.162 218.113L303.789 230.118L306.416 238.077L342.789 226.072ZM335.583 237.592L350.303 222.729L323.088 195.776L308.368 210.639L335.583 237.592Z" fill="#14868D" mask="url(#path-3-inside-1_93_592)"/>
</g>
</g>
<defs>
<clipPath id="clip0_93_592">
<rect width="192.374" height="194.248" fill="white" transform="translate(163.977 200.018)"/>
</clipPath>
<clipPath id="clip1_93_592">
<rect width="176.071" height="177.787" fill="white" transform="translate(180.277 200.018)"/>
</clipPath>
</defs>
</svg>
