<svg width="530" height="530" viewBox="0 0 530 530" fill="none" xmlns="http://www.w3.org/2000/svg">
<mask id="mask0_115_49" style="mask-type:alpha" maskUnits="userSpaceOnUse" x="0" y="0" width="530" height="530">
<rect width="530" height="530" fill="#D9D9D9"/>
</mask>
<g mask="url(#mask0_115_49)">
<g filter="url(#filter0_d_115_49)">
<path d="M354.31 43H175.36C161.337 43.0006 147.562 46.4875 135.418 53.1102C123.274 59.733 113.19 69.2584 106.179 80.7289L16.7035 227.106C9.69152 238.576 6 251.588 6 264.834C6 278.079 9.69152 291.091 16.7035 302.562L106.179 448.939C113.19 460.41 123.275 469.936 135.42 476.558C147.564 483.181 161.34 486.668 175.364 486.668H354.314C368.337 486.668 382.113 483.181 394.258 476.558C406.403 469.935 416.487 460.41 423.499 448.939L512.974 302.562C519.986 291.091 523.678 278.079 523.678 264.834C523.678 251.588 519.986 238.576 512.974 227.106L423.499 80.7348C416.488 69.2623 406.403 59.7352 394.257 53.1113C382.112 46.4875 368.335 43.0002 354.31 43Z" fill="#14868D"/>
<path d="M114.711 85.9444L114.711 85.9442C120.781 76.0139 129.554 67.6984 140.206 61.8895C150.86 56.0792 162.986 53.0006 175.36 53C175.36 53 175.36 53 175.361 53H354.31C366.686 53.0001 378.814 56.0791 389.469 61.8905C400.122 67.7004 408.897 76.0174 414.966 85.9495L414.967 85.9504L504.442 232.321C510.509 242.246 513.678 253.458 513.678 264.834C513.678 276.21 510.509 287.421 504.442 297.347L512.673 302.378L504.442 297.347L414.967 443.723C408.897 453.654 400.122 461.97 389.47 467.779C378.815 473.589 366.688 476.668 354.314 476.668H175.364C162.989 476.668 150.862 473.589 140.207 467.779C129.555 461.97 120.781 453.654 114.711 443.723L106.271 448.882L114.711 443.723L25.2357 297.347L25.2356 297.347C19.1684 287.421 16 276.21 16 264.834C16 253.458 19.1684 242.246 25.2356 232.321L25.2357 232.321L114.711 85.9444Z" stroke="white" stroke-width="20"/>
</g>
<path d="M191.268 143.37V185H178.273V164.244L171.864 185H160.692L154.282 164.244V185H141.229V143.37H157.222L166.395 168.36L175.333 143.37H191.268ZM206.095 149.191C203.822 149.191 201.999 148.583 200.627 147.368C199.255 146.153 198.569 144.624 198.569 142.782C198.569 140.9 199.255 139.352 200.627 138.136C201.999 136.882 203.822 136.255 206.095 136.255C208.33 136.255 210.133 136.882 211.505 138.136C212.877 139.352 213.563 140.9 213.563 142.782C213.563 144.624 212.877 146.153 211.505 147.368C210.133 148.583 208.33 149.191 206.095 149.191ZM212.563 151.837V185H199.51V151.837H212.563ZM235.57 185.412C232.434 185.412 229.65 184.902 227.22 183.883C224.829 182.864 222.928 181.452 221.516 179.649C220.105 177.846 219.302 175.808 219.106 173.534H231.63C231.787 174.514 232.198 175.239 232.865 175.71C233.57 176.18 234.452 176.415 235.511 176.415C236.177 176.415 236.706 176.278 237.098 176.004C237.49 175.69 237.686 175.318 237.686 174.886C237.686 174.142 237.275 173.612 236.452 173.299C235.628 172.985 234.237 172.632 232.277 172.24C229.886 171.77 227.906 171.26 226.338 170.712C224.809 170.163 223.457 169.222 222.281 167.889C221.144 166.556 220.576 164.714 220.576 162.362C220.576 160.324 221.105 158.481 222.163 156.835C223.261 155.149 224.868 153.836 226.985 152.895C229.102 151.915 231.669 151.425 234.688 151.425C239.156 151.425 242.645 152.523 245.154 154.718C247.702 156.913 249.231 159.775 249.74 163.303H238.157C237.961 162.401 237.549 161.715 236.922 161.245C236.295 160.735 235.452 160.48 234.394 160.48C233.727 160.48 233.218 160.618 232.865 160.892C232.512 161.127 232.336 161.5 232.336 162.009C232.336 162.676 232.747 163.185 233.57 163.538C234.394 163.852 235.707 164.185 237.51 164.538C239.901 165.008 241.92 165.537 243.566 166.125C245.213 166.713 246.644 167.732 247.859 169.183C249.074 170.594 249.682 172.554 249.682 175.063C249.682 177.023 249.113 178.787 247.976 180.355C246.84 181.923 245.193 183.158 243.037 184.059C240.92 184.961 238.431 185.412 235.57 185.412ZM271.973 185.412C268.837 185.412 266.054 184.902 263.623 183.883C261.232 182.864 259.331 181.452 257.92 179.649C256.508 177.846 255.705 175.808 255.509 173.534H268.033C268.19 174.514 268.602 175.239 269.268 175.71C269.974 176.18 270.856 176.415 271.914 176.415C272.58 176.415 273.11 176.278 273.502 176.004C273.894 175.69 274.09 175.318 274.09 174.886C274.09 174.142 273.678 173.612 272.855 173.299C272.032 172.985 270.64 172.632 268.68 172.24C266.289 171.77 264.309 171.26 262.741 170.712C261.212 170.163 259.86 169.222 258.684 167.889C257.547 166.556 256.979 164.714 256.979 162.362C256.979 160.324 257.508 158.481 258.566 156.835C259.664 155.149 261.271 153.836 263.388 152.895C265.505 151.915 268.072 151.425 271.091 151.425C275.56 151.425 279.048 152.523 281.557 154.718C284.105 156.913 285.634 159.775 286.144 163.303H274.56C274.364 162.401 273.952 161.715 273.325 161.245C272.698 160.735 271.855 160.48 270.797 160.48C270.13 160.48 269.621 160.618 269.268 160.892C268.915 161.127 268.739 161.5 268.739 162.009C268.739 162.676 269.15 163.185 269.974 163.538C270.797 163.852 272.11 164.185 273.913 164.538C276.304 165.008 278.323 165.537 279.97 166.125C281.616 166.713 283.047 167.732 284.262 169.183C285.477 170.594 286.085 172.554 286.085 175.063C286.085 177.023 285.516 178.787 284.38 180.355C283.243 181.923 281.596 183.158 279.44 184.059C277.324 184.961 274.834 185.412 271.973 185.412ZM300.203 149.191C297.929 149.191 296.106 148.583 294.734 147.368C293.362 146.153 292.676 144.624 292.676 142.782C292.676 140.9 293.362 139.352 294.734 138.136C296.106 136.882 297.929 136.255 300.203 136.255C302.437 136.255 304.24 136.882 305.612 138.136C306.984 139.352 307.67 140.9 307.67 142.782C307.67 144.624 306.984 146.153 305.612 147.368C304.24 148.583 302.437 149.191 300.203 149.191ZM306.671 151.837V185H293.617V151.837H306.671ZM330.677 185.412C327.345 185.412 324.346 184.726 321.68 183.354C319.015 181.982 316.918 180.022 315.389 177.474C313.899 174.886 313.154 171.868 313.154 168.418C313.154 164.969 313.899 161.97 315.389 159.422C316.918 156.835 319.015 154.855 321.68 153.483C324.346 152.111 327.345 151.425 330.677 151.425C334.009 151.425 337.008 152.111 339.673 153.483C342.339 154.855 344.416 156.835 345.906 159.422C347.435 161.97 348.199 164.969 348.199 168.418C348.199 171.868 347.435 174.886 345.906 177.474C344.416 180.022 342.339 181.982 339.673 183.354C337.008 184.726 334.009 185.412 330.677 185.412ZM330.677 174.122C331.892 174.122 332.911 173.652 333.734 172.711C334.558 171.731 334.969 170.3 334.969 168.418C334.969 166.537 334.558 165.126 333.734 164.185C332.911 163.205 331.892 162.715 330.677 162.715C329.462 162.715 328.442 163.205 327.619 164.185C326.796 165.126 326.384 166.537 326.384 168.418C326.384 170.3 326.776 171.731 327.56 172.711C328.384 173.652 329.422 174.122 330.677 174.122ZM377.878 151.602C381.68 151.602 384.64 152.876 386.757 155.424C388.913 157.972 389.991 161.421 389.991 165.772V185H376.996V167.419C376.996 165.851 376.565 164.616 375.702 163.714C374.879 162.774 373.762 162.303 372.351 162.303C370.9 162.303 369.764 162.774 368.94 163.714C368.117 164.616 367.706 165.851 367.706 167.419V185H354.652V151.837H367.706V156.894C368.725 155.326 370.077 154.052 371.763 153.072C373.488 152.092 375.526 151.602 377.878 151.602Z" fill="white"/>
<g clip-path="url(#clip0_115_49)">
<g clip-path="url(#clip1_115_49)">
<mask id="path-5-inside-1_115_49" fill="white">
<path d="M344.547 267.639C345.116 267.829 345.727 267.856 346.311 267.718C346.894 267.58 347.428 267.283 347.852 266.859L370.053 244.658C370.477 244.234 370.775 243.7 370.912 243.117C371.05 242.533 371.023 241.923 370.833 241.354C370.644 240.785 370.299 240.28 369.839 239.896C369.379 239.511 368.821 239.263 368.227 239.178L356.496 237.502L354.821 225.771C354.736 225.178 354.487 224.62 354.103 224.159C353.719 223.699 353.214 223.355 352.645 223.165C352.076 222.976 351.466 222.949 350.882 223.086C350.299 223.224 349.765 223.522 349.341 223.946L327.14 246.146C326.716 246.57 326.419 247.104 326.281 247.688C326.143 248.272 326.171 248.882 326.361 249.451L329.766 259.666L323.72 265.712C306.953 250.141 284.745 241.774 261.872 242.408C239 243.043 217.29 252.629 201.412 269.105C185.534 285.581 176.757 307.631 176.969 330.512C177.18 353.392 186.363 375.276 202.543 391.456C218.723 407.635 240.606 416.818 263.487 417.03C286.368 417.242 308.417 408.465 324.893 392.587C341.37 376.709 350.956 354.999 351.59 332.126C352.225 309.253 343.857 287.045 328.287 270.278L334.331 264.234L344.547 267.639ZM345.166 329.563C345.193 348.135 338.826 366.15 327.135 380.58C315.443 395.01 299.14 404.976 280.967 408.801C262.793 412.626 243.856 410.077 227.34 401.584C210.824 393.091 197.735 379.171 190.274 362.164C182.814 345.156 181.435 326.099 186.371 308.195C191.307 290.291 202.256 274.632 217.378 263.851C232.5 253.069 250.873 247.822 269.408 248.992C287.943 250.162 305.51 257.678 319.156 270.275L305.408 284.025C293.475 273.282 277.819 267.624 261.776 268.255C245.732 268.887 230.57 275.758 219.518 287.405C208.467 299.052 202.4 314.554 202.61 330.608C202.821 346.663 209.292 362 220.645 373.353C231.998 384.707 247.336 391.178 263.39 391.388C279.445 391.599 294.947 385.532 306.594 374.48C318.241 363.429 325.112 348.266 325.743 332.223C326.375 316.18 320.716 300.524 309.974 288.591L323.724 274.842C337.519 289.724 345.179 309.271 345.166 329.563ZM262.152 331.846C262.452 332.146 262.808 332.384 263.2 332.546C263.591 332.709 264.011 332.792 264.435 332.792C264.859 332.792 265.279 332.709 265.671 332.546C266.063 332.384 266.419 332.146 266.718 331.846L280.21 318.354C283.036 322.325 284.267 327.213 283.659 332.049C283.05 336.885 280.647 341.316 276.925 344.463C273.203 347.61 268.435 349.244 263.565 349.041C258.695 348.838 254.08 346.812 250.633 343.365C247.187 339.919 245.161 335.303 244.958 330.434C244.754 325.564 246.388 320.795 249.535 317.074C252.683 313.352 257.113 310.949 261.949 310.34C266.785 309.731 271.673 310.962 275.644 313.788L262.152 327.28C261.852 327.58 261.614 327.936 261.452 328.328C261.29 328.719 261.206 329.139 261.206 329.563C261.206 329.987 261.29 330.407 261.452 330.799C261.614 331.191 261.852 331.547 262.152 331.846ZM280.251 309.182C275.043 305.135 268.488 303.226 261.922 303.843C255.356 304.46 249.271 307.556 244.908 312.502C240.544 317.447 238.23 323.87 238.436 330.462C238.642 337.054 241.352 343.319 246.016 347.983C250.679 352.646 256.945 355.357 263.537 355.563C270.129 355.769 276.552 353.454 281.497 349.091C286.443 344.727 289.539 338.643 290.156 332.077C290.772 325.51 288.863 318.956 284.817 313.748L305.409 293.156C314.934 303.868 319.909 317.87 319.279 332.191C318.649 346.511 312.463 360.023 302.034 369.857C291.606 379.691 277.755 385.075 263.422 384.865C249.09 384.655 235.403 378.867 225.267 368.732C215.131 358.596 209.344 344.909 209.134 330.576C208.924 316.243 214.307 302.393 224.142 291.964C233.976 281.536 247.487 275.35 261.808 274.72C276.128 274.089 290.131 279.065 300.843 288.589L280.251 309.182ZM349.341 233.078L350.445 240.814C350.544 241.505 350.864 242.146 351.358 242.64C351.853 243.133 352.493 243.454 353.185 243.552L360.92 244.658L344.696 260.881L336.014 257.986L333.119 249.3L349.341 233.078Z"/>
</mask>
<path d="M344.547 267.639C345.116 267.829 345.727 267.856 346.311 267.718C346.894 267.58 347.428 267.283 347.852 266.859L370.053 244.658C370.477 244.234 370.775 243.7 370.912 243.117C371.05 242.533 371.023 241.923 370.833 241.354C370.644 240.785 370.299 240.28 369.839 239.896C369.379 239.511 368.821 239.263 368.227 239.178L356.496 237.502L354.821 225.771C354.736 225.178 354.487 224.62 354.103 224.159C353.719 223.699 353.214 223.355 352.645 223.165C352.076 222.976 351.466 222.949 350.882 223.086C350.299 223.224 349.765 223.522 349.341 223.946L327.14 246.146C326.716 246.57 326.419 247.104 326.281 247.688C326.143 248.272 326.171 248.882 326.361 249.451L329.766 259.666L323.72 265.712C306.953 250.141 284.745 241.774 261.872 242.408C239 243.043 217.29 252.629 201.412 269.105C185.534 285.581 176.757 307.631 176.969 330.512C177.18 353.392 186.363 375.276 202.543 391.456C218.723 407.635 240.606 416.818 263.487 417.03C286.368 417.242 308.417 408.465 324.893 392.587C341.37 376.709 350.956 354.999 351.59 332.126C352.225 309.253 343.857 287.045 328.287 270.278L334.331 264.234L344.547 267.639ZM345.166 329.563C345.193 348.135 338.826 366.15 327.135 380.58C315.443 395.01 299.14 404.976 280.967 408.801C262.793 412.626 243.856 410.077 227.34 401.584C210.824 393.091 197.735 379.171 190.274 362.164C182.814 345.156 181.435 326.099 186.371 308.195C191.307 290.291 202.256 274.632 217.378 263.851C232.5 253.069 250.873 247.822 269.408 248.992C287.943 250.162 305.51 257.678 319.156 270.275L305.408 284.025C293.475 273.282 277.819 267.624 261.776 268.255C245.732 268.887 230.57 275.758 219.518 287.405C208.467 299.052 202.4 314.554 202.61 330.608C202.821 346.663 209.292 362 220.645 373.353C231.998 384.707 247.336 391.178 263.39 391.388C279.445 391.599 294.947 385.532 306.594 374.48C318.241 363.429 325.112 348.266 325.743 332.223C326.375 316.18 320.716 300.524 309.974 288.591L323.724 274.842C337.519 289.724 345.179 309.271 345.166 329.563ZM262.152 331.846C262.452 332.146 262.808 332.384 263.2 332.546C263.591 332.709 264.011 332.792 264.435 332.792C264.859 332.792 265.279 332.709 265.671 332.546C266.063 332.384 266.419 332.146 266.718 331.846L280.21 318.354C283.036 322.325 284.267 327.213 283.659 332.049C283.05 336.885 280.647 341.316 276.925 344.463C273.203 347.61 268.435 349.244 263.565 349.041C258.695 348.838 254.08 346.812 250.633 343.365C247.187 339.919 245.161 335.303 244.958 330.434C244.754 325.564 246.388 320.795 249.535 317.074C252.683 313.352 257.113 310.949 261.949 310.34C266.785 309.731 271.673 310.962 275.644 313.788L262.152 327.28C261.852 327.58 261.614 327.936 261.452 328.328C261.29 328.719 261.206 329.139 261.206 329.563C261.206 329.987 261.29 330.407 261.452 330.799C261.614 331.191 261.852 331.547 262.152 331.846ZM280.251 309.182C275.043 305.135 268.488 303.226 261.922 303.843C255.356 304.46 249.271 307.556 244.908 312.502C240.544 317.447 238.23 323.87 238.436 330.462C238.642 337.054 241.352 343.319 246.016 347.983C250.679 352.646 256.945 355.357 263.537 355.563C270.129 355.769 276.552 353.454 281.497 349.091C286.443 344.727 289.539 338.643 290.156 332.077C290.772 325.51 288.863 318.956 284.817 313.748L305.409 293.156C314.934 303.868 319.909 317.87 319.279 332.191C318.649 346.511 312.463 360.023 302.034 369.857C291.606 379.691 277.755 385.075 263.422 384.865C249.09 384.655 235.403 378.867 225.267 368.732C215.131 358.596 209.344 344.909 209.134 330.576C208.924 316.243 214.307 302.393 224.142 291.964C233.976 281.536 247.487 275.35 261.808 274.72C276.128 274.089 290.131 279.065 300.843 288.589L280.251 309.182ZM349.341 233.078L350.445 240.814C350.544 241.505 350.864 242.146 351.358 242.64C351.853 243.133 352.493 243.454 353.185 243.552L360.92 244.658L344.696 260.881L336.014 257.986L333.119 249.3L349.341 233.078Z" fill="white"/>
<path d="M344.547 267.639L338.492 285.808L338.492 285.808L344.547 267.639ZM347.852 266.859L334.31 253.316L334.308 253.318L347.852 266.859ZM370.053 244.658L383.595 258.2L383.595 258.2L370.053 244.658ZM368.227 239.178L370.941 220.22L370.936 220.219L368.227 239.178ZM356.496 237.502L337.537 240.209L339.568 254.429L353.787 256.46L356.496 237.502ZM354.821 225.771L373.78 223.064L373.779 223.057L354.821 225.771ZM349.341 223.946L335.799 210.403L335.799 210.403L349.341 223.946ZM327.14 246.146L313.598 232.604L313.598 232.604L327.14 246.146ZM326.361 249.451L344.53 243.395L344.526 243.382L326.361 249.451ZM329.766 259.666L343.308 273.208L351.678 264.839L347.935 253.61L329.766 259.666ZM323.72 265.712L310.688 279.745L324.212 292.304L337.263 279.254L323.72 265.712ZM328.287 270.278L314.745 256.736L301.694 269.786L314.253 283.31L328.287 270.278ZM334.331 264.234L340.387 246.065L329.158 242.322L320.789 250.692L334.331 264.234ZM345.166 329.563L326.014 329.551L326.014 329.571L326.014 329.592L345.166 329.563ZM319.156 270.275L332.699 283.817L346.792 269.723L332.147 256.203L319.156 270.275ZM305.408 284.025L292.594 298.258L306.1 310.417L318.95 297.566L305.408 284.025ZM309.974 288.591L296.432 275.048L283.581 287.898L295.741 301.405L309.974 288.591ZM323.724 274.842L337.768 261.822L324.247 247.236L310.182 261.3L323.724 274.842ZM262.152 331.846L275.699 318.309L275.694 318.303L275.688 318.298L262.152 331.846ZM266.718 331.846L253.176 318.304L253.172 318.309L266.718 331.846ZM280.21 318.354L295.814 307.25L282.683 288.798L266.668 304.812L280.21 318.354ZM275.644 313.788L289.186 327.33L305.201 311.316L286.749 298.184L275.644 313.788ZM262.152 327.28L275.688 340.828L275.695 340.822L262.152 327.28ZM261.206 329.563L242.055 329.563L261.206 329.563ZM280.251 309.182L268.501 324.305L281.845 334.673L293.793 322.724L280.251 309.182ZM284.817 313.748L271.275 300.206L259.326 312.154L269.693 325.498L284.817 313.748ZM305.409 293.156L319.722 280.43L306.228 265.253L291.867 279.613L305.409 293.156ZM300.843 288.589L314.385 302.131L328.746 287.771L313.568 274.277L300.843 288.589ZM349.341 233.078L368.3 230.373L362.889 192.446L335.799 219.536L349.341 233.078ZM350.445 240.814L331.485 243.519L331.487 243.531L350.445 240.814ZM353.185 243.552L355.894 224.593L355.891 224.593L353.185 243.552ZM360.92 244.658L374.462 258.2L401.548 231.117L363.63 225.699L360.92 244.658ZM344.696 260.881L338.637 279.049L349.867 282.794L358.237 274.424L344.696 260.881ZM336.014 257.986L317.845 264.042L320.872 273.125L329.956 276.154L336.014 257.986ZM333.119 249.3L319.577 235.757L311.208 244.126L314.95 255.355L333.119 249.3ZM338.492 285.808C342.436 287.122 346.667 287.312 350.713 286.357L341.909 249.079C344.787 248.4 347.797 248.535 350.603 249.47L338.492 285.808ZM350.713 286.357C354.758 285.402 358.458 283.338 361.396 280.399L334.308 253.318C336.399 251.227 339.031 249.759 341.909 249.079L350.713 286.357ZM361.394 280.401L383.595 258.2L356.511 231.116L334.31 253.316L361.394 280.401ZM383.595 258.2C386.534 255.261 388.596 251.562 389.551 247.518L352.273 238.715C352.953 235.838 354.42 233.207 356.511 231.116L383.595 258.2ZM389.551 247.518C390.506 243.473 390.316 239.243 389.003 235.3L352.664 247.407C351.729 244.602 351.594 241.593 352.273 238.715L389.551 247.518ZM389.003 235.3C387.689 231.357 385.304 227.858 382.114 225.195L357.565 254.597C355.295 252.702 353.598 250.212 352.664 247.407L389.003 235.3ZM382.114 225.195C378.924 222.531 375.055 220.809 370.941 220.22L365.513 258.136C362.586 257.717 359.834 256.491 357.565 254.597L382.114 225.195ZM370.936 220.219L359.205 218.543L353.787 256.46L365.518 258.137L370.936 220.219ZM375.455 234.794L373.78 223.064L335.862 228.479L337.537 240.209L375.455 234.794ZM373.779 223.057C373.19 218.943 371.467 215.075 368.804 211.885L339.402 236.434C337.507 234.165 336.282 231.412 335.863 228.486L373.779 223.057ZM368.804 211.885C366.14 208.695 362.641 206.309 358.699 204.996L346.591 241.335C343.786 240.401 341.297 238.704 339.402 236.434L368.804 211.885ZM358.699 204.996C354.756 203.682 350.525 203.492 346.481 204.447L355.283 241.725C352.406 242.405 349.396 242.27 346.591 241.335L358.699 204.996ZM346.481 204.447C342.436 205.402 338.738 207.465 335.799 210.403L362.883 237.488C360.792 239.579 358.161 241.046 355.283 241.725L346.481 204.447ZM335.799 210.403L313.598 232.604L340.682 259.689L362.883 237.488L335.799 210.403ZM313.598 232.604C310.657 235.545 308.594 239.247 307.64 243.295L344.922 252.081C344.243 254.962 342.775 257.596 340.682 259.689L313.598 232.604ZM307.64 243.295C306.686 247.342 306.879 251.576 308.197 255.521L344.526 243.382C345.463 246.189 345.601 249.201 344.922 252.081L307.64 243.295ZM308.192 255.507L311.597 265.722L347.935 253.61L344.53 243.395L308.192 255.507ZM316.224 246.124L310.178 252.17L337.263 279.254L343.308 273.208L316.224 246.124ZM336.753 251.678C316.309 232.693 289.23 222.49 261.341 223.264L262.404 261.552C280.26 261.057 297.598 267.59 310.688 279.745L336.753 251.678ZM261.341 223.264C233.453 224.038 206.981 235.726 187.622 255.816L215.202 282.395C227.598 269.532 244.547 262.048 262.404 261.552L261.341 223.264ZM187.622 255.816C168.262 275.905 157.56 302.79 157.818 330.689L196.119 330.335C195.954 312.472 202.806 295.258 215.202 282.395L187.622 255.816ZM157.818 330.689C158.076 358.587 169.273 385.27 189.001 404.998L216.085 377.913C203.454 365.282 196.284 348.197 196.119 330.335L157.818 330.689ZM189.001 404.998C208.729 424.726 235.412 435.923 263.31 436.181L263.664 397.879C245.801 397.714 228.717 390.545 216.085 377.913L189.001 404.998ZM263.31 436.181C291.208 436.439 318.094 425.737 338.183 406.377L311.604 378.797C298.741 391.192 281.527 398.045 263.664 397.879L263.31 436.181ZM338.183 406.377C358.272 387.017 369.961 360.546 370.735 332.657L332.446 331.595C331.951 349.452 324.467 366.401 311.604 378.797L338.183 406.377ZM370.735 332.657C371.508 304.768 361.305 277.69 342.32 257.246L314.253 283.31C326.409 296.4 332.942 313.738 332.446 331.595L370.735 332.657ZM341.829 283.82L347.873 277.776L320.789 250.692L314.745 256.736L341.829 283.82ZM328.275 282.403L338.492 285.808L350.603 249.47L340.387 246.065L328.275 282.403ZM326.014 329.592C326.035 343.764 321.176 357.512 312.254 368.524L342.015 392.637C356.476 374.788 364.351 352.506 364.317 329.535L326.014 329.592ZM312.254 368.524C303.332 379.536 290.891 387.141 277.022 390.06L284.911 427.542C307.39 422.81 327.554 410.485 342.015 392.637L312.254 368.524ZM277.022 390.06C263.153 392.979 248.702 391.034 236.098 384.553L218.582 418.616C239.01 429.121 262.432 432.273 284.911 427.542L277.022 390.06ZM236.098 384.553C223.495 378.071 213.506 367.449 207.813 354.47L172.736 369.857C181.965 390.893 198.154 408.111 218.582 418.616L236.098 384.553ZM207.813 354.47C202.119 341.491 201.067 326.948 204.834 313.285L167.908 303.105C161.803 325.25 163.508 348.822 172.736 369.857L207.813 354.47ZM204.834 313.285C208.6 299.622 216.956 287.672 228.496 279.444L206.26 248.257C187.556 261.592 174.013 280.96 167.908 303.105L204.834 313.285ZM228.496 279.444C240.036 271.217 254.057 267.213 268.201 268.106L270.614 229.879C247.689 228.432 224.964 234.921 206.26 248.257L228.496 279.444ZM268.201 268.106C282.346 268.999 295.752 274.734 306.166 284.347L332.147 256.203C315.268 240.621 293.54 231.326 270.614 229.879L268.201 268.106ZM305.614 256.733L291.865 270.483L318.95 297.566L332.699 283.817L305.614 256.733ZM318.221 269.791C302.578 255.709 282.054 248.291 261.023 249.119L262.529 287.392C273.584 286.957 284.372 290.856 292.594 298.258L318.221 269.791ZM261.023 249.119C239.991 249.947 220.113 258.954 205.626 274.223L233.411 300.587C241.026 292.562 251.474 287.827 262.529 287.392L261.023 249.119ZM205.626 274.223C191.138 289.491 183.185 309.813 183.461 330.859L221.76 330.357C221.615 319.295 225.796 308.613 233.411 300.587L205.626 274.223ZM183.461 330.859C183.736 351.906 192.22 372.012 207.103 386.896L234.187 359.811C226.364 351.988 221.905 341.42 221.76 330.357L183.461 330.859ZM207.103 386.896C221.986 401.779 242.093 410.262 263.139 410.538L263.641 372.238C252.579 372.093 242.01 367.634 234.187 359.811L207.103 386.896ZM263.139 410.538C284.186 410.814 304.508 402.861 319.776 388.373L293.411 360.588C285.386 368.203 274.704 372.383 263.641 372.238L263.139 410.538ZM319.776 388.373C335.045 373.885 344.052 354.008 344.88 332.976L306.606 331.47C306.171 342.525 301.437 352.973 293.411 360.588L319.776 388.373ZM344.88 332.976C345.708 311.944 338.29 291.42 324.207 275.777L295.741 301.405C303.143 309.627 307.042 320.415 306.606 331.47L344.88 332.976ZM323.516 302.134L337.265 288.385L310.182 261.3L296.432 275.048L323.516 302.134ZM309.679 287.862C320.189 299.2 326.024 314.091 326.014 329.551L364.317 329.575C364.333 304.45 354.85 280.248 337.768 261.822L309.679 287.862ZM248.605 345.384C250.684 347.464 253.152 349.113 255.868 350.239L270.532 314.854C272.464 315.655 274.22 316.829 275.699 318.309L248.605 345.384ZM255.868 350.239C258.584 351.365 261.495 351.944 264.435 351.944V313.641C266.527 313.641 268.599 314.053 270.532 314.854L255.868 350.239ZM264.435 351.944C267.376 351.944 270.287 351.365 273.003 350.239L258.339 314.854C260.272 314.053 262.343 313.641 264.435 313.641V351.944ZM273.003 350.239C275.719 349.113 278.187 347.464 280.265 345.384L253.172 318.309C254.651 316.829 256.406 315.655 258.339 314.854L273.003 350.239ZM280.261 345.388L293.753 331.896L266.668 304.812L253.176 318.304L280.261 345.388ZM264.607 329.459C264.648 329.516 264.666 329.588 264.657 329.658L302.66 334.44C303.868 324.839 301.425 315.134 295.814 307.25L264.607 329.459ZM264.657 329.658C264.648 329.729 264.613 329.793 264.559 329.839L289.291 359.087C296.68 352.839 301.452 344.042 302.66 334.44L264.657 329.658ZM264.559 329.839C264.504 329.885 264.435 329.909 264.364 329.906L262.766 368.176C272.435 368.579 281.902 365.335 289.291 359.087L264.559 329.839ZM264.364 329.906C264.293 329.903 264.226 329.874 264.175 329.823L237.091 356.908C243.934 363.75 253.098 367.772 262.766 368.176L264.364 329.906ZM264.175 329.823C264.125 329.773 264.096 329.706 264.093 329.635L225.823 331.232C226.227 340.901 230.248 350.065 237.091 356.908L264.175 329.823ZM264.093 329.635C264.09 329.564 264.113 329.494 264.159 329.44L234.912 304.707C228.663 312.097 225.419 321.564 225.823 331.232L264.093 329.635ZM264.159 329.44C264.205 329.386 264.27 329.351 264.34 329.342L259.558 291.338C249.957 292.547 241.16 297.318 234.912 304.707L264.159 329.44ZM264.34 329.342C264.411 329.333 264.482 329.351 264.54 329.392L286.749 298.184C278.864 292.574 269.159 290.13 259.558 291.338L264.34 329.342ZM262.102 300.246L248.61 313.738L275.695 340.822L289.186 327.33L262.102 300.246ZM248.616 313.732C246.536 315.81 244.886 318.278 243.76 320.995L279.144 335.66C278.343 337.593 277.169 339.349 275.688 340.828L248.616 313.732ZM243.76 320.995C242.634 323.711 242.055 326.623 242.055 329.563L280.358 329.563C280.358 331.656 279.945 333.727 279.144 335.66L243.76 320.995ZM242.055 329.563C242.055 332.504 242.634 335.415 243.76 338.132L279.144 323.466C279.945 325.399 280.358 327.471 280.358 329.563L242.055 329.563ZM243.76 338.132C244.886 340.848 246.536 343.316 248.616 345.394L275.688 318.298C277.169 319.777 278.343 321.533 279.144 323.466L243.76 338.132ZM292.001 294.058C282.945 287.023 271.548 283.703 260.131 284.775L263.713 322.911C265.428 322.749 267.14 323.248 268.501 324.305L292.001 294.058ZM260.131 284.775C248.713 285.848 238.134 291.232 230.547 299.831L259.269 325.172C260.408 323.881 261.998 323.072 263.713 322.911L260.131 284.775ZM230.547 299.831C222.96 308.43 218.936 319.597 219.294 331.059L257.578 329.864C257.524 328.142 258.129 326.464 259.269 325.172L230.547 299.831ZM219.294 331.059C219.651 342.521 224.365 353.416 232.474 361.525L259.558 334.441C258.34 333.222 257.632 331.586 257.578 329.864L219.294 331.059ZM232.474 361.525C240.582 369.634 251.477 374.347 262.939 374.705L264.135 336.421C262.413 336.367 260.776 335.659 259.558 334.441L232.474 361.525ZM262.939 374.705C274.401 375.063 285.569 371.039 294.168 363.452L268.826 334.73C267.534 335.87 265.857 336.474 264.135 336.421L262.939 374.705ZM294.168 363.452C302.767 355.865 308.151 345.285 309.223 333.868L271.088 330.286C270.927 332.001 270.118 333.59 268.826 334.73L294.168 363.452ZM309.223 333.868C310.296 322.45 306.976 311.053 299.94 301.998L269.693 325.498C270.75 326.858 271.249 328.57 271.088 330.286L309.223 333.868ZM298.359 327.29L318.952 306.698L291.867 279.613L271.275 300.206L298.359 327.29ZM291.097 305.881C297.311 312.87 300.557 322.006 300.146 331.349L338.412 333.033C339.261 313.735 332.557 294.866 319.722 280.43L291.097 305.881ZM300.146 331.349C299.735 340.692 295.699 349.507 288.895 355.924L315.174 383.79C329.227 370.538 337.563 352.33 338.412 333.033L300.146 331.349ZM288.895 355.924C282.091 362.34 273.054 365.852 263.703 365.715L263.142 404.014C282.456 404.297 301.121 397.043 315.174 383.79L288.895 355.924ZM263.703 365.715C254.352 365.578 245.422 361.802 238.809 355.189L211.725 382.274C225.384 395.933 243.827 403.731 263.142 404.014L263.703 365.715ZM238.809 355.189C232.196 348.576 228.42 339.647 228.283 330.295L189.984 330.857C190.268 350.171 198.066 368.615 211.725 382.274L238.809 355.189ZM228.283 330.295C228.146 320.944 231.659 311.908 238.075 305.104L210.208 278.825C196.956 292.878 189.701 311.543 189.984 330.857L228.283 330.295ZM238.075 305.104C244.491 298.3 253.307 294.264 262.65 293.853L260.966 255.587C241.668 256.436 223.461 264.772 210.208 278.825L238.075 305.104ZM262.65 293.853C271.993 293.441 281.129 296.687 288.118 302.902L313.568 274.277C299.133 261.442 280.264 254.737 260.966 255.587L262.65 293.853ZM287.301 275.047L266.709 295.64L293.793 322.724L314.385 302.131L287.301 275.047ZM330.381 235.783L331.485 243.519L369.404 238.108L368.3 230.373L330.381 235.783ZM331.487 243.531C332.174 248.323 334.396 252.763 337.82 256.186L364.897 229.093C367.333 231.528 368.914 234.687 369.402 238.097L331.487 243.531ZM337.82 256.186C341.245 259.608 345.686 261.828 350.479 262.512L355.891 224.593C359.3 225.08 362.46 226.659 364.897 229.093L337.82 256.186ZM350.476 262.511L358.211 263.617L363.63 225.699L355.894 224.593L350.476 262.511ZM347.379 231.115L331.154 247.339L358.237 274.424L374.462 258.2L347.379 231.115ZM350.754 242.713L342.072 239.818L329.956 276.154L338.637 279.049L350.754 242.713ZM354.183 251.931L351.288 243.245L314.95 255.355L317.845 264.042L354.183 251.931ZM346.661 262.842L362.883 246.62L335.799 219.536L319.577 235.757L346.661 262.842Z" fill="white" mask="url(#path-5-inside-1_115_49)"/>
</g>
</g>
</g>
<defs>
<filter id="filter0_d_115_49" x="-14" y="23" width="557.676" height="483.668" filterUnits="userSpaceOnUse" color-interpolation-filters="sRGB">
<feFlood flood-opacity="0" result="BackgroundImageFix"/>
<feColorMatrix in="SourceAlpha" type="matrix" values="0 0 0 0 0 0 0 0 0 0 0 0 0 0 0 0 0 0 127 0" result="hardAlpha"/>
<feOffset/>
<feGaussianBlur stdDeviation="10"/>
<feComposite in2="hardAlpha" operator="out"/>
<feColorMatrix type="matrix" values="0 0 0 0 0 0 0 0 0 0 0 0 0 0 0 0 0 0 0.25 0"/>
<feBlend mode="normal" in2="BackgroundImageFix" result="effect1_dropShadow_115_49"/>
<feBlend mode="normal" in="SourceGraphic" in2="effect1_dropShadow_115_49" result="shape"/>
</filter>
<clipPath id="clip0_115_49">
<rect width="212" height="212" fill="white" transform="translate(159 223)"/>
</clipPath>
<clipPath id="clip1_115_49">
<rect width="194.034" height="194.034" fill="white" transform="translate(176.965 223)"/>
</clipPath>
</defs>
</svg>
