<svg width="530" height="530" viewBox="0 0 530 530" fill="none" xmlns="http://www.w3.org/2000/svg">
<mask id="mask0_115_50" style="mask-type:alpha" maskUnits="userSpaceOnUse" x="0" y="0" width="530" height="530">
<rect width="530" height="530" fill="#D9D9D9"/>
</mask>
<g mask="url(#mask0_115_50)">
<g filter="url(#filter0_d_115_50)">
<path d="M114.711 85.9444L114.711 85.9442C120.781 76.0139 129.554 67.6984 140.206 61.8895C150.86 56.0792 162.986 53.0006 175.36 53C175.36 53 175.36 53 175.361 53H354.31C366.686 53.0001 378.814 56.0791 389.469 61.8905C400.122 67.7004 408.897 76.0174 414.966 85.9495L414.967 85.9504L504.442 232.321C510.509 242.246 513.678 253.458 513.678 264.834C513.678 276.21 510.509 287.421 504.442 297.347L512.673 302.378L504.442 297.347L414.967 443.723C408.897 453.654 400.122 461.97 389.47 467.779C378.815 473.589 366.688 476.668 354.314 476.668H175.364C162.989 476.668 150.862 473.589 140.207 467.779C129.555 461.97 120.781 453.654 114.711 443.723L106.271 448.882L114.711 443.723L25.2357 297.347L25.2356 297.347C19.1684 287.421 16 276.21 16 264.834C16 253.458 19.1684 242.246 25.2356 232.321L25.2357 232.321L114.711 85.9444Z" fill="#8D147A" stroke="white" stroke-width="20"/>
<path d="M130.595 185.412C126.675 185.412 123.069 184.49 119.776 182.648C116.523 180.806 113.935 178.258 112.015 175.004C110.094 171.75 109.133 168.085 109.133 164.008C109.133 159.932 110.094 156.266 112.015 153.013C113.935 149.759 116.523 147.231 119.776 145.428C123.069 143.585 126.675 142.664 130.595 142.664C134.515 142.664 138.102 143.585 141.356 145.428C144.609 147.231 147.177 149.759 149.059 153.013C150.979 156.266 151.94 159.932 151.94 164.008C151.94 168.085 150.979 171.75 149.059 175.004C147.177 178.258 144.59 180.806 141.297 182.648C138.043 184.49 134.476 185.412 130.595 185.412ZM130.595 173.24C133.183 173.24 135.182 172.417 136.593 170.77C138.004 169.085 138.71 166.831 138.71 164.008C138.71 161.147 138.004 158.893 136.593 157.246C135.182 155.561 133.183 154.718 130.595 154.718C127.969 154.718 125.95 155.561 124.539 157.246C123.128 158.893 122.422 161.147 122.422 164.008C122.422 166.831 123.128 169.085 124.539 170.77C125.95 172.417 127.969 173.24 130.595 173.24ZM172.054 156.364C172.878 154.836 174.054 153.64 175.582 152.778C177.15 151.876 179.012 151.425 181.168 151.425C183.756 151.425 186.088 152.111 188.166 153.483C190.243 154.816 191.87 156.776 193.046 159.363C194.261 161.911 194.869 164.93 194.869 168.418C194.869 171.907 194.261 174.945 193.046 177.532C191.87 180.08 190.243 182.04 188.166 183.412C186.088 184.745 183.756 185.412 181.168 185.412C179.012 185.412 177.15 184.98 175.582 184.118C174.054 183.216 172.878 182.001 172.054 180.472V185H159.001V141.488H172.054V156.364ZM181.639 168.418C181.639 166.654 181.188 165.282 180.286 164.302C179.385 163.322 178.228 162.832 176.817 162.832C175.406 162.832 174.25 163.322 173.348 164.302C172.446 165.282 171.996 166.654 171.996 168.418C171.996 170.182 172.446 171.554 173.348 172.534C174.25 173.514 175.406 174.004 176.817 174.004C178.228 174.004 179.385 173.514 180.286 172.534C181.188 171.554 181.639 170.182 181.639 168.418ZM207.786 149.191C205.513 149.191 203.69 148.583 202.318 147.368C200.946 146.153 200.26 144.624 200.26 142.782C200.26 140.9 200.946 139.352 202.318 138.136C203.69 136.882 205.513 136.255 207.786 136.255C210.021 136.255 211.824 136.882 213.196 138.136C214.568 139.352 215.254 140.9 215.254 142.782C215.254 144.624 214.568 146.153 213.196 147.368C211.824 148.583 210.021 149.191 207.786 149.191ZM214.372 187.293C214.372 196.348 209.825 200.876 200.73 200.876H196.379V189.763H198.908C199.77 189.763 200.378 189.586 200.73 189.234C201.122 188.881 201.318 188.312 201.318 187.528V151.837H214.372V187.293ZM254.61 168.124C254.61 169.026 254.551 169.888 254.433 170.712H233.442C233.638 173.573 234.833 175.004 237.028 175.004C238.44 175.004 239.459 174.357 240.086 173.064H253.904C253.434 175.416 252.434 177.532 250.905 179.414C249.416 181.256 247.514 182.726 245.202 183.824C242.928 184.882 240.419 185.412 237.675 185.412C234.382 185.412 231.442 184.726 228.855 183.354C226.307 181.982 224.308 180.022 222.858 177.474C221.446 174.886 220.741 171.868 220.741 168.418C220.741 164.969 221.446 161.97 222.858 159.422C224.308 156.835 226.307 154.855 228.855 153.483C231.442 152.111 234.382 151.425 237.675 151.425C240.968 151.425 243.888 152.111 246.436 153.483C249.024 154.816 251.023 156.737 252.434 159.246C253.884 161.754 254.61 164.714 254.61 168.124ZM241.38 165.008C241.38 163.91 241.027 163.087 240.321 162.538C239.616 161.95 238.734 161.656 237.675 161.656C235.362 161.656 234.01 162.774 233.618 165.008H241.38ZM259.326 168.418C259.326 164.969 260.032 161.97 261.443 159.422C262.893 156.835 264.892 154.855 267.44 153.483C270.028 152.111 272.968 151.425 276.26 151.425C280.572 151.425 284.198 152.64 287.138 155.071C290.118 157.501 291.999 160.872 292.783 165.184H278.965C278.456 163.46 277.456 162.597 275.966 162.597C274.908 162.597 274.065 163.087 273.438 164.067C272.85 165.047 272.556 166.498 272.556 168.418C272.556 170.339 272.85 171.79 273.438 172.77C274.065 173.75 274.908 174.24 275.966 174.24C277.456 174.24 278.456 173.377 278.965 171.652H292.783C291.999 175.964 290.118 179.336 287.138 181.766C284.198 184.196 280.572 185.412 276.26 185.412C272.968 185.412 270.028 184.726 267.44 183.354C264.892 181.982 262.893 180.022 261.443 177.474C260.032 174.886 259.326 171.868 259.326 168.418ZM319.912 173.887V185H314.973C305.878 185 301.331 180.472 301.331 171.417V162.715H297.215V151.837H301.331V143.84H314.385V151.837H319.794V162.715H314.385V171.652C314.385 172.436 314.561 173.005 314.914 173.358C315.306 173.71 315.933 173.887 316.796 173.887H319.912ZM333.821 149.191C331.547 149.191 329.725 148.583 328.353 147.368C326.981 146.153 326.295 144.624 326.295 142.782C326.295 140.9 326.981 139.352 328.353 138.136C329.725 136.882 331.547 136.255 333.821 136.255C336.055 136.255 337.859 136.882 339.231 138.136C340.603 139.352 341.289 140.9 341.289 142.782C341.289 144.624 340.603 146.153 339.231 147.368C337.859 148.583 336.055 149.191 333.821 149.191ZM340.289 151.837V185H327.235V151.837H340.289ZM365.353 172.593L370.645 151.837H384.522L373.468 185H357.18L346.126 151.837H360.003L365.353 172.593ZM422.442 168.124C422.442 169.026 422.383 169.888 422.266 170.712H401.274C401.47 173.573 402.666 175.004 404.861 175.004C406.272 175.004 407.291 174.357 407.919 173.064H421.737C421.266 175.416 420.267 177.532 418.738 179.414C417.248 181.256 415.347 182.726 413.034 183.824C410.761 184.882 408.252 185.412 405.508 185.412C402.215 185.412 399.275 184.726 396.688 183.354C394.14 181.982 392.141 180.022 390.69 177.474C389.279 174.886 388.573 171.868 388.573 168.418C388.573 164.969 389.279 161.97 390.69 159.422C392.141 156.835 394.14 154.855 396.688 153.483C399.275 152.111 402.215 151.425 405.508 151.425C408.801 151.425 411.721 152.111 414.269 153.483C416.856 154.816 418.855 156.737 420.267 159.246C421.717 161.754 422.442 164.714 422.442 168.124ZM409.212 165.008C409.212 163.91 408.859 163.087 408.154 162.538C407.448 161.95 406.566 161.656 405.508 161.656C403.195 161.656 401.843 162.774 401.451 165.008H409.212Z" fill="white"/>
<mask id="path-4-inside-1_115_50" fill="white">
<path d="M329.761 249H283.442C280.553 249 278.203 251.35 278.203 254.239V259.195H214.494C213.831 259.195 213.195 259.459 212.726 259.928C212.257 260.396 211.994 261.032 211.994 261.695V289.545C191.377 290.84 175 308.021 175 328.958C175 349.895 191.377 367.076 211.994 368.371V396.305C211.994 396.968 212.257 397.604 212.726 398.072C213.195 398.541 213.831 398.805 214.494 398.805H278.203V403.761C278.203 406.65 280.554 409 283.442 409H329.761C332.65 409 335 406.65 335 403.761V388.848C335 385.96 332.65 383.609 329.761 383.609H283.442C280.554 383.609 278.203 385.959 278.203 388.848V393.804H216.994V368.37C225.543 367.833 233.365 364.567 239.59 359.431L244.58 364.42C245.049 364.889 245.685 365.152 246.348 365.152H278.203V370.108C278.203 372.997 280.554 375.347 283.442 375.347H329.761C332.65 375.347 335 372.997 335 370.108V355.196C335 352.307 332.65 349.957 329.761 349.957H283.442C280.554 349.957 278.203 352.307 278.203 355.196V360.152H247.383L243.24 356.009C249.356 349.514 253.3 340.954 253.904 331.499H278.203V336.455C278.203 339.344 280.554 341.695 283.442 341.695H329.761C332.65 341.695 335 339.344 335 336.455V321.543C335 318.654 332.65 316.304 329.761 316.304H283.442C280.554 316.304 278.203 318.654 278.203 321.543V326.5H253.91C253.577 321.163 252.164 315.948 249.757 311.173L262.249 298.681C262.566 298.364 262.792 297.966 262.903 297.531C263.014 297.095 263.005 296.638 262.878 296.207C262.751 295.776 262.51 295.388 262.181 295.082C261.852 294.776 261.447 294.565 261.008 294.47L254.093 292.979L254.645 292.427C254.88 292.195 255.066 291.919 255.194 291.615C255.321 291.311 255.387 290.985 255.388 290.656C255.389 290.326 255.325 290 255.2 289.695C255.074 289.39 254.889 289.113 254.656 288.88C254.423 288.647 254.146 288.463 253.841 288.337C253.537 288.211 253.21 288.147 252.881 288.148C252.551 288.149 252.225 288.215 251.921 288.343C251.617 288.47 251.341 288.657 251.11 288.891L250.557 289.444L249.066 282.529C248.972 282.09 248.76 281.684 248.455 281.355C248.149 281.025 247.76 280.784 247.329 280.657C246.898 280.53 246.441 280.522 246.005 280.633C245.57 280.744 245.172 280.97 244.855 281.288L232.391 293.751C227.599 291.316 222.359 289.884 216.994 289.544V264.195H278.203V269.152C278.203 272.04 280.554 274.391 283.442 274.391H329.761C332.65 274.391 335 272.04 335 269.152V254.239C335 251.35 332.649 249 329.761 249ZM283.203 388.849C283.203 388.724 283.317 388.61 283.442 388.61H329.761C329.886 388.61 330 388.724 330 388.849V403.762C330 403.887 329.886 404.001 329.761 404.001H283.442C283.38 403.998 283.32 403.972 283.276 403.928C283.231 403.884 283.206 403.824 283.203 403.762V388.849ZM283.203 355.196C283.203 355.071 283.317 354.957 283.442 354.957H329.761C329.886 354.957 330 355.071 330 355.196V370.109C330 370.234 329.886 370.348 329.761 370.348H283.442C283.38 370.346 283.32 370.32 283.276 370.275C283.231 370.231 283.206 370.172 283.203 370.109V355.196ZM283.203 321.544C283.203 321.419 283.317 321.305 283.442 321.305H329.761C329.886 321.305 330 321.419 330 321.544V336.457C330 336.582 329.886 336.696 329.761 336.696H283.442C283.38 336.693 283.32 336.668 283.276 336.623C283.231 336.579 283.206 336.519 283.203 336.457V321.544ZM180 328.958C180 309.938 195.474 294.464 214.494 294.464C219.675 294.464 224.786 295.633 229.418 297.856C229.423 298.002 229.437 298.148 229.468 298.293L231.638 308.363L231.256 308.744C226.704 304.963 220.86 302.685 214.494 302.685C200.007 302.685 188.221 314.471 188.221 328.958C188.221 343.445 200.007 355.231 214.494 355.231C228.98 355.231 240.766 343.445 240.766 328.958C240.766 322.635 238.52 316.826 234.784 312.287L235.173 311.898L245.243 314.068C245.373 314.096 245.504 314.11 245.635 314.117C247.841 318.753 248.987 323.823 248.987 328.958L248.987 328.998V329.001C248.964 348.001 233.499 363.452 214.494 363.452C195.474 363.452 180 347.978 180 328.958ZM222.545 328.958C222.545 333.397 218.933 337.009 214.494 337.009C210.055 337.009 206.443 333.397 206.443 328.958C206.443 324.519 210.055 320.907 214.494 320.907C215.826 320.907 217.083 321.234 218.191 321.81L212.768 327.232C212.419 327.582 212.18 328.027 212.084 328.512C211.988 328.997 212.037 329.5 212.226 329.957C212.416 330.413 212.736 330.804 213.147 331.078C213.558 331.353 214.041 331.5 214.536 331.5C214.864 331.5 215.189 331.436 215.493 331.31C215.796 331.185 216.072 331 216.304 330.768L221.699 325.372C222.257 326.485 222.546 327.713 222.545 328.958ZM221.83 318.17C219.669 316.693 217.112 315.904 214.494 315.907C207.298 315.907 201.443 321.762 201.443 328.958C201.443 336.155 207.297 342.01 214.494 342.01C221.691 342.01 227.545 336.155 227.545 328.958C227.548 326.382 226.784 323.863 225.35 321.723L231.226 315.846C234.066 319.462 235.767 324.014 235.767 328.958C235.767 340.688 226.224 350.231 214.494 350.231C202.765 350.231 193.222 340.688 193.222 328.958C193.222 317.228 202.764 307.685 214.494 307.685C219.481 307.685 224.07 309.415 227.701 312.3L221.83 318.17ZM255.468 298.391L244.965 308.894L239.382 307.69L249.885 297.187L255.468 298.391ZM245.145 288.068L246.349 293.652L235.846 304.155L234.642 298.571L245.145 288.068ZM330 269.152C330 269.277 329.886 269.391 329.761 269.391H283.442C283.379 269.388 283.32 269.362 283.276 269.318C283.231 269.274 283.205 269.214 283.203 269.152V254.239C283.203 254.114 283.317 254 283.442 254H329.761C329.886 254 330 254.114 330 254.239V269.152ZM329.761 282.653H283.442C280.553 282.653 278.203 285.003 278.203 287.892V292.848H270.625C269.962 292.848 269.326 293.111 268.857 293.58C268.388 294.049 268.125 294.685 268.125 295.348C268.125 296.011 268.388 296.647 268.857 297.116C269.326 297.585 269.962 297.848 270.625 297.848H278.203V302.804C278.203 305.693 280.553 308.043 283.442 308.043H329.761C332.649 308.043 335 305.693 335 302.804V287.892C335 285.003 332.649 282.653 329.761 282.653ZM330 302.804C330 302.929 329.886 303.043 329.761 303.043H283.442C283.379 303.041 283.32 303.015 283.276 302.971C283.231 302.926 283.205 302.867 283.203 302.804V287.892C283.203 287.767 283.317 287.653 283.442 287.653H329.761C329.886 287.653 330 287.766 330 287.892V302.804ZM322.461 261.695C322.461 262.358 322.197 262.994 321.728 263.463C321.26 263.932 320.624 264.195 319.961 264.195H293.242C292.579 264.195 291.943 263.932 291.474 263.463C291.005 262.994 290.742 262.358 290.742 261.695C290.742 261.032 291.005 260.396 291.474 259.928C291.943 259.459 292.579 259.195 293.242 259.195H319.961C320.624 259.195 321.26 259.459 321.728 259.928C322.197 260.396 322.461 261.032 322.461 261.695ZM322.461 295.348C322.461 296.011 322.197 296.647 321.728 297.116C321.26 297.585 320.624 297.848 319.961 297.848H293.242C292.579 297.848 291.943 297.585 291.474 297.116C291.005 296.647 290.742 296.011 290.742 295.348C290.742 294.685 291.005 294.049 291.474 293.58C291.943 293.111 292.579 292.848 293.242 292.848H319.961C320.624 292.848 321.26 293.111 321.728 293.58C322.197 294.049 322.461 294.685 322.461 295.348ZM290.742 329C290.742 328.337 291.005 327.701 291.474 327.232C291.943 326.764 292.579 326.5 293.242 326.5H319.961C320.624 326.5 321.26 326.764 321.728 327.232C322.197 327.701 322.461 328.337 322.461 329C322.461 329.663 322.197 330.299 321.728 330.768C321.26 331.237 320.624 331.5 319.961 331.5H293.242C292.579 331.5 291.943 331.237 291.474 330.768C291.005 330.299 290.742 329.663 290.742 329ZM290.742 362.653C290.742 361.99 291.005 361.354 291.474 360.885C291.943 360.416 292.579 360.153 293.242 360.153H319.961C320.624 360.153 321.26 360.416 321.728 360.885C322.197 361.354 322.461 361.99 322.461 362.653C322.461 363.316 322.197 363.952 321.728 364.42C321.26 364.889 320.624 365.153 319.961 365.153H293.242C291.861 365.153 290.742 364.033 290.742 362.653ZM290.742 396.305C290.742 395.642 291.005 395.006 291.474 394.537C291.943 394.068 292.579 393.805 293.242 393.805H319.961C320.624 393.805 321.26 394.068 321.728 394.537C322.197 395.006 322.461 395.642 322.461 396.305C322.461 396.968 322.197 397.604 321.728 398.073C321.26 398.542 320.624 398.805 319.961 398.805H293.242C292.579 398.805 291.943 398.542 291.474 398.073C291.005 397.604 290.742 396.968 290.742 396.305Z"/>
</mask>
<path d="M329.761 249H283.442C280.553 249 278.203 251.35 278.203 254.239V259.195H214.494C213.831 259.195 213.195 259.459 212.726 259.928C212.257 260.396 211.994 261.032 211.994 261.695V289.545C191.377 290.84 175 308.021 175 328.958C175 349.895 191.377 367.076 211.994 368.371V396.305C211.994 396.968 212.257 397.604 212.726 398.072C213.195 398.541 213.831 398.805 214.494 398.805H278.203V403.761C278.203 406.65 280.554 409 283.442 409H329.761C332.65 409 335 406.65 335 403.761V388.848C335 385.96 332.65 383.609 329.761 383.609H283.442C280.554 383.609 278.203 385.959 278.203 388.848V393.804H216.994V368.37C225.543 367.833 233.365 364.567 239.59 359.431L244.58 364.42C245.049 364.889 245.685 365.152 246.348 365.152H278.203V370.108C278.203 372.997 280.554 375.347 283.442 375.347H329.761C332.65 375.347 335 372.997 335 370.108V355.196C335 352.307 332.65 349.957 329.761 349.957H283.442C280.554 349.957 278.203 352.307 278.203 355.196V360.152H247.383L243.24 356.009C249.356 349.514 253.3 340.954 253.904 331.499H278.203V336.455C278.203 339.344 280.554 341.695 283.442 341.695H329.761C332.65 341.695 335 339.344 335 336.455V321.543C335 318.654 332.65 316.304 329.761 316.304H283.442C280.554 316.304 278.203 318.654 278.203 321.543V326.5H253.91C253.577 321.163 252.164 315.948 249.757 311.173L262.249 298.681C262.566 298.364 262.792 297.966 262.903 297.531C263.014 297.095 263.005 296.638 262.878 296.207C262.751 295.776 262.51 295.388 262.181 295.082C261.852 294.776 261.447 294.565 261.008 294.47L254.093 292.979L254.645 292.427C254.88 292.195 255.066 291.919 255.194 291.615C255.321 291.311 255.387 290.985 255.388 290.656C255.389 290.326 255.325 290 255.2 289.695C255.074 289.39 254.889 289.113 254.656 288.88C254.423 288.647 254.146 288.463 253.841 288.337C253.537 288.211 253.21 288.147 252.881 288.148C252.551 288.149 252.225 288.215 251.921 288.343C251.617 288.47 251.341 288.657 251.11 288.891L250.557 289.444L249.066 282.529C248.972 282.09 248.76 281.684 248.455 281.355C248.149 281.025 247.76 280.784 247.329 280.657C246.898 280.53 246.441 280.522 246.005 280.633C245.57 280.744 245.172 280.97 244.855 281.288L232.391 293.751C227.599 291.316 222.359 289.884 216.994 289.544V264.195H278.203V269.152C278.203 272.04 280.554 274.391 283.442 274.391H329.761C332.65 274.391 335 272.04 335 269.152V254.239C335 251.35 332.649 249 329.761 249ZM283.203 388.849C283.203 388.724 283.317 388.61 283.442 388.61H329.761C329.886 388.61 330 388.724 330 388.849V403.762C330 403.887 329.886 404.001 329.761 404.001H283.442C283.38 403.998 283.32 403.972 283.276 403.928C283.231 403.884 283.206 403.824 283.203 403.762V388.849ZM283.203 355.196C283.203 355.071 283.317 354.957 283.442 354.957H329.761C329.886 354.957 330 355.071 330 355.196V370.109C330 370.234 329.886 370.348 329.761 370.348H283.442C283.38 370.346 283.32 370.32 283.276 370.275C283.231 370.231 283.206 370.172 283.203 370.109V355.196ZM283.203 321.544C283.203 321.419 283.317 321.305 283.442 321.305H329.761C329.886 321.305 330 321.419 330 321.544V336.457C330 336.582 329.886 336.696 329.761 336.696H283.442C283.38 336.693 283.32 336.668 283.276 336.623C283.231 336.579 283.206 336.519 283.203 336.457V321.544ZM180 328.958C180 309.938 195.474 294.464 214.494 294.464C219.675 294.464 224.786 295.633 229.418 297.856C229.423 298.002 229.437 298.148 229.468 298.293L231.638 308.363L231.256 308.744C226.704 304.963 220.86 302.685 214.494 302.685C200.007 302.685 188.221 314.471 188.221 328.958C188.221 343.445 200.007 355.231 214.494 355.231C228.98 355.231 240.766 343.445 240.766 328.958C240.766 322.635 238.52 316.826 234.784 312.287L235.173 311.898L245.243 314.068C245.373 314.096 245.504 314.11 245.635 314.117C247.841 318.753 248.987 323.823 248.987 328.958L248.987 328.998V329.001C248.964 348.001 233.499 363.452 214.494 363.452C195.474 363.452 180 347.978 180 328.958ZM222.545 328.958C222.545 333.397 218.933 337.009 214.494 337.009C210.055 337.009 206.443 333.397 206.443 328.958C206.443 324.519 210.055 320.907 214.494 320.907C215.826 320.907 217.083 321.234 218.191 321.81L212.768 327.232C212.419 327.582 212.18 328.027 212.084 328.512C211.988 328.997 212.037 329.5 212.226 329.957C212.416 330.413 212.736 330.804 213.147 331.078C213.558 331.353 214.041 331.5 214.536 331.5C214.864 331.5 215.189 331.436 215.493 331.31C215.796 331.185 216.072 331 216.304 330.768L221.699 325.372C222.257 326.485 222.546 327.713 222.545 328.958ZM221.83 318.17C219.669 316.693 217.112 315.904 214.494 315.907C207.298 315.907 201.443 321.762 201.443 328.958C201.443 336.155 207.297 342.01 214.494 342.01C221.691 342.01 227.545 336.155 227.545 328.958C227.548 326.382 226.784 323.863 225.35 321.723L231.226 315.846C234.066 319.462 235.767 324.014 235.767 328.958C235.767 340.688 226.224 350.231 214.494 350.231C202.765 350.231 193.222 340.688 193.222 328.958C193.222 317.228 202.764 307.685 214.494 307.685C219.481 307.685 224.07 309.415 227.701 312.3L221.83 318.17ZM255.468 298.391L244.965 308.894L239.382 307.69L249.885 297.187L255.468 298.391ZM245.145 288.068L246.349 293.652L235.846 304.155L234.642 298.571L245.145 288.068ZM330 269.152C330 269.277 329.886 269.391 329.761 269.391H283.442C283.379 269.388 283.32 269.362 283.276 269.318C283.231 269.274 283.205 269.214 283.203 269.152V254.239C283.203 254.114 283.317 254 283.442 254H329.761C329.886 254 330 254.114 330 254.239V269.152ZM329.761 282.653H283.442C280.553 282.653 278.203 285.003 278.203 287.892V292.848H270.625C269.962 292.848 269.326 293.111 268.857 293.58C268.388 294.049 268.125 294.685 268.125 295.348C268.125 296.011 268.388 296.647 268.857 297.116C269.326 297.585 269.962 297.848 270.625 297.848H278.203V302.804C278.203 305.693 280.553 308.043 283.442 308.043H329.761C332.649 308.043 335 305.693 335 302.804V287.892C335 285.003 332.649 282.653 329.761 282.653ZM330 302.804C330 302.929 329.886 303.043 329.761 303.043H283.442C283.379 303.041 283.32 303.015 283.276 302.971C283.231 302.926 283.205 302.867 283.203 302.804V287.892C283.203 287.767 283.317 287.653 283.442 287.653H329.761C329.886 287.653 330 287.766 330 287.892V302.804ZM322.461 261.695C322.461 262.358 322.197 262.994 321.728 263.463C321.26 263.932 320.624 264.195 319.961 264.195H293.242C292.579 264.195 291.943 263.932 291.474 263.463C291.005 262.994 290.742 262.358 290.742 261.695C290.742 261.032 291.005 260.396 291.474 259.928C291.943 259.459 292.579 259.195 293.242 259.195H319.961C320.624 259.195 321.26 259.459 321.728 259.928C322.197 260.396 322.461 261.032 322.461 261.695ZM322.461 295.348C322.461 296.011 322.197 296.647 321.728 297.116C321.26 297.585 320.624 297.848 319.961 297.848H293.242C292.579 297.848 291.943 297.585 291.474 297.116C291.005 296.647 290.742 296.011 290.742 295.348C290.742 294.685 291.005 294.049 291.474 293.58C291.943 293.111 292.579 292.848 293.242 292.848H319.961C320.624 292.848 321.26 293.111 321.728 293.58C322.197 294.049 322.461 294.685 322.461 295.348ZM290.742 329C290.742 328.337 291.005 327.701 291.474 327.232C291.943 326.764 292.579 326.5 293.242 326.5H319.961C320.624 326.5 321.26 326.764 321.728 327.232C322.197 327.701 322.461 328.337 322.461 329C322.461 329.663 322.197 330.299 321.728 330.768C321.26 331.237 320.624 331.5 319.961 331.5H293.242C292.579 331.5 291.943 331.237 291.474 330.768C291.005 330.299 290.742 329.663 290.742 329ZM290.742 362.653C290.742 361.99 291.005 361.354 291.474 360.885C291.943 360.416 292.579 360.153 293.242 360.153H319.961C320.624 360.153 321.26 360.416 321.728 360.885C322.197 361.354 322.461 361.99 322.461 362.653C322.461 363.316 322.197 363.952 321.728 364.42C321.26 364.889 320.624 365.153 319.961 365.153H293.242C291.861 365.153 290.742 364.033 290.742 362.653ZM290.742 396.305C290.742 395.642 291.005 395.006 291.474 394.537C291.943 394.068 292.579 393.805 293.242 393.805H319.961C320.624 393.805 321.26 394.068 321.728 394.537C322.197 395.006 322.461 395.642 322.461 396.305C322.461 396.968 322.197 397.604 321.728 398.073C321.26 398.542 320.624 398.805 319.961 398.805H293.242C292.579 398.805 291.943 398.542 291.474 398.073C291.005 397.604 290.742 396.968 290.742 396.305Z" stroke="white" stroke-width="36" mask="url(#path-4-inside-1_115_50)"/>
</g>
</g>
<defs>
<filter id="filter0_d_115_50" x="-14" y="23" width="557.676" height="483.668" filterUnits="userSpaceOnUse" color-interpolation-filters="sRGB">
<feFlood flood-opacity="0" result="BackgroundImageFix"/>
<feColorMatrix in="SourceAlpha" type="matrix" values="0 0 0 0 0 0 0 0 0 0 0 0 0 0 0 0 0 0 127 0" result="hardAlpha"/>
<feOffset/>
<feGaussianBlur stdDeviation="10"/>
<feComposite in2="hardAlpha" operator="out"/>
<feColorMatrix type="matrix" values="0 0 0 0 0 0 0 0 0 0 0 0 0 0 0 0 0 0 0.25 0"/>
<feBlend mode="normal" in2="BackgroundImageFix" result="effect1_dropShadow_115_50"/>
<feBlend mode="normal" in="SourceGraphic" in2="effect1_dropShadow_115_50" result="shape"/>
</filter>
</defs>
</svg>
