<svg width="520" height="451" viewBox="0 0 520 451" fill="none" xmlns="http://www.w3.org/2000/svg">
<path d="M108.327 43.1084L108.327 43.1083C114.532 32.8577 123.489 24.2936 134.34 18.3185C145.193 12.3422 157.534 9.18081 170.12 9.18024C170.12 9.18024 170.12 9.18024 170.12 9.18024H349.873C362.46 9.18038 374.804 12.3422 385.658 18.3195C396.509 24.2956 405.467 32.8613 411.673 43.1137L411.673 43.1145L501.549 191.574C507.753 201.821 511 213.41 511 225.18C511 236.95 507.753 248.539 501.549 258.786L508.315 262.882L501.549 258.786L411.673 407.252C405.467 417.503 396.51 426.067 385.659 432.042C374.805 438.019 362.463 441.18 349.876 441.18H170.124C157.537 441.18 145.195 438.019 134.341 432.043C123.49 426.068 114.533 417.503 108.327 407.252L101.338 411.483L108.327 407.252L18.4506 258.786L11.3786 263.067L18.4506 258.786C12.2471 248.539 9 236.95 9 225.18C9 213.41 12.2471 201.821 18.4506 191.574L18.4506 191.574L108.327 43.1084Z" stroke="#8D147A" stroke-width="18"/>
<path d="M93.1402 212.547C88.2871 212.547 83.8223 211.406 79.7457 209.125C75.7176 206.844 72.5145 203.69 70.1365 199.662C67.7585 195.633 66.5695 191.096 66.5695 186.049C66.5695 181.001 67.7585 176.464 70.1365 172.436C72.5145 168.408 75.7176 165.277 79.7457 163.045C83.8223 160.764 88.2871 159.623 93.1402 159.623C97.9933 159.623 102.434 160.764 106.462 163.045C110.49 165.277 113.669 168.408 115.998 172.436C118.376 176.464 119.565 181.001 119.565 186.049C119.565 191.096 118.376 195.633 115.998 199.662C113.669 203.69 110.466 206.844 106.389 209.125C102.361 211.406 97.9448 212.547 93.1402 212.547ZM93.1402 197.478C96.3433 197.478 98.8183 196.458 100.565 194.42C102.313 192.333 103.186 189.543 103.186 186.049C103.186 182.506 102.313 179.715 100.565 177.677C98.8183 175.59 96.3433 174.547 93.1402 174.547C89.8886 174.547 87.3893 175.59 85.6422 177.677C83.8951 179.715 83.0215 182.506 83.0215 186.049C83.0215 189.543 83.8951 192.333 85.6422 194.42C87.3893 196.458 89.8886 197.478 93.1402 197.478ZM144.468 176.585C145.487 174.692 146.943 173.212 148.836 172.144C150.777 171.028 153.082 170.47 155.751 170.47C158.954 170.47 161.842 171.319 164.414 173.018C166.986 174.668 169 177.095 170.456 180.298C171.961 183.452 172.713 187.189 172.713 191.508C172.713 195.828 171.961 199.589 170.456 202.792C169 205.946 166.986 208.373 164.414 210.071C161.842 211.721 158.954 212.547 155.751 212.547C153.082 212.547 150.777 212.013 148.836 210.945C146.943 209.829 145.487 208.324 144.468 206.432V212.037H128.307V158.168H144.468V176.585ZM156.334 191.508C156.334 189.324 155.776 187.626 154.659 186.413C153.543 185.199 152.112 184.593 150.364 184.593C148.617 184.593 147.186 185.199 146.069 186.413C144.953 187.626 144.395 189.324 144.395 191.508C144.395 193.692 144.953 195.391 146.069 196.604C147.186 197.817 148.617 198.424 150.364 198.424C152.112 198.424 153.543 197.817 154.659 196.604C155.776 195.391 156.334 193.692 156.334 191.508ZM188.705 167.704C185.891 167.704 183.634 166.952 181.935 165.447C180.237 163.943 179.388 162.05 179.388 159.769C179.388 157.44 180.237 155.523 181.935 154.018C183.634 152.465 185.891 151.689 188.705 151.689C191.472 151.689 193.704 152.465 195.403 154.018C197.101 155.523 197.951 157.44 197.951 159.769C197.951 162.05 197.101 163.943 195.403 165.447C193.704 166.952 191.472 167.704 188.705 167.704ZM196.859 214.876C196.859 226.087 191.229 231.692 179.97 231.692H174.583V217.933H177.713C178.781 217.933 179.533 217.715 179.97 217.278C180.455 216.841 180.698 216.138 180.698 215.167V170.98H196.859V214.876ZM246.674 191.144C246.674 192.261 246.601 193.328 246.456 194.347H220.467C220.71 197.89 222.19 199.662 224.908 199.662C226.655 199.662 227.917 198.861 228.693 197.259H245.801C245.218 200.171 243.981 202.792 242.088 205.121C240.244 207.402 237.89 209.222 235.027 210.581C232.212 211.891 229.106 212.547 225.709 212.547C221.632 212.547 217.992 211.697 214.789 209.999C211.635 208.3 209.16 205.873 207.364 202.719C205.617 199.516 204.743 195.779 204.743 191.508C204.743 187.238 205.617 183.525 207.364 180.37C209.16 177.167 211.635 174.717 214.789 173.018C217.992 171.319 221.632 170.47 225.709 170.47C229.785 170.47 233.401 171.319 236.556 173.018C239.759 174.668 242.234 177.046 243.981 180.152C245.776 183.258 246.674 186.922 246.674 191.144ZM230.295 187.286C230.295 185.927 229.858 184.908 228.985 184.229C228.111 183.501 227.019 183.137 225.709 183.137C222.846 183.137 221.171 184.52 220.686 187.286H230.295ZM252.513 191.508C252.513 187.238 253.387 183.525 255.134 180.37C256.93 177.167 259.405 174.717 262.559 173.018C265.762 171.319 269.402 170.47 273.479 170.47C278.817 170.47 283.306 171.975 286.946 174.984C290.634 177.992 292.964 182.166 293.934 187.505H276.827C276.196 185.369 274.959 184.301 273.115 184.301C271.804 184.301 270.761 184.908 269.984 186.121C269.256 187.335 268.893 189.13 268.893 191.508C268.893 193.886 269.256 195.682 269.984 196.895C270.761 198.109 271.804 198.715 273.115 198.715C274.959 198.715 276.196 197.647 276.827 195.512H293.934C292.964 200.851 290.634 205.024 286.946 208.033C283.306 211.042 278.817 212.547 273.479 212.547C269.402 212.547 265.762 211.697 262.559 209.999C259.405 208.3 256.93 205.873 255.134 202.719C253.387 199.516 252.513 195.779 252.513 191.508ZM327.521 198.278V212.037H321.406C310.147 212.037 304.517 206.432 304.517 195.221V184.447H299.422V170.98H304.517V161.079H320.678V170.98H327.375V184.447H320.678V195.512C320.678 196.483 320.896 197.186 321.333 197.623C321.819 198.06 322.595 198.278 323.663 198.278H327.521ZM344.741 167.704C341.926 167.704 339.669 166.952 337.971 165.447C336.272 163.943 335.423 162.05 335.423 159.769C335.423 157.44 336.272 155.523 337.971 154.018C339.669 152.465 341.926 151.689 344.741 151.689C347.507 151.689 349.739 152.465 351.438 154.018C353.137 155.523 353.986 157.44 353.986 159.769C353.986 162.05 353.137 163.943 351.438 165.447C349.739 166.952 347.507 167.704 344.741 167.704ZM352.748 170.98V212.037H336.588V170.98H352.748ZM383.779 196.677L390.331 170.98H407.511L393.825 212.037H373.66L359.975 170.98H377.155L383.779 196.677ZM454.457 191.144C454.457 192.261 454.384 193.328 454.239 194.347H428.25C428.493 197.89 429.973 199.662 432.691 199.662C434.438 199.662 435.7 198.861 436.476 197.259H453.583C453.001 200.171 451.763 202.792 449.871 205.121C448.027 207.402 445.673 209.222 442.81 210.581C439.995 211.891 436.889 212.547 433.492 212.547C429.415 212.547 425.775 211.697 422.572 209.999C419.418 208.3 416.943 205.873 415.147 202.719C413.4 199.516 412.526 195.779 412.526 191.508C412.526 187.238 413.4 183.525 415.147 180.37C416.943 177.167 419.418 174.717 422.572 173.018C425.775 171.319 429.415 170.47 433.492 170.47C437.568 170.47 441.184 171.319 444.338 173.018C447.541 174.668 450.016 177.046 451.763 180.152C453.559 183.258 454.457 186.922 454.457 191.144ZM438.078 187.286C438.078 185.927 437.641 184.908 436.767 184.229C435.894 183.501 434.802 183.137 433.492 183.137C430.628 183.137 428.954 184.52 428.469 187.286H438.078Z" fill="#8D147A"/>
<mask id="path-3-inside-1_93_593" fill="white">
<path d="M313.162 251.72H266.635C263.734 251.72 261.373 254.104 261.373 257.034V262.061H197.378C196.712 262.061 196.073 262.328 195.602 262.803C195.131 263.279 194.867 263.924 194.867 264.596V292.844C174.158 294.157 157.707 311.583 157.707 332.819C157.707 354.055 174.158 371.481 194.867 372.794V401.127C194.867 401.799 195.132 402.444 195.602 402.92C196.073 403.395 196.712 403.662 197.378 403.662H261.373V408.689C261.373 411.619 263.734 414.003 266.636 414.003H313.162C316.064 414.003 318.425 411.619 318.425 408.689V393.564C318.425 390.634 316.064 388.25 313.162 388.25H266.636C263.734 388.25 261.373 390.634 261.373 393.564V398.591H199.889V372.794C208.477 372.249 216.333 368.936 222.587 363.726L227.599 368.787C228.07 369.262 228.709 369.53 229.375 369.53H261.373V374.557C261.373 377.487 263.734 379.87 266.636 379.87H313.162C316.064 379.87 318.425 377.487 318.425 374.557V359.431C318.425 356.501 316.064 354.117 313.162 354.117H266.636C263.734 354.117 261.373 356.501 261.373 359.431V364.458H230.415L226.254 360.256C232.397 353.668 236.358 344.986 236.965 335.396H261.373V340.423C261.373 343.353 263.734 345.737 266.636 345.737H313.162C316.064 345.737 318.425 343.353 318.425 340.423V325.298C318.425 322.368 316.064 319.984 313.162 319.984H266.636C263.734 319.984 261.373 322.368 261.373 325.298V330.326H236.971C236.636 324.912 235.217 319.624 232.799 314.78L245.347 302.11C245.666 301.788 245.893 301.385 246.004 300.943C246.116 300.502 246.107 300.038 245.979 299.601C245.852 299.164 245.61 298.769 245.279 298.459C244.949 298.149 244.542 297.935 244.101 297.839L237.155 296.327L237.71 295.766C237.945 295.531 238.132 295.252 238.261 294.943C238.389 294.635 238.455 294.304 238.456 293.97C238.457 293.636 238.393 293.305 238.266 292.996C238.14 292.687 237.955 292.406 237.72 292.169C237.486 291.933 237.208 291.746 236.902 291.618C236.596 291.491 236.268 291.426 235.937 291.427C235.606 291.428 235.278 291.495 234.973 291.624C234.668 291.754 234.391 291.943 234.158 292.181L233.603 292.741L232.106 285.727C232.011 285.282 231.798 284.87 231.491 284.536C231.184 284.202 230.794 283.958 230.361 283.829C229.928 283.7 229.468 283.692 229.031 283.804C228.593 283.917 228.194 284.146 227.875 284.469L215.356 297.11C210.542 294.64 205.279 293.188 199.889 292.843V267.132H261.373V272.159C261.373 275.089 263.734 277.473 266.636 277.473H313.162C316.064 277.473 318.425 275.089 318.425 272.159V257.034C318.424 254.104 316.064 251.72 313.162 251.72ZM266.396 393.565C266.396 393.438 266.51 393.322 266.636 393.322H313.162C313.288 393.322 313.402 393.438 313.402 393.565V408.69C313.402 408.817 313.288 408.933 313.162 408.933H266.636C266.573 408.93 266.513 408.904 266.469 408.859C266.424 408.814 266.398 408.754 266.396 408.69V393.565ZM266.396 359.432C266.396 359.305 266.51 359.189 266.636 359.189H313.162C313.288 359.189 313.402 359.305 313.402 359.432V374.557C313.402 374.684 313.288 374.8 313.162 374.8H266.636C266.573 374.797 266.513 374.771 266.469 374.726C266.424 374.681 266.398 374.621 266.396 374.557V359.432ZM266.396 325.299C266.396 325.173 266.51 325.057 266.636 325.057H313.162C313.288 325.057 313.402 325.173 313.402 325.299V340.425C313.402 340.552 313.288 340.667 313.162 340.667H266.636C266.573 340.665 266.513 340.639 266.469 340.594C266.424 340.549 266.398 340.488 266.396 340.425V325.299ZM162.729 332.819C162.729 313.528 178.273 297.833 197.378 297.833C202.583 297.833 207.716 299.018 212.369 301.273C212.375 301.421 212.388 301.569 212.419 301.716L214.599 311.93L214.216 312.317C209.643 308.482 203.773 306.171 197.378 306.171C182.826 306.171 170.988 318.126 170.988 332.819C170.988 347.512 182.826 359.466 197.378 359.466C211.929 359.466 223.768 347.512 223.768 332.819C223.768 326.405 221.512 320.514 217.759 315.91L218.15 315.515L228.265 317.716C228.396 317.745 228.527 317.759 228.658 317.766C230.875 322.469 232.026 327.611 232.026 332.819L232.026 332.86V332.863C232.002 352.134 216.469 367.805 197.378 367.805C178.273 367.805 162.729 352.11 162.729 332.819ZM205.466 332.819C205.466 337.322 201.837 340.985 197.378 340.985C192.919 340.985 189.291 337.322 189.291 332.819C189.291 328.316 192.919 324.653 197.378 324.653C198.717 324.653 199.979 324.985 201.092 325.569L195.645 331.069C195.293 331.423 195.054 331.875 194.957 332.367C194.861 332.859 194.91 333.369 195.1 333.832C195.291 334.295 195.612 334.691 196.025 334.97C196.438 335.248 196.924 335.397 197.42 335.397C197.75 335.398 198.077 335.332 198.382 335.205C198.686 335.077 198.963 334.89 199.196 334.654L204.616 329.182C205.176 330.311 205.467 331.556 205.466 332.819ZM204.747 321.878C202.576 320.379 200.008 319.579 197.378 319.582C190.15 319.582 184.268 325.52 184.268 332.819C184.268 340.119 190.149 346.057 197.378 346.057C204.607 346.057 210.488 340.119 210.488 332.819C210.491 330.206 209.723 327.652 208.282 325.481L214.186 319.52C217.038 323.188 218.746 327.805 218.746 332.819C218.746 344.716 209.161 354.395 197.379 354.395C185.596 354.395 176.01 344.716 176.01 332.819C176.01 320.922 185.596 311.243 197.378 311.243C202.388 311.243 206.997 312.997 210.644 315.923L204.747 321.878ZM238.536 301.816L227.986 312.468L222.378 311.248L232.928 300.595L238.536 301.816ZM228.167 291.345L229.376 297.009L218.826 307.662L217.617 301.998L228.167 291.345ZM313.402 272.159C313.402 272.286 313.288 272.402 313.162 272.402H266.635C266.573 272.399 266.513 272.373 266.468 272.328C266.424 272.283 266.398 272.223 266.395 272.159V257.034C266.395 256.907 266.51 256.791 266.635 256.791H313.162C313.287 256.791 313.402 256.907 313.402 257.034V272.159ZM313.162 285.853H266.635C263.734 285.853 261.373 288.237 261.373 291.167V296.194H253.761C253.095 296.194 252.456 296.461 251.985 296.936C251.514 297.412 251.25 298.057 251.25 298.729C251.25 299.402 251.514 300.047 251.985 300.522C252.456 300.998 253.095 301.265 253.761 301.265H261.373V306.292C261.373 309.222 263.734 311.606 266.635 311.606H313.162C316.064 311.606 318.424 309.222 318.424 306.292V291.167C318.424 288.237 316.064 285.853 313.162 285.853ZM313.402 306.292C313.402 306.419 313.288 306.534 313.162 306.534H266.635C266.573 306.532 266.513 306.506 266.468 306.461C266.424 306.416 266.398 306.355 266.395 306.292V291.167C266.395 291.04 266.51 290.924 266.635 290.924H313.162C313.287 290.924 313.402 291.039 313.402 291.167V306.292ZM305.829 264.596C305.829 265.269 305.565 265.914 305.094 266.389C304.623 266.865 303.984 267.132 303.318 267.132H276.479C275.813 267.132 275.175 266.865 274.704 266.389C274.233 265.914 273.968 265.269 273.968 264.596C273.968 263.924 274.233 263.279 274.704 262.803C275.175 262.328 275.813 262.061 276.479 262.061H303.318C303.984 262.061 304.623 262.328 305.094 262.803C305.565 263.279 305.829 263.924 305.829 264.596ZM305.829 298.729C305.829 299.402 305.565 300.047 305.094 300.522C304.623 300.998 303.984 301.265 303.318 301.265H276.479C275.813 301.265 275.175 300.998 274.704 300.522C274.233 300.047 273.968 299.402 273.968 298.729C273.968 298.057 274.233 297.412 274.704 296.936C275.175 296.461 275.813 296.194 276.479 296.194H303.318C303.984 296.194 304.623 296.461 305.094 296.936C305.565 297.412 305.829 298.057 305.829 298.729ZM273.968 332.862C273.968 332.189 274.233 331.544 274.704 331.069C275.175 330.593 275.813 330.326 276.479 330.326H303.318C303.984 330.326 304.623 330.593 305.094 331.069C305.565 331.544 305.829 332.189 305.829 332.862C305.829 333.534 305.565 334.179 305.094 334.655C304.623 335.13 303.984 335.397 303.318 335.397H276.479C275.813 335.397 275.175 335.13 274.704 334.655C274.233 334.179 273.968 333.534 273.968 332.862ZM273.968 366.995C273.968 366.322 274.233 365.677 274.704 365.202C275.175 364.726 275.813 364.459 276.479 364.459H303.318C303.984 364.459 304.623 364.726 305.094 365.202C305.565 365.677 305.829 366.322 305.829 366.995C305.829 367.667 305.565 368.312 305.094 368.788C304.623 369.263 303.984 369.53 303.318 369.53H276.479C275.093 369.53 273.968 368.395 273.968 366.995ZM273.968 401.127C273.968 400.455 274.233 399.81 274.704 399.334C275.175 398.859 275.813 398.591 276.479 398.591H303.318C303.984 398.591 304.623 398.859 305.094 399.334C305.565 399.81 305.829 400.455 305.829 401.127C305.829 401.8 305.565 402.445 305.094 402.92C304.623 403.396 303.984 403.663 303.318 403.663H276.479C275.813 403.663 275.175 403.396 274.704 402.92C274.233 402.445 273.968 401.8 273.968 401.127Z"/>
</mask>
<path d="M313.162 251.72H266.635C263.734 251.72 261.373 254.104 261.373 257.034V262.061H197.378C196.712 262.061 196.073 262.328 195.602 262.803C195.131 263.279 194.867 263.924 194.867 264.596V292.844C174.158 294.157 157.707 311.583 157.707 332.819C157.707 354.055 174.158 371.481 194.867 372.794V401.127C194.867 401.799 195.132 402.444 195.602 402.92C196.073 403.395 196.712 403.662 197.378 403.662H261.373V408.689C261.373 411.619 263.734 414.003 266.636 414.003H313.162C316.064 414.003 318.425 411.619 318.425 408.689V393.564C318.425 390.634 316.064 388.25 313.162 388.25H266.636C263.734 388.25 261.373 390.634 261.373 393.564V398.591H199.889V372.794C208.477 372.249 216.333 368.936 222.587 363.726L227.599 368.787C228.07 369.262 228.709 369.53 229.375 369.53H261.373V374.557C261.373 377.487 263.734 379.87 266.636 379.87H313.162C316.064 379.87 318.425 377.487 318.425 374.557V359.431C318.425 356.501 316.064 354.117 313.162 354.117H266.636C263.734 354.117 261.373 356.501 261.373 359.431V364.458H230.415L226.254 360.256C232.397 353.668 236.358 344.986 236.965 335.396H261.373V340.423C261.373 343.353 263.734 345.737 266.636 345.737H313.162C316.064 345.737 318.425 343.353 318.425 340.423V325.298C318.425 322.368 316.064 319.984 313.162 319.984H266.636C263.734 319.984 261.373 322.368 261.373 325.298V330.326H236.971C236.636 324.912 235.217 319.624 232.799 314.78L245.347 302.11C245.666 301.788 245.893 301.385 246.004 300.943C246.116 300.502 246.107 300.038 245.979 299.601C245.852 299.164 245.61 298.769 245.279 298.459C244.949 298.149 244.542 297.935 244.101 297.839L237.155 296.327L237.71 295.766C237.945 295.531 238.132 295.252 238.261 294.943C238.389 294.635 238.455 294.304 238.456 293.97C238.457 293.636 238.393 293.305 238.266 292.996C238.14 292.687 237.955 292.406 237.72 292.169C237.486 291.933 237.208 291.746 236.902 291.618C236.596 291.491 236.268 291.426 235.937 291.427C235.606 291.428 235.278 291.495 234.973 291.624C234.668 291.754 234.391 291.943 234.158 292.181L233.603 292.741L232.106 285.727C232.011 285.282 231.798 284.87 231.491 284.536C231.184 284.202 230.794 283.958 230.361 283.829C229.928 283.7 229.468 283.692 229.031 283.804C228.593 283.917 228.194 284.146 227.875 284.469L215.356 297.11C210.542 294.64 205.279 293.188 199.889 292.843V267.132H261.373V272.159C261.373 275.089 263.734 277.473 266.636 277.473H313.162C316.064 277.473 318.425 275.089 318.425 272.159V257.034C318.424 254.104 316.064 251.72 313.162 251.72ZM266.396 393.565C266.396 393.438 266.51 393.322 266.636 393.322H313.162C313.288 393.322 313.402 393.438 313.402 393.565V408.69C313.402 408.817 313.288 408.933 313.162 408.933H266.636C266.573 408.93 266.513 408.904 266.469 408.859C266.424 408.814 266.398 408.754 266.396 408.69V393.565ZM266.396 359.432C266.396 359.305 266.51 359.189 266.636 359.189H313.162C313.288 359.189 313.402 359.305 313.402 359.432V374.557C313.402 374.684 313.288 374.8 313.162 374.8H266.636C266.573 374.797 266.513 374.771 266.469 374.726C266.424 374.681 266.398 374.621 266.396 374.557V359.432ZM266.396 325.299C266.396 325.173 266.51 325.057 266.636 325.057H313.162C313.288 325.057 313.402 325.173 313.402 325.299V340.425C313.402 340.552 313.288 340.667 313.162 340.667H266.636C266.573 340.665 266.513 340.639 266.469 340.594C266.424 340.549 266.398 340.488 266.396 340.425V325.299ZM162.729 332.819C162.729 313.528 178.273 297.833 197.378 297.833C202.583 297.833 207.716 299.018 212.369 301.273C212.375 301.421 212.388 301.569 212.419 301.716L214.599 311.93L214.216 312.317C209.643 308.482 203.773 306.171 197.378 306.171C182.826 306.171 170.988 318.126 170.988 332.819C170.988 347.512 182.826 359.466 197.378 359.466C211.929 359.466 223.768 347.512 223.768 332.819C223.768 326.405 221.512 320.514 217.759 315.91L218.15 315.515L228.265 317.716C228.396 317.745 228.527 317.759 228.658 317.766C230.875 322.469 232.026 327.611 232.026 332.819L232.026 332.86V332.863C232.002 352.134 216.469 367.805 197.378 367.805C178.273 367.805 162.729 352.11 162.729 332.819ZM205.466 332.819C205.466 337.322 201.837 340.985 197.378 340.985C192.919 340.985 189.291 337.322 189.291 332.819C189.291 328.316 192.919 324.653 197.378 324.653C198.717 324.653 199.979 324.985 201.092 325.569L195.645 331.069C195.293 331.423 195.054 331.875 194.957 332.367C194.861 332.859 194.91 333.369 195.1 333.832C195.291 334.295 195.612 334.691 196.025 334.97C196.438 335.248 196.924 335.397 197.42 335.397C197.75 335.398 198.077 335.332 198.382 335.205C198.686 335.077 198.963 334.89 199.196 334.654L204.616 329.182C205.176 330.311 205.467 331.556 205.466 332.819ZM204.747 321.878C202.576 320.379 200.008 319.579 197.378 319.582C190.15 319.582 184.268 325.52 184.268 332.819C184.268 340.119 190.149 346.057 197.378 346.057C204.607 346.057 210.488 340.119 210.488 332.819C210.491 330.206 209.723 327.652 208.282 325.481L214.186 319.52C217.038 323.188 218.746 327.805 218.746 332.819C218.746 344.716 209.161 354.395 197.379 354.395C185.596 354.395 176.01 344.716 176.01 332.819C176.01 320.922 185.596 311.243 197.378 311.243C202.388 311.243 206.997 312.997 210.644 315.923L204.747 321.878ZM238.536 301.816L227.986 312.468L222.378 311.248L232.928 300.595L238.536 301.816ZM228.167 291.345L229.376 297.009L218.826 307.662L217.617 301.998L228.167 291.345ZM313.402 272.159C313.402 272.286 313.288 272.402 313.162 272.402H266.635C266.573 272.399 266.513 272.373 266.468 272.328C266.424 272.283 266.398 272.223 266.395 272.159V257.034C266.395 256.907 266.51 256.791 266.635 256.791H313.162C313.287 256.791 313.402 256.907 313.402 257.034V272.159ZM313.162 285.853H266.635C263.734 285.853 261.373 288.237 261.373 291.167V296.194H253.761C253.095 296.194 252.456 296.461 251.985 296.936C251.514 297.412 251.25 298.057 251.25 298.729C251.25 299.402 251.514 300.047 251.985 300.522C252.456 300.998 253.095 301.265 253.761 301.265H261.373V306.292C261.373 309.222 263.734 311.606 266.635 311.606H313.162C316.064 311.606 318.424 309.222 318.424 306.292V291.167C318.424 288.237 316.064 285.853 313.162 285.853ZM313.402 306.292C313.402 306.419 313.288 306.534 313.162 306.534H266.635C266.573 306.532 266.513 306.506 266.468 306.461C266.424 306.416 266.398 306.355 266.395 306.292V291.167C266.395 291.04 266.51 290.924 266.635 290.924H313.162C313.287 290.924 313.402 291.039 313.402 291.167V306.292ZM305.829 264.596C305.829 265.269 305.565 265.914 305.094 266.389C304.623 266.865 303.984 267.132 303.318 267.132H276.479C275.813 267.132 275.175 266.865 274.704 266.389C274.233 265.914 273.968 265.269 273.968 264.596C273.968 263.924 274.233 263.279 274.704 262.803C275.175 262.328 275.813 262.061 276.479 262.061H303.318C303.984 262.061 304.623 262.328 305.094 262.803C305.565 263.279 305.829 263.924 305.829 264.596ZM305.829 298.729C305.829 299.402 305.565 300.047 305.094 300.522C304.623 300.998 303.984 301.265 303.318 301.265H276.479C275.813 301.265 275.175 300.998 274.704 300.522C274.233 300.047 273.968 299.402 273.968 298.729C273.968 298.057 274.233 297.412 274.704 296.936C275.175 296.461 275.813 296.194 276.479 296.194H303.318C303.984 296.194 304.623 296.461 305.094 296.936C305.565 297.412 305.829 298.057 305.829 298.729ZM273.968 332.862C273.968 332.189 274.233 331.544 274.704 331.069C275.175 330.593 275.813 330.326 276.479 330.326H303.318C303.984 330.326 304.623 330.593 305.094 331.069C305.565 331.544 305.829 332.189 305.829 332.862C305.829 333.534 305.565 334.179 305.094 334.655C304.623 335.13 303.984 335.397 303.318 335.397H276.479C275.813 335.397 275.175 335.13 274.704 334.655C274.233 334.179 273.968 333.534 273.968 332.862ZM273.968 366.995C273.968 366.322 274.233 365.677 274.704 365.202C275.175 364.726 275.813 364.459 276.479 364.459H303.318C303.984 364.459 304.623 364.726 305.094 365.202C305.565 365.677 305.829 366.322 305.829 366.995C305.829 367.667 305.565 368.312 305.094 368.788C304.623 369.263 303.984 369.53 303.318 369.53H276.479C275.093 369.53 273.968 368.395 273.968 366.995ZM273.968 401.127C273.968 400.455 274.233 399.81 274.704 399.334C275.175 398.859 275.813 398.591 276.479 398.591H303.318C303.984 398.591 304.623 398.859 305.094 399.334C305.565 399.81 305.829 400.455 305.829 401.127C305.829 401.8 305.565 402.445 305.094 402.92C304.623 403.396 303.984 403.663 303.318 403.663H276.479C275.813 403.663 275.175 403.396 274.704 402.92C274.233 402.445 273.968 401.8 273.968 401.127Z" stroke="#8D147A" stroke-width="36" mask="url(#path-3-inside-1_93_593)"/>
</svg>
