<svg width="530" height="530" viewBox="0 0 530 530" fill="none" xmlns="http://www.w3.org/2000/svg">
<mask id="mask0_115_47" style="mask-type:alpha" maskUnits="userSpaceOnUse" x="0" y="0" width="530" height="530">
<rect width="530" height="530" fill="#D9D9D9"/>
</mask>
<g mask="url(#mask0_115_47)">
<g filter="url(#filter0_d_115_47)">
<path d="M114.711 85.9444L114.711 85.9442C120.781 76.0139 129.554 67.6984 140.206 61.8895C150.86 56.0792 162.986 53.0006 175.36 53C175.36 53 175.36 53 175.361 53H354.31C366.686 53.0001 378.814 56.0791 389.469 61.8905C400.122 67.7004 408.897 76.0174 414.966 85.9495L414.967 85.9504L504.442 232.321C510.509 242.246 513.678 253.458 513.678 264.834C513.678 276.21 510.509 287.421 504.442 297.347L512.673 302.378L504.442 297.347L414.967 443.723C408.897 453.654 400.122 461.97 389.47 467.779C378.815 473.589 366.688 476.668 354.314 476.668H175.364C162.989 476.668 150.862 473.589 140.207 467.779C129.555 461.97 120.781 453.654 114.711 443.723L106.271 448.882L114.711 443.723L25.2357 297.347L25.2356 297.347C19.1684 287.421 16 276.21 16 264.834C16 253.458 19.1684 242.246 25.2356 232.321L25.2357 232.321L114.711 85.9444Z" fill="#4E148D" stroke="white" stroke-width="20"/>
<path d="M246.039 152.941L236.186 196H219.401L214.414 171.551L209.427 196H192.641L182.789 152.941H197.324L201.216 180.066L207.055 152.941H221.772L227.611 180.066L231.503 152.941H246.039ZM277.336 161.456C281.269 161.456 284.33 162.773 286.519 165.409C288.749 168.044 289.864 171.612 289.864 176.113V196H276.423V177.816C276.423 176.194 275.977 174.917 275.085 173.984C274.234 173.011 273.078 172.525 271.619 172.525C270.119 172.525 268.943 173.011 268.091 173.984C267.24 174.917 266.814 176.194 266.814 177.816V196H253.313V150.995H266.814V166.929C267.868 165.308 269.267 163.99 271.011 162.976C272.795 161.963 274.903 161.456 277.336 161.456ZM336.892 161.699L314.937 212.421H300.158L308.794 194.297L294.502 161.699H309.524L315.971 179.093L321.992 161.699H336.892ZM70.754 265.41C70.754 261.153 71.6055 257.362 73.3084 254.037C75.0518 250.712 77.525 248.138 80.7281 246.313C83.9311 244.448 87.7018 243.516 92.0401 243.516C95.7702 243.516 99.0949 244.225 102.014 245.644C104.974 247.023 107.366 248.989 109.191 251.544C111.056 254.098 112.292 257.078 112.9 260.484H98.6692C98.0205 259.065 97.0879 257.97 95.8716 257.2C94.6958 256.389 93.3375 255.983 91.7968 255.983C89.5263 255.983 87.7221 256.835 86.3841 258.537C85.0866 260.24 84.4379 262.531 84.4379 265.41C84.4379 268.289 85.0866 270.579 86.3841 272.282C87.7221 273.985 89.5263 274.837 91.7968 274.837C93.3375 274.837 94.6958 274.451 95.8716 273.681C97.0879 272.87 98.0205 271.755 98.6692 270.336H112.9C112.292 273.742 111.056 276.722 109.191 279.276C107.366 281.831 104.974 283.817 102.014 285.236C99.0949 286.615 95.7702 287.304 92.0401 287.304C87.7018 287.304 83.9311 286.392 80.7281 284.567C77.525 282.702 75.0518 280.107 73.3084 276.783C71.6055 273.458 70.754 269.667 70.754 265.41ZM136.493 287.426C133.047 287.426 129.945 286.716 127.188 285.297C124.431 283.878 122.262 281.851 120.681 279.215C119.14 276.539 118.37 273.417 118.37 269.85C118.37 266.282 119.14 263.18 120.681 260.544C122.262 257.869 124.431 255.821 127.188 254.402C129.945 252.983 133.047 252.273 136.493 252.273C139.94 252.273 143.041 252.983 145.798 254.402C148.555 255.821 150.704 257.869 152.245 260.544C153.826 263.18 154.617 266.282 154.617 269.85C154.617 273.417 153.826 276.539 152.245 279.215C150.704 281.851 148.555 283.878 145.798 285.297C143.041 286.716 139.94 287.426 136.493 287.426ZM136.493 275.749C137.75 275.749 138.804 275.262 139.656 274.289C140.507 273.276 140.933 271.796 140.933 269.85C140.933 267.903 140.507 266.444 139.656 265.471C138.804 264.457 137.75 263.95 136.493 263.95C135.236 263.95 134.182 264.457 133.331 265.471C132.479 266.444 132.054 267.903 132.054 269.85C132.054 271.796 132.459 273.276 133.27 274.289C134.121 275.262 135.196 275.749 136.493 275.749ZM159.467 269.85C159.467 266.241 160.075 263.119 161.291 260.484C162.548 257.808 164.251 255.78 166.4 254.402C168.549 252.983 170.961 252.273 173.637 252.273C175.867 252.273 177.773 252.74 179.354 253.672C180.976 254.564 182.212 255.801 183.064 257.382V241.995H196.565V287H183.064V282.317C182.212 283.898 180.976 285.155 179.354 286.088C177.773 286.98 175.867 287.426 173.637 287.426C170.961 287.426 168.549 286.736 166.4 285.358C164.251 283.939 162.548 281.912 161.291 279.276C160.075 276.6 159.467 273.458 159.467 269.85ZM183.124 269.85C183.124 268.025 182.658 266.606 181.726 265.592C180.793 264.579 179.597 264.072 178.137 264.072C176.678 264.072 175.482 264.579 174.549 265.592C173.617 266.606 173.15 268.025 173.15 269.85C173.15 271.674 173.617 273.093 174.549 274.107C175.482 275.12 176.678 275.627 178.137 275.627C179.597 275.627 180.793 275.12 181.726 274.107C182.658 273.093 183.124 271.674 183.124 269.85ZM238.267 269.545C238.267 270.478 238.206 271.37 238.084 272.221H216.373C216.575 275.181 217.812 276.661 220.082 276.661C221.542 276.661 222.596 275.992 223.245 274.654H237.537C237.05 277.087 236.017 279.276 234.435 281.222C232.895 283.128 230.928 284.648 228.536 285.784C226.184 286.878 223.59 287.426 220.751 287.426C217.346 287.426 214.305 286.716 211.629 285.297C208.993 283.878 206.926 281.851 205.425 279.215C203.966 276.539 203.236 273.417 203.236 269.85C203.236 266.282 203.966 263.18 205.425 260.544C206.926 257.869 208.993 255.821 211.629 254.402C214.305 252.983 217.346 252.273 220.751 252.273C224.157 252.273 227.178 252.983 229.813 254.402C232.489 255.78 234.557 257.767 236.017 260.362C237.517 262.957 238.267 266.018 238.267 269.545ZM224.583 266.322C224.583 265.187 224.218 264.335 223.488 263.768C222.758 263.16 221.846 262.856 220.751 262.856C218.359 262.856 216.96 264.011 216.555 266.322H224.583ZM256.52 265.41C256.52 261.153 257.371 257.362 259.074 254.037C260.818 250.712 263.291 248.138 266.494 246.313C269.697 244.448 273.468 243.516 277.806 243.516C281.536 243.516 284.861 244.225 287.78 245.644C290.74 247.023 293.132 248.989 294.957 251.544C296.822 254.098 298.058 257.078 298.666 260.484H284.435C283.786 259.065 282.854 257.97 281.638 257.2C280.462 256.389 279.104 255.983 277.563 255.983C275.292 255.983 273.488 256.835 272.15 258.537C270.853 260.24 270.204 262.531 270.204 265.41C270.204 268.289 270.853 270.579 272.15 272.282C273.488 273.985 275.292 274.837 277.563 274.837C279.104 274.837 280.462 274.451 281.638 273.681C282.854 272.87 283.786 271.755 284.435 270.336H298.666C298.058 273.742 296.822 276.722 294.957 279.276C293.132 281.831 290.74 283.817 287.78 285.236C284.861 286.615 281.536 287.304 277.806 287.304C273.468 287.304 269.697 286.392 266.494 284.567C263.291 282.702 260.818 280.107 259.074 276.783C257.371 273.458 256.52 269.667 256.52 265.41ZM319.462 259.024C320.84 257.037 322.523 255.456 324.51 254.28C326.496 253.064 328.564 252.456 330.713 252.456V266.869H326.881C324.327 266.869 322.442 267.315 321.225 268.207C320.05 269.099 319.462 270.681 319.462 272.951V287H305.96V252.699H319.462V259.024ZM373.09 252.699V287H359.589V281.77C358.535 283.392 357.115 284.709 355.332 285.723C353.588 286.736 351.5 287.243 349.067 287.243C345.134 287.243 342.053 285.926 339.823 283.29C337.634 280.655 336.539 277.087 336.539 272.586V252.699H349.98V270.883C349.98 272.505 350.405 273.803 351.257 274.776C352.149 275.708 353.325 276.175 354.784 276.175C356.284 276.175 357.46 275.708 358.312 274.776C359.163 273.803 359.589 272.505 359.589 270.883V252.699H373.09ZM396.886 287.426C393.642 287.426 390.764 286.899 388.25 285.844C385.777 284.79 383.81 283.331 382.351 281.466C380.891 279.601 380.06 277.492 379.857 275.141H392.811C392.973 276.154 393.399 276.904 394.088 277.391C394.818 277.877 395.73 278.121 396.825 278.121C397.514 278.121 398.062 277.979 398.467 277.695C398.873 277.371 399.075 276.985 399.075 276.539C399.075 275.769 398.65 275.222 397.798 274.897C396.947 274.573 395.507 274.208 393.48 273.803C391.007 273.316 388.959 272.789 387.338 272.221C385.756 271.654 384.358 270.681 383.141 269.302C381.965 267.924 381.377 266.018 381.377 263.585C381.377 261.477 381.925 259.571 383.02 257.869C384.155 256.125 385.817 254.767 388.007 253.794C390.196 252.78 392.852 252.273 395.974 252.273C400.596 252.273 404.204 253.409 406.799 255.679C409.435 257.95 411.016 260.909 411.543 264.558H399.562C399.359 263.626 398.933 262.916 398.285 262.43C397.636 261.903 396.764 261.639 395.67 261.639C394.98 261.639 394.453 261.781 394.088 262.065C393.723 262.308 393.541 262.693 393.541 263.22C393.541 263.91 393.967 264.437 394.818 264.802C395.67 265.126 397.028 265.471 398.893 265.836C401.366 266.322 403.454 266.869 405.157 267.478C406.86 268.086 408.34 269.14 409.597 270.64C410.854 272.1 411.482 274.127 411.482 276.722C411.482 278.749 410.894 280.574 409.718 282.195C408.543 283.817 406.84 285.094 404.61 286.027C402.42 286.959 399.846 287.426 396.886 287.426ZM443.296 252.456C447.229 252.456 450.29 253.773 452.479 256.409C454.709 259.044 455.824 262.612 455.824 267.113V287H442.383V268.816C442.383 267.194 441.937 265.917 441.045 264.984C440.194 264.011 439.038 263.525 437.579 263.525C436.079 263.525 434.903 264.011 434.051 264.984C433.2 265.917 432.774 267.194 432.774 268.816V287H419.273V241.995H432.774V257.929C433.828 256.308 435.227 254.99 436.971 253.976C438.755 252.963 440.863 252.456 443.296 252.456ZM203.418 334.941V345.645H191.984V378H178.483V345.645H167.171V334.941H203.418ZM242.719 360.545C242.719 361.478 242.658 362.37 242.536 363.221H220.825C221.027 366.181 222.264 367.661 224.534 367.661C225.994 367.661 227.048 366.992 227.697 365.654H241.989C241.502 368.087 240.469 370.276 238.887 372.222C237.347 374.128 235.38 375.648 232.988 376.784C230.636 377.878 228.042 378.426 225.203 378.426C221.798 378.426 218.757 377.716 216.081 376.297C213.445 374.878 211.378 372.851 209.877 370.215C208.418 367.539 207.688 364.417 207.688 360.85C207.688 357.282 208.418 354.18 209.877 351.544C211.378 348.869 213.445 346.821 216.081 345.402C218.757 343.983 221.798 343.273 225.203 343.273C228.609 343.273 231.63 343.983 234.265 345.402C236.941 346.78 239.009 348.767 240.469 351.362C241.969 353.957 242.719 357.018 242.719 360.545ZM229.035 357.322C229.035 356.187 228.67 355.335 227.94 354.768C227.21 354.16 226.298 353.856 225.203 353.856C222.811 353.856 221.412 355.011 221.007 357.322H229.035ZM247.597 360.85C247.597 357.282 248.327 354.18 249.786 351.544C251.287 348.869 253.354 346.821 255.99 345.402C258.666 343.983 261.707 343.273 265.112 343.273C269.572 343.273 273.323 344.53 276.364 347.044C279.445 349.558 281.391 353.045 282.202 357.505H267.91C267.383 355.721 266.349 354.829 264.808 354.829C263.714 354.829 262.842 355.335 262.193 356.349C261.585 357.363 261.281 358.863 261.281 360.85C261.281 362.836 261.585 364.336 262.193 365.35C262.842 366.364 263.714 366.87 264.808 366.87C266.349 366.87 267.383 365.978 267.91 364.194H282.202C281.391 368.654 279.445 372.141 276.364 374.655C273.323 377.169 269.572 378.426 265.112 378.426C261.707 378.426 258.666 377.716 255.99 376.297C253.354 374.878 251.287 372.851 249.786 370.215C248.327 367.539 247.597 364.417 247.597 360.85ZM312.938 343.456C316.87 343.456 319.932 344.773 322.121 347.409C324.351 350.044 325.466 353.612 325.466 358.113V378H312.025V359.816C312.025 358.194 311.579 356.917 310.687 355.984C309.836 355.011 308.68 354.525 307.221 354.525C305.721 354.525 304.545 355.011 303.693 355.984C302.842 356.917 302.416 358.194 302.416 359.816V378H288.915V332.995H302.416V348.929C303.47 347.308 304.869 345.99 306.613 344.976C308.397 343.963 310.505 343.456 312.938 343.456ZM347.255 330.988C351.755 330.988 355.364 332.123 358.08 334.394C360.837 336.624 362.216 339.908 362.216 344.246C362.216 347.814 360.999 350.693 358.567 352.882C356.175 355.072 353.032 356.207 349.14 356.288L348.775 360.606H336.855L336.49 347.713H341.599C343.991 347.713 345.815 347.449 347.072 346.922C348.37 346.395 349.018 345.544 349.018 344.368C349.018 343.598 348.816 343.01 348.41 342.604C348.045 342.158 347.539 341.935 346.89 341.935C346.079 341.935 345.471 342.199 345.065 342.726C344.7 343.212 344.518 343.861 344.518 344.672H331.807C331.685 342.158 332.172 339.868 333.267 337.8C334.402 335.732 336.145 334.09 338.497 332.874C340.849 331.617 343.768 330.988 347.255 330.988ZM342.997 378.487C340.646 378.487 338.761 377.858 337.341 376.601C335.922 375.344 335.213 373.763 335.213 371.857C335.213 369.911 335.922 368.31 337.341 367.053C338.761 365.755 340.646 365.107 342.997 365.107C345.309 365.107 347.174 365.755 348.593 367.053C350.012 368.31 350.721 369.911 350.721 371.857C350.721 373.763 350.012 375.344 348.593 376.601C347.174 377.858 345.309 378.487 342.997 378.487Z" fill="white"/>
</g>
</g>
<defs>
<filter id="filter0_d_115_47" x="-14" y="23" width="557.676" height="483.668" filterUnits="userSpaceOnUse" color-interpolation-filters="sRGB">
<feFlood flood-opacity="0" result="BackgroundImageFix"/>
<feColorMatrix in="SourceAlpha" type="matrix" values="0 0 0 0 0 0 0 0 0 0 0 0 0 0 0 0 0 0 127 0" result="hardAlpha"/>
<feOffset/>
<feGaussianBlur stdDeviation="10"/>
<feComposite in2="hardAlpha" operator="out"/>
<feColorMatrix type="matrix" values="0 0 0 0 0 0 0 0 0 0 0 0 0 0 0 0 0 0 0.25 0"/>
<feBlend mode="normal" in2="BackgroundImageFix" result="effect1_dropShadow_115_47"/>
<feBlend mode="normal" in="SourceGraphic" in2="effect1_dropShadow_115_47" result="shape"/>
</filter>
</defs>
</svg>
