<svg width="520" height="450" viewBox="0 0 520 450" fill="none" xmlns="http://www.w3.org/2000/svg">
<path d="M108.327 42.9282L108.327 42.9281C114.532 32.6775 123.489 24.1133 134.34 18.1382C145.193 12.162 157.534 9.00057 170.12 9C170.12 9 170.12 9 170.12 9H349.873C362.46 9.00014 374.804 12.1619 385.658 18.1393C396.509 24.1154 405.467 32.6811 411.673 42.9335L411.673 42.9343L501.549 191.394C507.753 201.641 511 213.23 511 225C511 236.77 507.753 248.359 501.549 258.606L508.315 262.702L501.549 258.606L411.673 407.072C405.467 417.323 396.51 425.887 385.659 431.862C374.805 437.839 362.463 441 349.876 441H170.124C157.537 441 145.195 437.839 134.341 431.863C123.49 425.887 114.533 417.323 108.327 407.072L101.338 411.303L108.327 407.072L18.4506 258.606L11.3786 262.887L18.4506 258.606C12.2471 248.359 9 236.77 9 225C9 213.23 12.2471 201.641 18.4506 191.394L18.4506 191.394L108.327 42.9282Z" stroke="#4E148D" stroke-width="18"/>
<path d="M241.199 111.17L231.347 154.228H214.561L209.574 129.78L204.587 154.228H187.802L177.949 111.17H192.485L196.377 138.294L202.215 111.17H216.933L222.772 138.294L226.664 111.17H241.199ZM272.496 119.684C276.429 119.684 279.49 121.002 281.68 123.637C283.91 126.273 285.025 129.841 285.025 134.341V154.228H271.584V136.044C271.584 134.422 271.138 133.145 270.246 132.212C269.395 131.239 268.239 130.753 266.78 130.753C265.279 130.753 264.104 131.239 263.252 132.212C262.401 133.145 261.975 134.422 261.975 136.044V154.228H248.474V109.223H261.975V125.158C263.029 123.536 264.428 122.218 266.171 121.204C267.955 120.191 270.064 119.684 272.496 119.684ZM332.053 119.927L310.098 170.649H295.319L303.955 152.525L289.663 119.927H304.685L311.132 137.321L317.152 119.927H332.053ZM65.9147 223.638C65.9147 219.381 66.7662 215.59 68.469 212.265C70.2125 208.941 72.6857 206.366 75.8888 204.541C79.0918 202.676 82.8625 201.744 87.2008 201.744C90.9309 201.744 94.2556 202.453 97.1748 203.873C100.135 205.251 102.527 207.217 104.351 209.772C106.216 212.326 107.453 215.306 108.061 218.712H93.8299C93.1811 217.293 92.2486 216.198 91.0323 215.428C89.8565 214.617 88.4982 214.211 86.9575 214.211C84.687 214.211 82.8827 215.063 81.5448 216.766C80.2473 218.469 79.5986 220.759 79.5986 223.638C79.5986 226.517 80.2473 228.808 81.5448 230.51C82.8827 232.213 84.687 233.065 86.9575 233.065C88.4982 233.065 89.8565 232.68 91.0323 231.909C92.2486 231.098 93.1811 229.983 93.8299 228.564H108.061C107.453 231.97 106.216 234.95 104.351 237.504C102.527 240.059 100.135 242.045 97.1748 243.465C94.2556 244.843 90.9309 245.532 87.2008 245.532C82.8625 245.532 79.0918 244.62 75.8888 242.796C72.6857 240.931 70.2125 238.336 68.469 235.011C66.7662 231.686 65.9147 227.895 65.9147 223.638ZM131.654 245.654C128.208 245.654 125.106 244.944 122.349 243.525C119.592 242.106 117.423 240.079 115.841 237.444C114.301 234.768 113.53 231.646 113.53 228.078C113.53 224.51 114.301 221.408 115.841 218.773C117.423 216.097 119.592 214.049 122.349 212.63C125.106 211.211 128.208 210.502 131.654 210.502C135.1 210.502 138.202 211.211 140.959 212.63C143.716 214.049 145.865 216.097 147.406 218.773C148.987 221.408 149.778 224.51 149.778 228.078C149.778 231.646 148.987 234.768 147.406 237.444C145.865 240.079 143.716 242.106 140.959 243.525C138.202 244.944 135.1 245.654 131.654 245.654ZM131.654 233.977C132.911 233.977 133.965 233.491 134.816 232.517C135.668 231.504 136.094 230.024 136.094 228.078C136.094 226.132 135.668 224.672 134.816 223.699C133.965 222.685 132.911 222.179 131.654 222.179C130.397 222.179 129.343 222.685 128.491 223.699C127.64 224.672 127.214 226.132 127.214 228.078C127.214 230.024 127.62 231.504 128.431 232.517C129.282 233.491 130.357 233.977 131.654 233.977ZM154.627 228.078C154.627 224.469 155.235 221.347 156.452 218.712C157.709 216.036 159.412 214.009 161.56 212.63C163.709 211.211 166.122 210.502 168.798 210.502C171.028 210.502 172.933 210.968 174.514 211.9C176.136 212.792 177.373 214.029 178.224 215.61V200.223H191.726V245.228H178.224V240.545C177.373 242.127 176.136 243.383 174.514 244.316C172.933 245.208 171.028 245.654 168.798 245.654C166.122 245.654 163.709 244.965 161.56 243.586C159.412 242.167 157.709 240.14 156.452 237.504C155.235 234.829 154.627 231.686 154.627 228.078ZM178.285 228.078C178.285 226.253 177.819 224.834 176.886 223.821C175.954 222.807 174.758 222.3 173.298 222.3C171.839 222.3 170.642 222.807 169.71 223.821C168.777 224.834 168.311 226.253 168.311 228.078C168.311 229.902 168.777 231.321 169.71 232.335C170.642 233.349 171.839 233.855 173.298 233.855C174.758 233.855 175.954 233.349 176.886 232.335C177.819 231.321 178.285 229.902 178.285 228.078ZM233.427 227.774C233.427 228.706 233.367 229.598 233.245 230.45H211.533C211.736 233.409 212.973 234.889 215.243 234.889C216.703 234.889 217.757 234.22 218.406 232.882H232.698C232.211 235.315 231.177 237.504 229.596 239.451C228.055 241.356 226.089 242.877 223.697 244.012C221.345 245.107 218.75 245.654 215.912 245.654C212.506 245.654 209.465 244.944 206.789 243.525C204.154 242.106 202.086 240.079 200.586 237.444C199.126 234.768 198.397 231.646 198.397 228.078C198.397 224.51 199.126 221.408 200.586 218.773C202.086 216.097 204.154 214.049 206.789 212.63C209.465 211.211 212.506 210.502 215.912 210.502C219.318 210.502 222.338 211.211 224.974 212.63C227.65 214.009 229.718 215.995 231.177 218.59C232.677 221.185 233.427 224.246 233.427 227.774ZM219.744 224.55C219.744 223.415 219.379 222.564 218.649 221.996C217.919 221.388 217.007 221.084 215.912 221.084C213.52 221.084 212.121 222.239 211.716 224.55H219.744ZM251.681 223.638C251.681 219.381 252.532 215.59 254.235 212.265C255.978 208.941 258.452 206.366 261.655 204.541C264.858 202.676 268.628 201.744 272.967 201.744C276.697 201.744 280.022 202.453 282.941 203.873C285.901 205.251 288.293 207.217 290.117 209.772C291.982 212.326 293.219 215.306 293.827 218.712H279.596C278.947 217.293 278.015 216.198 276.798 215.428C275.622 214.617 274.264 214.211 272.723 214.211C270.453 214.211 268.649 215.063 267.311 216.766C266.013 218.469 265.365 220.759 265.365 223.638C265.365 226.517 266.013 228.808 267.311 230.51C268.649 232.213 270.453 233.065 272.723 233.065C274.264 233.065 275.622 232.68 276.798 231.909C278.015 231.098 278.947 229.983 279.596 228.564H293.827C293.219 231.97 291.982 234.95 290.117 237.504C288.293 240.059 285.901 242.045 282.941 243.465C280.022 244.843 276.697 245.532 272.967 245.532C268.628 245.532 264.858 244.62 261.655 242.796C258.452 240.931 255.978 238.336 254.235 235.011C252.532 231.686 251.681 227.895 251.681 223.638ZM314.622 217.252C316.001 215.266 317.683 213.684 319.67 212.509C321.657 211.292 323.725 210.684 325.874 210.684V225.098H322.042C319.488 225.098 317.602 225.544 316.386 226.436C315.21 227.328 314.622 228.909 314.622 231.179V245.228H301.121V210.927H314.622V217.252ZM368.251 210.927V245.228H354.749V239.998C353.695 241.62 352.276 242.937 350.492 243.951C348.749 244.965 346.661 245.472 344.228 245.472C340.295 245.472 337.214 244.154 334.984 241.518C332.794 238.883 331.7 235.315 331.7 230.815V210.927H345.14V229.112C345.14 230.733 345.566 232.031 346.417 233.004C347.309 233.937 348.485 234.403 349.945 234.403C351.445 234.403 352.621 233.937 353.472 233.004C354.324 232.031 354.749 230.733 354.749 229.112V210.927H368.251ZM392.047 245.654C388.803 245.654 385.924 245.127 383.411 244.073C380.937 243.019 378.971 241.559 377.511 239.694C376.052 237.829 375.22 235.72 375.018 233.369H387.972C388.134 234.383 388.56 235.133 389.249 235.619C389.979 236.106 390.891 236.349 391.986 236.349C392.675 236.349 393.222 236.207 393.628 235.923C394.033 235.599 394.236 235.214 394.236 234.768C394.236 233.997 393.81 233.45 392.959 233.126C392.107 232.801 390.668 232.436 388.641 232.031C386.168 231.544 384.12 231.017 382.498 230.45C380.917 229.882 379.518 228.909 378.302 227.53C377.126 226.152 376.538 224.246 376.538 221.814C376.538 219.705 377.086 217.8 378.18 216.097C379.316 214.353 380.978 212.995 383.167 212.022C385.357 211.008 388.012 210.502 391.134 210.502C395.756 210.502 399.365 211.637 401.96 213.907C404.595 216.178 406.177 219.138 406.704 222.787H394.723C394.52 221.854 394.094 221.145 393.445 220.658C392.797 220.131 391.925 219.867 390.83 219.867C390.141 219.867 389.614 220.009 389.249 220.293C388.884 220.536 388.702 220.922 388.702 221.449C388.702 222.138 389.127 222.665 389.979 223.03C390.83 223.354 392.189 223.699 394.054 224.064C396.527 224.55 398.615 225.098 400.318 225.706C402.021 226.314 403.501 227.368 404.757 228.868C406.014 230.328 406.643 232.355 406.643 234.95C406.643 236.977 406.055 238.802 404.879 240.424C403.703 242.045 402 243.323 399.77 244.255C397.581 245.188 395.006 245.654 392.047 245.654ZM438.456 210.684C442.389 210.684 445.45 212.002 447.64 214.637C449.87 217.273 450.985 220.841 450.985 225.341V245.228H437.544V227.044C437.544 225.422 437.098 224.145 436.206 223.212C435.355 222.239 434.199 221.753 432.74 221.753C431.239 221.753 430.064 222.239 429.212 223.212C428.361 224.145 427.935 225.422 427.935 227.044V245.228H414.434V200.223H427.935V216.158C428.989 214.536 430.388 213.218 432.131 212.204C433.915 211.191 436.024 210.684 438.456 210.684ZM198.579 293.17V303.873H187.145V336.228H173.644V303.873H162.332V293.17H198.579ZM237.879 318.774C237.879 319.706 237.819 320.598 237.697 321.45H215.985C216.188 324.409 217.425 325.889 219.695 325.889C221.155 325.889 222.209 325.22 222.858 323.882H237.15C236.663 326.315 235.629 328.504 234.048 330.451C232.507 332.356 230.541 333.877 228.149 335.012C225.797 336.107 223.202 336.654 220.364 336.654C216.958 336.654 213.917 335.944 211.241 334.525C208.606 333.106 206.538 331.079 205.038 328.444C203.578 325.768 202.849 322.646 202.849 319.078C202.849 315.51 203.578 312.408 205.038 309.773C206.538 307.097 208.606 305.049 211.241 303.63C213.917 302.211 216.958 301.502 220.364 301.502C223.77 301.502 226.79 302.211 229.426 303.63C232.102 305.009 234.17 306.995 235.629 309.59C237.129 312.185 237.879 315.246 237.879 318.774ZM224.196 315.55C224.196 314.415 223.831 313.564 223.101 312.996C222.371 312.388 221.459 312.084 220.364 312.084C217.972 312.084 216.573 313.239 216.168 315.55H224.196ZM242.758 319.078C242.758 315.51 243.487 312.408 244.947 309.773C246.447 307.097 248.515 305.049 251.15 303.63C253.826 302.211 256.867 301.502 260.273 301.502C264.733 301.502 268.483 302.758 271.524 305.272C274.606 307.786 276.552 311.273 277.363 315.733H263.071C262.544 313.949 261.51 313.057 259.969 313.057C258.874 313.057 258.003 313.564 257.354 314.577C256.746 315.591 256.442 317.091 256.442 319.078C256.442 321.064 256.746 322.565 257.354 323.578C258.003 324.592 258.874 325.099 259.969 325.099C261.51 325.099 262.544 324.207 263.071 322.423H277.363C276.552 326.883 274.606 330.37 271.524 332.883C268.483 335.397 264.733 336.654 260.273 336.654C256.867 336.654 253.826 335.944 251.15 334.525C248.515 333.106 246.447 331.079 244.947 328.444C243.487 325.768 242.758 322.646 242.758 319.078ZM308.098 301.684C312.031 301.684 315.092 303.002 317.282 305.637C319.512 308.273 320.627 311.841 320.627 316.341V336.228H307.186V318.044C307.186 316.422 306.74 315.145 305.848 314.212C304.997 313.239 303.841 312.753 302.381 312.753C300.881 312.753 299.705 313.239 298.854 314.212C298.003 315.145 297.577 316.422 297.577 318.044V336.228H284.075V291.223H297.577V307.158C298.631 305.536 300.03 304.218 301.773 303.204C303.557 302.191 305.666 301.684 308.098 301.684ZM342.415 289.216C346.916 289.216 350.524 290.352 353.241 292.622C355.998 294.852 357.376 298.136 357.376 302.475C357.376 306.043 356.16 308.921 353.727 311.111C351.335 313.3 348.193 314.435 344.301 314.516L343.936 318.835H332.016L331.651 305.941H336.759C339.152 305.941 340.976 305.678 342.233 305.151C343.53 304.624 344.179 303.772 344.179 302.596C344.179 301.826 343.976 301.238 343.571 300.833C343.206 300.387 342.699 300.164 342.05 300.164C341.24 300.164 340.631 300.427 340.226 300.954C339.861 301.441 339.679 302.089 339.679 302.9H326.968C326.846 300.387 327.333 298.096 328.427 296.028C329.563 293.96 331.306 292.318 333.658 291.102C336.009 289.845 338.929 289.216 342.415 289.216ZM338.158 336.715C335.807 336.715 333.921 336.086 332.502 334.829C331.083 333.573 330.374 331.991 330.374 330.086C330.374 328.14 331.083 326.538 332.502 325.281C333.921 323.984 335.807 323.335 338.158 323.335C340.469 323.335 342.334 323.984 343.753 325.281C345.172 326.538 345.882 328.14 345.882 330.086C345.882 331.991 345.172 333.573 343.753 334.829C342.334 336.086 340.469 336.715 338.158 336.715Z" fill="#4E148D"/>
</svg>
